<svg width="495" height="477" viewBox="0 0 495 477" fill="none" xmlns="http://www.w3.org/2000/svg">
<g clip-path="url(#clip0_150:215)">
<path d="M493.037 182.708C504.913 307.637 463.901 345.278 341.16 394.705C218.419 444.133 131.13 515.047 48.5571 361.717C-10.9548 251.197 63.2623 110.772 186.003 61.3342C308.745 11.8959 477.915 23.4736 493.037 182.708Z" fill="#C7ECC6"/>
<path opacity="0.7" d="M493.037 182.708C504.913 307.637 463.901 345.278 341.16 394.705C218.419 444.133 131.13 515.047 48.5571 361.717C-10.9548 251.197 63.2623 110.772 186.003 61.3342C308.745 11.8959 477.915 23.4736 493.037 182.708Z" fill="white"/>
<path d="M265.627 395.024C265.627 396.519 265.183 397.982 264.353 399.225C263.522 400.469 262.341 401.438 260.96 402.01C259.579 402.582 258.059 402.731 256.593 402.439C255.127 402.146 253.781 401.425 252.725 400.366C251.668 399.308 250.95 397.959 250.659 396.492C250.369 395.024 250.52 393.504 251.094 392.122C251.667 390.741 252.638 389.561 253.881 388.731C255.125 387.902 256.587 387.46 258.082 387.462C260.084 387.465 262.003 388.263 263.418 389.681C264.832 391.099 265.627 393.02 265.627 395.024Z" fill="white"/>
<path d="M409.466 258.956C409.468 260.452 409.027 261.916 408.197 263.161C407.368 264.406 406.188 265.377 404.807 265.95C403.426 266.524 401.906 266.674 400.439 266.383C398.973 266.092 397.626 265.371 396.568 264.313C395.511 263.255 394.791 261.907 394.5 260.439C394.209 258.971 394.359 257.45 394.932 256.068C395.506 254.686 396.476 253.505 397.72 252.675C398.964 251.845 400.426 251.403 401.922 251.406C403.923 251.406 405.842 252.201 407.256 253.617C408.671 255.033 409.466 256.953 409.466 258.956Z" fill="white"/>
<path d="M480.229 173.753C480.229 175.248 479.786 176.71 478.956 177.954C478.125 179.197 476.945 180.166 475.565 180.738C474.184 181.311 472.665 181.46 471.2 181.169C469.734 180.877 468.388 180.157 467.331 179.099C466.274 178.042 465.555 176.695 465.263 175.228C464.972 173.761 465.121 172.241 465.693 170.859C466.265 169.478 467.233 168.297 468.476 167.466C469.718 166.635 471.179 166.192 472.674 166.192C473.666 166.19 474.649 166.385 475.567 166.764C476.484 167.144 477.317 167.701 478.019 168.403C478.721 169.106 479.278 169.94 479.657 170.858C480.036 171.776 480.231 172.76 480.229 173.753Z" fill="white"/>
<path d="M398.15 181.588C398.15 183.084 397.706 184.546 396.876 185.789C396.046 187.033 394.866 188.002 393.485 188.574C392.105 189.146 390.586 189.296 389.12 189.004C387.654 188.712 386.308 187.992 385.252 186.935C384.195 185.877 383.475 184.53 383.184 183.063C382.892 181.597 383.042 180.076 383.614 178.695C384.186 177.313 385.154 176.132 386.396 175.302C387.639 174.471 389.1 174.027 390.594 174.027C392.598 174.027 394.52 174.824 395.937 176.242C397.354 177.66 398.15 179.583 398.15 181.588Z" fill="white"/>
<path d="M334.394 79.1232C334.396 80.6192 333.955 82.0821 333.126 83.327C332.297 84.5719 331.118 85.5427 329.737 86.1167C328.357 86.6906 326.837 86.8419 325.371 86.5514C323.905 86.2609 322.557 85.5417 321.5 84.4847C320.442 83.4276 319.721 82.0804 319.429 80.6134C319.136 79.1464 319.285 77.6255 319.857 76.2432C320.428 74.861 321.397 73.6794 322.639 72.8481C323.882 72.0168 325.343 71.5731 326.838 71.5731C327.83 71.5716 328.812 71.7659 329.729 72.1446C330.645 72.5234 331.478 73.0793 332.18 73.7806C332.882 74.4818 333.439 75.3146 333.818 76.2314C334.198 77.1481 334.394 78.1308 334.394 79.1232Z" fill="white"/>
<path d="M283.424 39.0897C283.427 40.5857 282.985 42.0486 282.156 43.2935C281.327 44.5383 280.148 45.5092 278.768 46.0832C277.387 46.6571 275.868 46.8084 274.402 46.5179C272.935 46.2274 271.588 45.5081 270.53 44.4511C269.472 43.3941 268.752 42.0469 268.459 40.5799C268.167 39.1128 268.316 37.592 268.887 36.2097C269.459 34.8275 270.427 33.6459 271.67 32.8146C272.913 31.9833 274.374 31.5396 275.869 31.5396C276.861 31.5381 277.843 31.7323 278.759 32.1111C279.676 32.4899 280.509 33.0458 281.211 33.7471C281.912 34.4483 282.469 35.2811 282.849 36.1979C283.229 37.1146 283.424 38.0973 283.424 39.0897Z" fill="white"/>
<path d="M142.546 138.394C142.546 139.89 142.102 141.353 141.271 142.596C140.441 143.84 139.26 144.809 137.879 145.381C136.498 145.953 134.978 146.102 133.512 145.809C132.046 145.517 130.7 144.796 129.644 143.737C128.587 142.678 127.869 141.33 127.578 139.863C127.288 138.395 127.439 136.875 128.013 135.493C128.586 134.112 129.556 132.932 130.8 132.102C132.044 131.273 133.506 130.831 135.001 130.833C135.993 130.833 136.975 131.029 137.891 131.409C138.807 131.789 139.639 132.346 140.34 133.048C141.04 133.751 141.596 134.584 141.974 135.502C142.353 136.419 142.547 137.402 142.546 138.394Z" fill="white"/>
<path d="M129.76 236.975C129.762 238.471 129.32 239.934 128.491 241.18C127.661 242.425 126.482 243.395 125.1 243.969C123.719 244.543 122.199 244.693 120.733 244.402C119.266 244.111 117.919 243.39 116.862 242.332C115.804 241.274 115.084 239.926 114.793 238.458C114.502 236.99 114.653 235.469 115.226 234.087C115.799 232.705 116.769 231.524 118.013 230.694C119.257 229.864 120.72 229.422 122.215 229.424C124.215 229.427 126.132 230.224 127.547 231.639C128.961 233.054 129.757 234.973 129.76 236.975Z" fill="white"/>
<path d="M145.079 295.971C145.079 297.467 144.635 298.93 143.805 300.173C142.974 301.417 141.793 302.386 140.412 302.958C139.031 303.53 137.511 303.679 136.045 303.386C134.579 303.094 133.233 302.373 132.177 301.314C131.121 300.255 130.402 298.907 130.112 297.44C129.821 295.972 129.973 294.452 130.546 293.07C131.12 291.689 132.09 290.509 133.334 289.679C134.578 288.85 136.039 288.408 137.534 288.41C138.526 288.41 139.508 288.606 140.424 288.986C141.34 289.366 142.172 289.923 142.873 290.625C143.574 291.328 144.129 292.161 144.508 293.079C144.886 293.996 145.08 294.979 145.079 295.971Z" fill="white"/>
<path d="M90.8305 375.72C95.0033 375.72 98.386 372.335 98.386 368.159C98.386 363.983 95.0033 360.598 90.8305 360.598C86.6577 360.598 83.275 363.983 83.275 368.159C83.275 372.335 86.6577 375.72 90.8305 375.72Z" fill="white"/>
<path d="M137.523 295.971L90.8304 368.159L258.06 395.024L401.911 258.967L390.594 181.588L472.674 173.731L326.838 79.1342L135.001 138.394L122.215 236.975L137.523 295.971Z" stroke="white" stroke-linecap="round" stroke-linejoin="round"/>
<path d="M275.869 39.1007L326.838 79.1342" stroke="white" stroke-linecap="round" stroke-linejoin="round"/>
<path d="M258.06 395.024L245.11 315.395" stroke="white" stroke-linecap="round" stroke-linejoin="round"/>
<path d="M134.99 138.394L179.029 178.263" stroke="white" stroke-linecap="round" stroke-linejoin="round"/>
<path d="M373.388 477.011C404.754 477.011 430.181 472.894 430.181 467.815C430.181 462.736 404.754 458.618 373.388 458.618C342.023 458.618 316.596 462.736 316.596 467.815C316.596 472.894 342.023 477.011 373.388 477.011Z" fill="#C7ECC6"/>
<path d="M345.211 300.198C391.547 253.827 391.547 178.645 345.211 132.274C298.875 85.9036 223.749 85.9036 177.413 132.274C131.077 178.645 131.077 253.827 177.413 300.198C223.749 346.568 298.875 346.568 345.211 300.198Z" fill="#515B60"/>
<path d="M345.211 300.198C391.547 253.827 391.547 178.645 345.211 132.274C298.875 85.9036 223.749 85.9036 177.413 132.274C131.077 178.645 131.077 253.827 177.413 300.198C223.749 346.568 298.875 346.568 345.211 300.198Z" stroke="#263238" stroke-linecap="round" stroke-linejoin="round"/>
<path d="M200.928 146.241C199.557 145.209 192.988 147.448 192.967 145.495C192.967 144.2 197.353 140.556 198.219 138.91C199.447 136.507 198.811 133.16 199.952 130.899C200.903 128.95 202.158 127.164 203.669 125.61C210.336 119.969 220.513 113.856 229 113.428C232.049 113.275 236.227 118.52 236.918 122.614C237.324 125.039 236.918 132.249 234.725 134.773C231.501 138.581 224.417 138.625 220.655 141.588C216.269 145.034 214.142 153.165 209.097 155.854C207.694 156.6 205.029 155.13 204.119 154.362C202.43 152.968 202.452 147.415 200.928 146.241Z" fill="#B4E6B2" stroke="#263238" stroke-linecap="round" stroke-linejoin="round"/>
<path d="M338.44 268.448C337.654 268.261 336.83 268.311 336.071 268.591C334.108 269.688 331.246 274.001 330.238 276.108C329.075 278.512 327.682 283.724 327.792 285.985C327.858 287.247 328.582 289.749 329.623 289.881C330.413 289.98 332.496 288.421 333.231 287.543C337.025 283 341.565 275.933 341.225 270.303C341.181 269.447 339.295 268.657 338.44 268.448Z" fill="#B4E6B2" stroke="#263238" stroke-linecap="round" stroke-linejoin="round"/>
<path d="M266.504 159.794C267.93 159.651 271.077 158.883 271.987 157.599C273.391 155.525 273.928 149.281 272.469 147.514C271.844 146.779 269.542 146.932 268.752 147.58C267.732 148.425 268.006 151.969 266.986 152.913C265.967 153.857 263.083 152.54 262.205 153.539C261.328 154.537 261.109 157.818 261.756 158.828C262.403 159.838 265.254 159.915 266.504 159.794Z" fill="#B4E6B2" stroke="#263238" stroke-linecap="round" stroke-linejoin="round"/>
<path d="M337.278 125.028C336.136 125.91 335.372 127.192 335.139 128.616C335.084 129.582 337.047 132.37 336.806 133.226C336.192 135.322 331.323 136.803 328.801 135.486C328.044 135.08 327.386 132.776 326.663 132.271C323.603 130.142 317.78 131.579 314.819 131.404C313.407 131.447 311.994 131.362 310.598 131.151C305.586 129.615 300.377 124.424 295.245 124.216C292.712 124.117 286.977 127.76 285.19 130.438C282.706 134.236 281.335 138.653 281.231 143.19C281.231 145.078 282.942 149.083 284.433 150.093C285.924 151.102 290.102 151.311 291.473 150.093C292.427 149.27 291.879 145.791 292.657 144.792C293.436 143.794 296.605 141.884 297.537 142.751C300.377 145.418 301.057 152.803 299.347 156.03C297.515 159.487 289.894 163.053 285.946 161.21C284.488 160.529 285.694 155.075 284.455 153.769C283.216 152.463 279.487 151.574 278.281 152.672C276.812 154.065 279.312 159.465 278.117 161.166C276.779 163.053 271.482 162.461 269.673 163.887C268.335 164.985 266.076 168.035 265.912 169.769C265.769 171.251 269.015 173.775 268.214 175.037C267.118 176.859 261.459 173.49 260.067 175.136C258.214 177.33 259.551 184.442 261.635 186.219C263.192 187.558 268.28 187.46 269.958 186.219C271.164 185.298 270.43 181.259 271.647 180.37C273.248 179.207 277.481 181.347 279.323 180.875C280.792 180.502 283.007 177.418 284.477 177.682C286.451 178.033 289.302 182.016 289.675 184.069C289.96 185.594 286.506 188.853 287.635 189.907C289.028 191.191 293.699 188.48 294.39 186.735C295.267 184.54 290.311 179.909 291.1 177.693C291.436 177.199 291.89 176.796 292.42 176.522C292.951 176.248 293.541 176.111 294.138 176.123C297 176.804 298.743 184.903 301.628 185.715C303.667 186.296 307.22 182.126 309.304 182.62C311.738 183.202 315.664 187.646 316.421 190.082C316.947 191.783 316.289 195.855 315.094 196.919C310.992 200.574 303.349 201.43 297.735 201.078C295.059 200.903 289.62 198.719 287.657 196.809C286.297 195.482 286.012 190.785 284.488 189.896C280.518 187.591 274.202 187.964 269.837 189.402C262.161 191.948 252.753 199.279 248.421 206.412C246.864 209.002 248.421 215.937 246.875 218.483C246.381 219.284 244.166 219.734 243.739 220.568C242.423 223.103 242.774 229.655 244.188 232.113C247.292 237.029 251.9 240.809 257.325 242.89C262.71 244.733 270.123 241.792 275.825 243.054C277.634 243.46 281.527 245.567 282.525 247.312C283.83 249.606 281.812 255.631 283.051 257.946C284.06 259.856 289.631 259.79 290.387 261.644C293.195 268.339 286.495 277.348 287.514 284.492C287.865 286.907 291.594 290.66 291.901 292.943C292.548 297.179 290.201 302.918 291.846 306.726C292.943 309.217 299.281 310.216 301.66 308.921C306.803 306.232 312.451 299.735 314.819 294.556C317.013 289.826 315.137 282.484 317.528 278.314C319.469 275.022 325.687 273.387 327.748 270.029C330.819 265.057 328.45 255.916 331.334 250.725C333.593 246.676 340.162 244.316 342.3 240.058C343.155 238.379 342.728 233.331 341.51 232.377C338.528 229.94 331.499 231.641 328.647 228.953C327.397 227.778 329.229 222.511 328.45 220.59C327.672 218.67 323.888 216.684 323.252 214.851C322.616 213.018 322.243 207.893 323.768 206.456C324.448 205.83 326.717 206.028 327.485 206.456C331.608 208.771 335.073 213.863 336.455 218.439C336.927 219.998 334.788 223.806 335.677 225.199C336.324 226.22 339.131 226.889 340.337 226.703C345.623 225.88 354.691 221.918 355.547 217.792C356.643 212.733 342.848 207.004 344.318 201.331C344.778 199.531 351.775 199.597 353.814 200.914C355.24 201.836 355.119 205.841 356.15 207.059C358.957 210.352 363.344 212.601 367.302 214.653C369.166 215.608 374.123 215.882 375.165 217.594C376.525 219.789 372.544 225.726 373.312 228.042C374.438 231.105 376.069 233.957 378.136 236.481C381.694 215.949 379.791 194.842 372.62 175.279C365.448 155.716 353.259 138.386 337.278 125.028Z" fill="#B4E6B2" stroke="#263238" stroke-linecap="round" stroke-linejoin="round"/>
<path d="M199.228 292.986C194.842 288.772 189.655 282.1 189.172 276.789C188.613 270.643 200.599 267.856 201.235 260.986C201.465 258.506 195.5 252.009 195.982 249.408C196.465 246.807 203.11 244.174 202.814 241.364C202.222 235.625 196.136 229.161 191.355 226.077C188.778 224.409 181.321 226.483 179.084 224.321C177.987 223.29 179.731 219.932 178.645 218.977C177.252 217.748 172.965 219.57 171.221 218.867C169.204 218.055 167.076 213.731 165.146 213.095C158.621 210.9 149.092 216.288 142.688 213.731C142.688 214.566 142.688 215.4 142.688 216.234V216.815C143.813 217.372 144.748 218.251 145.375 219.339C145.549 220.28 145.514 221.248 145.271 222.174C145.029 223.1 144.585 223.961 143.971 224.695C143.682 224.876 143.348 224.975 143.006 224.98C143.247 228.371 143.642 231.718 144.168 235.021C147.458 237.095 151.735 238.478 153.873 241.331C155.178 243.076 152.393 247.093 153.873 248.794C156.823 252.141 163.468 252.426 166.736 255.378C174.412 262.303 175.63 276.306 184.227 284.218C185.729 285.601 189.326 286.929 190.806 288.355C192.879 290.375 193.734 294.139 195.96 296.037C199.776 299.329 206.235 304.816 209.777 304.509C210.413 304.454 207.979 299.022 205.939 296.827C204.415 295.269 200.84 294.468 199.228 292.986Z" fill="#B4E6B2" stroke="#263238" stroke-linecap="round" stroke-linejoin="round"/>
<path d="M147.074 194.889C148.107 195.239 149.233 195.192 150.232 194.757C151.735 193.583 150.408 189.709 151.658 188.37C156.955 182.686 167.624 183.081 172.592 176.946C173.985 175.223 171.857 170.768 173.688 169.462C179.621 165.369 189.041 173.939 194.239 170.175C197.309 167.98 200.039 160.299 198.625 156.842C198.362 156.194 195.028 157.742 194.359 157.259C193.01 156.282 195.258 150.279 194.03 149.862C190.488 148.655 184.589 151.783 180.871 153.813C179.851 154.384 178.053 156.644 177.055 156.962C174.939 157.632 170.793 156.183 171.901 154.658C174.379 151.267 180.794 150.378 184.325 147.656C187.429 145.253 192.901 140.26 192.835 137.703C192.736 134.213 177.921 138.142 174.193 140.008C172 141.105 167.284 145.659 165.047 146.746C155.327 160.178 148.542 175.509 145.133 191.739C145.725 193.023 146.164 194.505 147.074 194.889Z" fill="#B4E6B2" stroke="#263238" stroke-linecap="round" stroke-linejoin="round"/>
<path d="M186.617 346.255L201.323 324.449" stroke="#263238" stroke-linecap="round" stroke-linejoin="round"/>
<path d="M115.811 211.142L138.817 211.482" stroke="#263238" stroke-linecap="round" stroke-linejoin="round"/>
<path d="M184.139 87.0026L198.329 109.785" stroke="#263238" stroke-linecap="round" stroke-linejoin="round"/>
<path d="M413.216 214.192L384.475 214.533" stroke="#263238" stroke-linecap="round" stroke-linejoin="round"/>
<path d="M108.738 295.499L132.863 328.411L145.934 346.244" stroke="#263238" stroke-linecap="round" stroke-linejoin="round"/>
<path d="M150.156 88.6158L93.9009 160.057" stroke="#263238" stroke-linecap="round" stroke-linejoin="round"/>
<path d="M340.929 361.596L203.34 367.632" stroke="#263238" stroke-linecap="round" stroke-linejoin="round"/>
<path d="M398.138 331.242L441.925 248.64" stroke="#263238" stroke-linecap="round" stroke-linejoin="round"/>
<path d="M445.336 181.983L443.888 155.207" stroke="#263238" stroke-linecap="round" stroke-linejoin="round"/>
<path d="M348.375 128.243L362.269 118.114" stroke="#263238" stroke-linecap="round" stroke-linejoin="round"/>
<path d="M203.121 58.031L361.699 60.7636" stroke="#263238" stroke-linecap="round" stroke-linejoin="round"/>
<path d="M473.728 227.759C480.754 212.748 474.291 194.878 459.291 187.847C444.291 180.815 426.435 187.284 419.409 202.295C412.382 217.306 418.846 235.175 433.846 242.207C448.846 249.238 466.701 242.77 473.728 227.759Z" fill="#92E3A9"/>
<path opacity="0.2" d="M473.728 227.759C480.754 212.748 474.291 194.878 459.291 187.847C444.291 180.815 426.435 187.284 419.409 202.295C412.382 217.306 418.846 235.175 433.846 242.207C448.846 249.238 466.701 242.77 473.728 227.759Z" fill="white"/>
<path d="M446.706 245.227C449.423 245.228 452.127 244.859 454.744 244.13L453.067 234.33L438.942 235.164L438.394 244.053C441.097 244.83 443.894 245.226 446.706 245.227Z" fill="white"/>
<path d="M436.168 234.494C438.734 238.785 442.506 241.496 446.728 241.496C450.95 241.496 454.722 238.785 457.299 234.494H436.168Z" fill="#263238" stroke="#263238" stroke-linecap="round" stroke-linejoin="round"/>
<path d="M446.706 245.227C449.423 245.228 452.127 244.859 454.744 244.13L453.067 234.33L438.942 235.164L438.394 244.053C441.097 244.83 443.894 245.226 446.706 245.227V245.227Z" stroke="#263238" stroke-linecap="round" stroke-linejoin="round"/>
<path d="M463.462 218.582C462.872 218.304 462.201 218.253 461.576 218.439C461.192 207.641 454.492 199.037 446.224 199.037C437.956 199.037 431.299 207.641 430.872 218.439C430.243 218.253 429.568 218.304 428.974 218.582C427.363 219.372 426.935 221.775 427.999 223.937C428.314 224.714 428.845 225.384 429.529 225.869C430.213 226.353 431.022 226.631 431.859 226.67C434.052 234.352 439.633 239.773 446.169 239.773C452.705 239.773 458.232 234.286 460.49 226.67C461.326 226.629 462.132 226.35 462.813 225.866C463.495 225.382 464.025 224.713 464.339 223.937C465.513 221.775 465.074 219.372 463.462 218.582Z" fill="white" stroke="#263238" stroke-linecap="round" stroke-linejoin="round"/>
<path d="M444.173 220.733L444.053 221.315C443.667 223.149 442.95 224.897 441.936 226.472V226.472L445.007 228.151" stroke="#263238" stroke-linecap="round" stroke-linejoin="round"/>
<path d="M441.531 232.223C442.835 232.785 444.239 233.075 445.659 233.075C447.079 233.075 448.484 232.785 449.788 232.223" stroke="#263238" stroke-linecap="round" stroke-linejoin="round"/>
<path d="M438.361 219.197C438.361 220.009 438.054 220.667 437.671 220.667C437.287 220.667 436.969 220.009 436.969 219.197C436.969 218.384 437.276 217.726 437.671 217.726C438.065 217.726 438.361 218.384 438.361 219.197Z" fill="#263238"/>
<path d="M450.051 219.197C450.051 220.009 449.733 220.667 449.349 220.667C448.965 220.667 448.647 220.009 448.647 219.197C448.647 218.384 448.965 217.726 449.349 217.726C449.733 217.726 450.051 218.384 450.051 219.197Z" fill="#263238"/>
<path d="M436.3 216.343C436.828 215.335 437.685 214.539 438.729 214.088C439.773 213.637 440.94 213.557 442.035 213.863" stroke="#263238" stroke-linecap="round" stroke-linejoin="round"/>
<path d="M454.415 216.343C453.887 215.335 453.03 214.539 451.986 214.088C450.942 213.637 449.775 213.557 448.68 213.863" stroke="#263238" stroke-linecap="round" stroke-linejoin="round"/>
<path d="M434.15 216.771H431.047" stroke="#263238" stroke-linecap="round" stroke-linejoin="round"/>
<path d="M443.428 216.771H434.797V222.335H443.428V216.771Z" stroke="#263238" stroke-linecap="round" stroke-linejoin="round"/>
<path d="M455.841 216.771H447.211V222.335H455.841V216.771Z" stroke="#263238" stroke-linecap="round" stroke-linejoin="round"/>
<path d="M443.438 218.406H447.211" stroke="#263238" stroke-linecap="round" stroke-linejoin="round"/>
<path d="M461.039 216.771H455.852" stroke="#263238" stroke-linecap="round" stroke-linejoin="round"/>
<path d="M432.045 218.406C433.141 218.505 436.354 211.295 435.115 206.5C433.876 201.704 445.862 205.347 453.341 204.48C460.819 203.613 455.929 215.07 460.15 217.792C464.372 220.513 463.44 201.122 459.383 200.541C459.383 200.541 456.356 194.779 444.678 195.262C432.999 195.745 431.453 203.141 431.453 203.141C431.453 203.141 425.729 217.792 432.045 218.406Z" fill="#263238" stroke="#263238" stroke-linecap="round" stroke-linejoin="round"/>
<path d="M166.199 89.0219C184.604 89.0219 199.524 74.0905 199.524 55.6716C199.524 37.2528 184.604 22.3214 166.199 22.3214C147.794 22.3214 132.874 37.2528 132.874 55.6716C132.874 74.0905 147.794 89.0219 166.199 89.0219Z" fill="#92E3A9"/>
<path opacity="0.3" d="M166.199 89.0219C184.604 89.0219 199.524 74.0905 199.524 55.6716C199.524 37.2528 184.604 22.3214 166.199 22.3214C147.794 22.3214 132.874 37.2528 132.874 55.6716C132.874 74.0905 147.794 89.0219 166.199 89.0219Z" fill="white"/>
<path d="M165.837 89.2524C168.854 89.2531 171.857 88.8433 174.763 88.0342L172.855 77.1808L157.152 78.1136L156.549 87.9903C159.57 88.8462 162.697 89.2711 165.837 89.2524Z" fill="white"/>
<path d="M154.071 78.5965C156.933 83.3593 161.122 86.3771 165.815 86.3771C170.508 86.3771 174.697 83.3593 177.549 78.5965H154.071Z" fill="#263238" stroke="#263238" stroke-linecap="round" stroke-linejoin="round"/>
<path d="M165.837 89.2524C168.854 89.2531 171.857 88.8433 174.763 88.0342L172.855 77.1808L157.152 78.1136L156.549 87.9903C159.57 88.8462 162.697 89.2711 165.837 89.2524Z" stroke="#263238" stroke-linecap="round" stroke-linejoin="round"/>
<path d="M181.376 41.6138C181.376 41.6138 196.519 72.6595 187.133 79.0574C177.154 85.8613 153.237 86.2125 145.671 77.96C138.104 69.7075 145.736 50.437 148.96 46.3875C151.314 43.6383 154.104 41.2951 157.218 39.4519L167.602 37.2571L178.195 41.098L181.376 41.6138Z" fill="#263238" stroke="#263238" stroke-linecap="round" stroke-linejoin="round"/>
<path d="M184.972 59.6223C184.313 59.3152 183.566 59.2568 182.867 59.4577C182.45 47.463 174.993 37.8936 165.87 37.8936C156.746 37.8936 149.289 47.463 148.862 59.4577C148.163 59.2568 147.415 59.3152 146.756 59.6223C144.98 60.5002 144.486 63.1669 145.66 65.5702C146.013 66.4306 146.604 67.1725 147.363 67.7089C148.123 68.2454 149.019 68.5541 149.947 68.5991C152.393 77.115 158.589 83.1727 165.859 83.1727C173.129 83.1727 179.314 77.115 181.759 68.5991C182.688 68.5541 183.584 68.2454 184.344 67.7089C185.103 67.1725 185.694 66.4306 186.047 65.5702C187.242 63.1779 186.76 60.5112 184.972 59.6223Z" fill="white" stroke="#263238" stroke-linecap="round" stroke-linejoin="round"/>
<path d="M163.534 62.0256L161.045 68.4016L164.466 70.2671" stroke="#263238" stroke-linecap="round" stroke-linejoin="round"/>
<path d="M161.045 74.7775C162.493 75.4061 164.055 75.7304 165.634 75.7304C167.213 75.7304 168.775 75.4061 170.223 74.7775" stroke="#263238" stroke-linecap="round" stroke-linejoin="round"/>
<path d="M153.774 56.1874C154.648 55.2691 155.813 54.682 157.07 54.526C158.328 54.3699 159.6 54.6545 160.672 55.3314" stroke="#263238" stroke-linecap="round" stroke-linejoin="round"/>
<path d="M174.456 56.33C173.615 55.3813 172.471 54.7535 171.22 54.5534C169.968 54.3534 168.686 54.5934 167.592 55.2326" stroke="#263238" stroke-linecap="round" stroke-linejoin="round"/>
<path d="M157.207 63.8034C155.935 63.8034 154.715 63.2985 153.814 62.3995C152.914 61.5004 152.407 60.2806 152.404 59.0077V57.614H160.617C160.985 57.6169 161.336 57.765 161.595 58.0261C161.854 58.2871 161.999 58.64 161.999 59.0077C161.999 60.2796 161.494 61.4994 160.595 62.3988C159.697 63.2982 158.478 63.8034 157.207 63.8034Z" fill="#263238" stroke="#263238" stroke-linecap="round" stroke-linejoin="round"/>
<path d="M170.991 63.8034C169.72 63.8034 168.501 63.2982 167.602 62.3988C166.704 61.4994 166.199 60.2796 166.199 59.0077C166.199 58.64 166.344 58.2871 166.603 58.0261C166.862 57.765 167.213 57.6169 167.581 57.614H175.794V59.0077C175.791 60.2806 175.284 61.5004 174.383 62.3995C173.483 63.2985 172.263 63.8034 170.991 63.8034Z" fill="#263238" stroke="#263238" stroke-linecap="round" stroke-linejoin="round"/>
<path d="M161.999 59.4357H166.199" stroke="#263238" stroke-linecap="round" stroke-linejoin="round"/>
<path d="M152.404 57.614H148.949" stroke="#263238" stroke-linecap="round" stroke-linejoin="round"/>
<path d="M182.746 57.614H176.342" stroke="#263238" stroke-linecap="round" stroke-linejoin="round"/>
<path d="M160.661 43.7538C160.661 43.7538 168.502 53.795 175.794 54.4754C183.086 55.1558 178.305 69.8392 175.794 70.2672C175.794 70.2672 182.373 70.5086 182.867 59.4687C182.867 59.4687 191.969 44.5439 176.551 38.2009C164.653 33.3064 158.676 37.9046 158.676 37.9046C158.676 37.9046 143.543 41.6687 147.48 57.0873C147.48 57.0873 150.145 65.1752 153.018 66.1409C153.018 66.1409 148.763 56.9775 152.919 52.0721C157.075 47.1667 160.354 47.3752 160.661 43.7538Z" fill="#263238" stroke="#263238" stroke-linecap="round" stroke-linejoin="round"/>
<path d="M219.372 32.7687H224.855C227.06 32.7687 229.174 31.8923 230.733 30.3323C232.292 28.7723 233.167 26.6565 233.167 24.4503C233.167 22.2441 232.292 20.1283 230.733 18.5683C229.174 17.0083 227.06 16.1319 224.855 16.1319H224.395C223.748 14.1519 222.493 12.4271 220.808 11.2041C219.123 9.98109 217.095 9.32251 215.013 9.32251C212.932 9.32251 210.904 9.98109 209.219 11.2041C207.534 12.4271 206.278 14.1519 205.632 16.1319H205.172C204.08 16.1319 202.999 16.3471 201.991 16.7651C200.982 17.1832 200.066 17.7959 199.294 18.5683C198.522 19.3408 197.91 20.2578 197.492 21.267C197.074 22.2762 196.859 23.3579 196.859 24.4503C196.859 25.5427 197.074 26.6244 197.492 27.6336C197.91 28.6428 198.522 29.5598 199.294 30.3323C200.066 31.1047 200.982 31.7174 201.991 32.1355C202.999 32.5535 204.08 32.7687 205.172 32.7687H207.452" stroke="#263238" stroke-linecap="round" stroke-linejoin="round"/>
<path d="M223.605 30.2666L213.429 20.0717L203.242 30.2666H209.328V38.4972H217.53V30.2666H223.605Z" fill="#92E3A9" stroke="#263238" stroke-linecap="round" stroke-linejoin="round"/>
<path d="M167.592 409.926C185.997 409.926 200.917 394.995 200.917 376.576C200.917 358.157 185.997 343.226 167.592 343.226C149.187 343.226 134.266 358.157 134.266 376.576C134.266 394.995 149.187 409.926 167.592 409.926Z" fill="#92E3A9"/>
<path opacity="0.2" d="M167.592 409.926C185.997 409.926 200.917 394.995 200.917 376.576C200.917 358.157 185.997 343.226 167.592 343.226C149.187 343.226 134.266 358.157 134.266 376.576C134.266 394.995 149.187 409.926 167.592 409.926Z" fill="white"/>
<path d="M167.603 409.926C170.62 409.927 173.623 409.517 176.529 408.708L174.676 397.811L158.973 398.744L158.37 408.62C161.371 409.487 164.479 409.926 167.603 409.926Z" fill="white"/>
<path d="M155.891 399.281C158.742 404.044 162.942 407.062 167.625 407.062C172.307 407.062 176.518 404.044 179.369 399.281H155.891Z" fill="#263238" stroke="#263238" stroke-linecap="round" stroke-linejoin="round"/>
<path d="M167.603 409.926C170.62 409.927 173.623 409.517 176.529 408.708L174.676 397.811L158.973 398.744L158.37 408.62C161.371 409.487 164.479 409.926 167.603 409.926Z" stroke="#263238" stroke-linecap="round" stroke-linejoin="round"/>
<path d="M186.672 380.955C186.013 380.648 185.265 380.589 184.567 380.79C184.15 368.795 176.693 359.226 167.57 359.226C158.446 359.226 150.978 368.795 150.562 380.79C149.863 380.589 149.115 380.648 148.456 380.955C146.68 381.833 146.186 384.499 147.359 386.903C147.714 387.772 148.311 388.52 149.079 389.059C149.847 389.598 150.754 389.905 151.691 389.942C154.136 398.458 160.332 404.516 167.603 404.516C174.873 404.516 181.058 398.458 183.503 389.942C184.431 389.898 185.328 389.589 186.087 389.052C186.847 388.516 187.438 387.774 187.791 386.914C188.975 384.455 188.493 381.833 186.672 380.955Z" fill="white" stroke="#263238" stroke-linecap="round" stroke-linejoin="round"/>
<path d="M167.241 383.347L169.73 389.723L166.309 391.589" stroke="#263238" stroke-linecap="round" stroke-linejoin="round"/>
<path d="M162.778 396.099C164.226 396.727 165.788 397.052 167.367 397.052C168.946 397.052 170.508 396.727 171.956 396.099" stroke="#263238" stroke-linecap="round" stroke-linejoin="round"/>
<path d="M161.922 381.866C161.922 382.765 161.571 383.501 161.144 383.501C160.716 383.501 160.365 382.765 160.365 381.866C160.365 380.966 160.716 380.23 161.144 380.23C161.571 380.23 161.922 380.966 161.922 381.866Z" fill="#263238"/>
<path d="M174.829 381.866C174.829 382.765 174.478 383.501 174.051 383.501C173.623 383.501 173.272 382.765 173.272 381.866C173.272 380.966 173.623 380.23 174.051 380.23C174.478 380.23 174.829 380.966 174.829 381.866Z" fill="#263238"/>
<path d="M157.064 378.464C157.646 377.339 158.598 376.451 159.759 375.949C160.92 375.447 162.219 375.362 163.436 375.709" stroke="#263238" stroke-linecap="round" stroke-linejoin="round"/>
<path d="M177.198 378.464C176.616 377.339 175.664 376.451 174.503 375.949C173.342 375.447 172.043 375.362 170.827 375.709" stroke="#263238" stroke-linecap="round" stroke-linejoin="round"/>
<path d="M148.939 378.464C148.939 378.464 151.581 383.808 152.985 383.347C154.389 382.886 152.36 372.988 155.781 370.463C159.203 367.939 171.024 371.21 175.915 367.007C175.915 367.007 175.838 372.801 179.106 375.512C182.374 378.222 181.124 383.654 182.681 383.347C184.238 383.04 184.698 379.089 185.005 377.421C185.948 372.417 187.341 358.293 178.952 358.293C178.952 358.293 176.924 355.341 164.697 355.648C152.47 355.956 152.185 352.543 152.185 352.543C152.185 352.543 142.874 365.492 148.939 378.464Z" fill="#263238" stroke="#263238" stroke-linecap="round" stroke-linejoin="round"/>
<path d="M388.828 141.456L448.044 148.82C461.993 150.554 474.527 140.468 475.36 126.872L480.415 43.644C481.238 30.0471 470.042 18.6121 455.994 18.7108L390.462 19.2156C376.974 19.3254 366.162 30.069 366.337 43.1501L367.609 118.487C367.782 124.234 370.025 129.723 373.924 133.945C377.824 138.166 383.117 140.834 388.828 141.456Z" fill="#92E3A9"/>
<path opacity="0.3" d="M388.828 141.456L448.044 148.82C461.993 150.554 474.527 140.468 475.36 126.872L480.415 43.644C481.238 30.0471 470.042 18.6121 455.994 18.7108L390.462 19.2156C376.974 19.3254 366.162 30.069 366.337 43.1501L367.609 118.487C367.782 124.234 370.025 129.723 373.924 133.945C377.824 138.166 383.117 140.834 388.828 141.456Z" fill="white"/>
<path d="M471.171 110.564V114.833H409.927V110.564C409.927 108.464 410.759 106.451 412.242 104.965C413.724 103.48 415.735 102.644 417.833 102.641H463.254C465.353 102.641 467.367 103.475 468.852 104.961C470.337 106.447 471.171 108.463 471.171 110.564Z" stroke="#263238" stroke-miterlimit="10"/>
<path d="M472.684 136.254V114.833H408.391V143.892" stroke="#263238" stroke-miterlimit="10"/>
<path d="M397.601 64.0887C397.601 64.0887 400.123 57.3506 406.462 58.4261C412.8 59.5016 407.953 64.802 404.904 65.2739C404.893 65.2739 404.444 63.4193 397.601 64.0887Z" fill="white" stroke="#263238" stroke-linecap="round" stroke-linejoin="round"/>
<path d="M393.401 67.9077C392.568 68.7417 390.561 68.8076 391.91 66.9968C393.018 65.5442 394.517 64.4367 396.23 63.8034C399.235 62.4645 400.408 62.706 403.128 62.1353C405.847 61.5647 406.352 62.6511 407.295 63.1669C409.543 64.396 410.08 64.6045 410.639 65.8445C411.199 67.0846 411.824 68.6868 410.08 68.6868C408.337 68.6868 408.38 66.0531 406.79 66.1518C405.2 66.2506 404.477 68.6868 403.391 68.6868H402.985C402.053 68.6868 402.009 67.9187 402.568 66.7005C403.128 65.4824 403.753 64.396 403.753 64.396C402.839 64.8826 402.108 65.6528 401.669 66.5908C400.924 68.1711 400.792 68.7856 399.476 68.7856C398.16 68.7856 398.204 67.776 399.564 65.4934C398.773 65.9599 398.119 66.6259 397.667 67.4248C397.009 68.6868 396.658 68.599 395.781 68.599C394.684 68.599 394.684 66.7115 396.746 65.4714C396.746 65.5592 396.296 65.0105 393.401 67.9077Z" fill="white" stroke="#263238" stroke-linecap="round" stroke-linejoin="round"/>
<path d="M401.34 63.3864C401.34 63.3864 400.54 63.3864 400.046 64.6923L401.34 63.3864Z" fill="white"/>
<path d="M401.34 63.3864C401.34 63.3864 400.54 63.3864 400.046 64.6923" stroke="#263238" stroke-linecap="round" stroke-linejoin="round"/>
<path d="M417.351 151.036L421.737 158.707H425.487L427.121 156.392L423.075 146.504L417.351 151.036Z" fill="white" stroke="#263238" stroke-linecap="round" stroke-linejoin="round"/>
<path d="M427.746 84.6212L423.217 86.3222C423.217 86.3222 390.956 95.6721 389.541 103.595C388.126 111.519 417.965 152.902 417.965 152.902C417.965 152.902 421.561 153.429 424.358 148.655C424.358 148.655 413.831 116.929 409.006 110.707C409.006 110.707 444.403 104.473 446.103 99.9411C447.803 95.4087 443.087 84.1823 443.087 84.1823L427.746 84.6212Z" fill="#263238" stroke="#263238" stroke-linecap="round" stroke-linejoin="round"/>
<path d="M419.346 158.554C419.423 158.415 419.534 158.298 419.668 158.214C419.802 158.13 419.956 158.08 420.114 158.071C421.468 157.986 422.783 157.588 423.957 156.908C425.131 156.228 426.131 155.285 426.88 154.153C427.013 153.962 427.212 153.828 427.439 153.775C427.666 153.722 427.904 153.755 428.108 153.868C429.779 154.852 431.184 156.231 432.198 157.884C432.564 158.465 432.691 159.164 432.554 159.837C432.417 160.509 432.027 161.103 431.464 161.495L417.471 170.911C416.726 171.413 415.847 171.681 414.949 171.679H411.473C411.278 171.679 411.085 171.633 410.912 171.544C410.738 171.454 410.589 171.325 410.476 171.165C410.363 171.006 410.29 170.822 410.263 170.629C410.236 170.436 410.256 170.239 410.321 170.055C410.46 169.63 410.704 169.248 411.03 168.943C411.356 168.638 411.753 168.42 412.186 168.31C414.488 167.75 418.886 159.486 419.346 158.554Z" fill="#263238"/>
<path d="M419.346 158.554C419.423 158.415 419.534 158.298 419.668 158.214C419.802 158.13 419.956 158.08 420.114 158.071C421.468 157.986 422.783 157.588 423.957 156.908C425.131 156.228 426.131 155.285 426.88 154.153C427.013 153.962 427.212 153.828 427.439 153.775C427.666 153.722 427.904 153.755 428.108 153.868C429.779 154.852 431.184 156.231 432.198 157.884C432.564 158.465 432.691 159.164 432.554 159.837C432.417 160.509 432.027 161.103 431.464 161.495L417.471 170.911C416.726 171.413 415.847 171.681 414.949 171.679H411.473C411.278 171.679 411.085 171.633 410.912 171.544C410.738 171.454 410.589 171.325 410.476 171.165C410.363 171.006 410.29 170.822 410.263 170.629C410.236 170.436 410.256 170.239 410.321 170.055C410.46 169.63 410.704 169.248 411.03 168.943C411.356 168.638 411.753 168.42 412.186 168.31C414.488 167.75 418.886 159.486 419.346 158.554Z" fill="#BFBFBF" stroke="#263238" stroke-linecap="round" stroke-linejoin="round"/>
<path d="M419.346 158.554C419.423 158.415 419.534 158.298 419.668 158.214C419.802 158.13 419.956 158.08 420.114 158.071C421.468 157.986 422.783 157.588 423.957 156.908C425.131 156.228 426.131 155.285 426.88 154.153C427.013 153.962 427.212 153.828 427.439 153.775C427.666 153.722 427.904 153.755 428.108 153.868C429.779 154.852 431.184 156.231 432.198 157.884C432.564 158.465 432.691 159.164 432.554 159.837C432.417 160.509 432.027 161.103 431.464 161.495L417.471 170.911C416.726 171.413 415.847 171.681 414.949 171.679H411.473C411.278 171.679 411.085 171.633 410.912 171.544C410.738 171.454 410.589 171.325 410.476 171.165C410.363 171.006 410.29 170.822 410.263 170.629C410.236 170.436 410.256 170.239 410.321 170.055C410.46 169.63 410.704 169.248 411.03 168.943C411.356 168.638 411.753 168.42 412.186 168.31C414.488 167.75 418.886 159.486 419.346 158.554Z" stroke="#263238" stroke-linecap="round" stroke-linejoin="round"/>
<path d="M402.141 106.811C402.141 106.811 404.148 106.954 407.525 109.5" stroke="#7F7F7F" stroke-linecap="round" stroke-linejoin="round"/>
<path d="M415.431 152.902L413.951 164.063L420.585 165.204L423.996 154.23L415.431 152.902Z" fill="white" stroke="#263238" stroke-linecap="round" stroke-linejoin="round"/>
<path d="M438.361 87.6062C438.767 89.1426 438.065 94.1907 436.65 94.904C431.167 97.8121 422.11 105.538 420.103 113.801C417.559 124.271 414.73 156.282 414.73 156.282C414.73 156.282 417 159.958 422.943 158.257C422.943 158.257 433.975 131.634 434.819 118.608C440.53 114.817 446.602 111.601 452.946 109.006C458.297 106.986 461.214 103.628 462.278 100.753C465.107 93.0713 459.448 80.6486 459.448 80.6486L438.504 84.8627L438.361 87.6062Z" fill="#263238" stroke="#263238" stroke-linecap="round" stroke-linejoin="round"/>
<path d="M429.676 115.217C431.135 115.379 432.497 116.024 433.547 117.05" stroke="#7F7F7F" stroke-linecap="round" stroke-linejoin="round"/>
<path d="M413.666 161.308C413.546 161.204 413.401 161.133 413.245 161.102C413.089 161.071 412.928 161.082 412.778 161.133C410.881 161.78 403.895 164.03 399.86 163.843C396.921 163.701 396 165.369 395.726 166.642C395.689 166.817 395.689 166.998 395.726 167.174C395.762 167.35 395.833 167.516 395.936 167.663C396.039 167.81 396.17 167.934 396.323 168.028C396.475 168.123 396.645 168.185 396.822 168.211L419.511 171.646C420.186 171.753 420.877 171.594 421.439 171.204C422.001 170.813 422.391 170.221 422.526 169.55C422.941 167.648 422.88 165.673 422.351 163.799C422.28 163.576 422.128 163.388 421.925 163.273C421.721 163.157 421.482 163.121 421.254 163.174C419.931 163.471 418.558 163.457 417.241 163.133C415.924 162.81 414.701 162.185 413.666 161.308Z" fill="#263238"/>
<path d="M413.666 161.308C413.546 161.204 413.401 161.133 413.245 161.102C413.089 161.071 412.928 161.082 412.778 161.133C410.881 161.78 403.895 164.03 399.86 163.843C396.921 163.701 396 165.369 395.726 166.642C395.689 166.817 395.689 166.998 395.726 167.174C395.762 167.35 395.833 167.516 395.936 167.663C396.039 167.81 396.17 167.934 396.323 168.028C396.475 168.123 396.645 168.185 396.822 168.211L419.511 171.646C420.186 171.753 420.877 171.594 421.439 171.204C422.001 170.813 422.391 170.221 422.526 169.55C422.941 167.648 422.88 165.673 422.351 163.799C422.28 163.576 422.128 163.388 421.925 163.273C421.721 163.157 421.482 163.121 421.254 163.174C419.931 163.471 418.558 163.457 417.241 163.133C415.924 162.81 414.701 162.185 413.666 161.308Z" fill="#BFBFBF" stroke="#263238" stroke-linecap="round" stroke-linejoin="round"/>
<path d="M413.666 161.308C413.546 161.204 413.401 161.133 413.245 161.102C413.089 161.071 412.928 161.082 412.778 161.133C410.881 161.78 403.895 164.03 399.86 163.843C396.921 163.701 396 165.369 395.726 166.642C395.689 166.817 395.689 166.998 395.726 167.174C395.762 167.35 395.833 167.516 395.936 167.663C396.039 167.81 396.17 167.934 396.323 168.028C396.475 168.123 396.645 168.185 396.822 168.211L419.511 171.646C420.186 171.753 420.877 171.594 421.439 171.204C422.001 170.813 422.391 170.221 422.526 169.55C422.941 167.648 422.88 165.673 422.351 163.799C422.28 163.576 422.128 163.388 421.925 163.273C421.721 163.157 421.482 163.121 421.254 163.174C419.931 163.471 418.558 163.457 417.241 163.133C415.924 162.81 414.701 162.185 413.666 161.308Z" stroke="#263238" stroke-linecap="round" stroke-linejoin="round"/>
<path d="M424.369 105.955C428.228 100.325 434.052 96.3433 440.697 94.7942" stroke="#7F7F7F" stroke-linecap="round" stroke-linejoin="round"/>
<path d="M462.563 85.1919C445.292 90.0095 423.217 86.2893 423.217 86.2893C423.593 83.082 423.508 79.8373 422.965 76.6541H443.274C443.999 76.6568 444.717 76.5156 445.387 76.2387C446.057 75.9618 446.666 75.5547 447.178 75.0409C448.192 74.0117 448.759 72.6235 448.757 71.178H421.945C421.221 67.8858 420.235 64.1326 418.973 59.9844C417.865 56.0871 417.13 52.0927 416.78 48.0556L409.872 60.5441C409.872 60.5441 408.994 63.5839 404.575 63.6717C400.156 63.7595 400.66 62.1573 404.488 49.6797C406.893 42.4598 410.673 35.7742 415.618 29.9922C415.823 29.751 416.099 29.5817 416.407 29.5094C416.407 29.4106 416.407 29.3557 416.407 29.3557C444.721 22.036 456.904 31.0896 456.904 31.0896C448.976 54.1352 462.563 85.1919 462.563 85.1919Z" fill="#92E3A9" stroke="#263238" stroke-linecap="round" stroke-linejoin="round"/>
<path d="M423.009 65.6799C423.009 65.6799 419.259 67.9516 420.344 68.4783C422.165 69.3672 426.123 66.5688 426.123 66.5688C426.123 66.5688 430.433 66.2835 428.24 65.2958L426.046 64.3082L423.009 65.6799Z" fill="white"/>
<path opacity="0.2" d="M423.009 65.6799C423.009 65.6799 419.259 67.9516 420.344 68.4783C422.165 69.3672 426.123 66.5688 426.123 66.5688C426.123 66.5688 430.433 66.2835 428.24 65.2958L426.046 64.3082L423.009 65.6799Z" fill="black"/>
<path d="M423.009 65.6799C423.009 65.6799 419.259 67.9516 420.344 68.4783C422.165 69.3672 426.123 66.5688 426.123 66.5688C426.123 66.5688 430.433 66.2835 428.24 65.2958L426.046 64.3082L423.009 65.6799Z" stroke="#263238" stroke-linecap="round" stroke-linejoin="round"/>
<path d="M427.922 31.6602C427.922 31.6602 430.115 41.6467 432.856 41.6467C435.598 41.6467 441.311 26.6231 441.311 26.6231L437.517 24.0223L427.922 31.6602Z" fill="white"/>
<path d="M421.813 23.1334C422.067 24.3817 422.472 25.5942 423.02 26.7439C424.895 30.3214 427.549 36.1267 431.069 35.2159C434.183 34.4148 438.8 29.7288 439.304 26.9194C439.583 25.3308 439.751 23.7247 439.809 22.1128L421.813 23.1334Z" fill="#263238" stroke="#263238" stroke-linecap="round" stroke-linejoin="round"/>
<path d="M427.922 31.6602C427.922 31.6602 430.115 41.6467 432.856 41.6467C435.598 41.6467 441.311 26.6231 441.311 26.6231L437.517 24.0223L427.922 31.6602Z" stroke="#263238" stroke-linecap="round" stroke-linejoin="round"/>
<path d="M422.724 2.34844C422.724 2.34844 414.872 4.54326 416.265 16.7904C417.712 29.5642 419.555 24.6039 418.743 27.2267C417.932 29.8495 430.345 30.069 430.345 30.069C430.345 30.069 441.19 28.7302 444.48 31.1006C447.77 33.471 449.678 27.8083 448.406 24.0223C447.134 20.2362 442.572 13.1689 441.267 7.4514C439.392 -0.735279 427.604 -0.515794 422.724 2.34844Z" fill="#263238" stroke="#263238" stroke-linecap="round" stroke-linejoin="round"/>
<path d="M420.344 12.686C420.344 12.686 420.344 21.7506 422.164 25.4379C423.985 29.1252 426.386 35.0622 430.115 34.3818C433.404 33.7563 438.613 29.3776 439.315 26.5792C439.735 24.9115 440.017 23.2121 440.159 21.4982C440.565 21.3226 441.837 22.2993 442.418 19.0949C442.638 17.9316 443.745 14.4967 441.223 13.9919C438.493 13.4652 438.515 17.3939 438.515 17.3939L434.501 7.16605L425.224 5.60773L422.121 7.02339L420.344 12.686Z" fill="white" stroke="#263238" stroke-linecap="round" stroke-linejoin="round"/>
<path d="M426.2 21.5092C426.058 22.6802 425.8 23.8344 425.432 24.9551C425.381 25.1413 425.403 25.3403 425.495 25.5102C425.587 25.6801 425.742 25.8076 425.926 25.8659L427.823 26.4256" stroke="#263238" stroke-linecap="round" stroke-linejoin="round"/>
<path d="M429.303 28.3351C429.303 28.3351 432.812 28.2363 434.238 26.272" stroke="#263238" stroke-linecap="round" stroke-linejoin="round"/>
<path d="M422.011 18.6889C422.093 18.5097 422.209 18.3484 422.353 18.2144C422.497 18.0804 422.666 17.9762 422.85 17.9078C423.035 17.8395 423.231 17.8083 423.428 17.8162C423.624 17.824 423.817 17.8707 423.996 17.9536" stroke="#263238" stroke-linecap="round" stroke-linejoin="round"/>
<path d="M428.141 17.3171C428.141 17.3171 429.885 16.0661 432.22 17.8109" stroke="#263238" stroke-linecap="round" stroke-linejoin="round"/>
<path d="M423.919 21.4543C423.985 21.9372 423.853 22.3762 423.601 22.4091C423.349 22.442 423.097 22.0689 423.02 21.5751C422.943 21.0812 423.097 20.6532 423.338 20.6203C423.579 20.5874 423.842 20.9605 423.919 21.4543Z" fill="#263238"/>
<path d="M430.213 21.0812C430.29 21.5751 430.148 22.0031 429.906 22.036C429.665 22.0689 429.391 21.6958 429.325 21.2129C429.259 20.7301 429.391 20.2801 429.643 20.2472C429.895 20.2143 430.115 20.5874 430.213 21.0812Z" fill="#263238"/>
<path d="M419.752 7.16607C419.752 7.16607 416.715 15.1662 421.167 14.9577C425.619 14.7492 429.402 11.8849 433.832 14.2444C438.262 16.6038 433.13 9.85472 433.13 9.85472C433.13 9.85472 437.659 14.6723 437.517 17.9975C437.374 21.3226 439.14 15.9453 438.855 14.1785C438.57 12.4117 435.598 3.65436 435.598 3.65436L430.795 2.55695L422.57 3.40195L419.752 7.16607Z" fill="#263238" stroke="#263238" stroke-linecap="round" stroke-linejoin="round"/>
<path d="M439.655 25.2623C439.359 26.5463 434.721 31.1335 437.791 32.0882C440.861 33.043 447.551 32.0882 448.559 28.6753C449.568 25.2623 446.366 23.4626 446.366 23.4626C446.366 23.4626 440.039 23.5504 439.655 25.2623Z" fill="#263238" stroke="#263238" stroke-linecap="round" stroke-linejoin="round"/>
<path d="M440.346 62.5962L430.159 63.101C430.159 63.101 421.594 61.005 418.688 61.1806C416.428 61.4482 414.229 62.0976 412.186 63.101C411.263 63.7868 410.553 64.7186 410.135 65.7897C410.05 66.3167 410.05 66.8539 410.135 67.3809C410.134 67.6591 410.239 67.9272 410.429 68.131C410.618 68.3347 410.877 68.4589 411.155 68.4783C413.107 68.621 416.342 68.7966 417.109 67.8309C417.109 67.8309 416.473 68.5881 417.625 68.5881C418.776 68.5881 420.344 66.7664 420.344 66.7664L423.788 66.6237C423.788 66.6237 425.268 68.4674 429.731 68.5881C430.455 68.4827 431.166 68.295 431.847 68.0284L440.127 69.1258L441.223 67.7101V62.9145L440.346 62.5962Z" fill="white" stroke="#263238" stroke-linecap="round" stroke-linejoin="round"/>
<path d="M411.692 67.6992C411.692 67.6992 412.646 64.2753 413.743 63.5949C414.708 63.1146 415.701 62.6896 416.715 62.3219" stroke="#263238" stroke-linecap="round" stroke-linejoin="round"/>
<path d="M414.061 67.6992C414.174 66.8923 414.411 66.1076 414.763 65.3727C415.663 64.3648 416.791 63.5861 418.052 63.101C418.822 63.0273 419.597 63.0273 420.366 63.101" stroke="#263238" stroke-linecap="round" stroke-linejoin="round"/>
<path d="M417.34 67.0627C417.34 67.0627 417.647 65.6031 418.03 65.2959C418.743 64.8731 419.527 64.5865 420.344 64.4509C420.95 64.4054 421.559 64.4054 422.165 64.4509" stroke="#263238" stroke-linecap="round" stroke-linejoin="round"/>
<path d="M438.559 69.2575C438.559 69.2575 458.177 71.8145 462.42 72.023C466.664 72.2315 465.6 51.4136 465.173 42.4917C464.745 33.5698 456.038 30.5519 456.038 30.5519C449.875 43.3696 456.894 60.1271 456.894 60.1271L439.491 62.256C439.491 62.256 440.818 66.7115 438.559 69.2575Z" fill="#92E3A9" stroke="#263238" stroke-linecap="round" stroke-linejoin="round"/>
<path d="M448.603 38.8812C448.841 43.2602 450.466 47.4497 453.242 50.843" stroke="#263238" stroke-linecap="round" stroke-linejoin="round"/>
<path d="M418.502 36.7742C417.677 40.8392 417.233 44.9724 417.175 49.12" stroke="#263238" stroke-linecap="round" stroke-linejoin="round"/>
<path d="M405.606 42.7112H401.22L407.262 71.178H411.648C411.939 71.1892 412.229 71.1312 412.493 71.0089C412.757 70.8866 412.988 70.7033 413.168 70.4741C413.348 70.245 413.471 69.9765 413.527 69.6906C413.583 69.4047 413.57 69.1097 413.491 68.8295L408.435 45.0487C408.281 44.4045 407.922 43.828 407.411 43.4063C406.901 42.9846 406.267 42.7406 405.606 42.7112Z" fill="#263238"/>
<path opacity="0.2" d="M405.606 42.7112H401.22L407.262 71.178H411.648C411.939 71.1892 412.229 71.1312 412.493 71.0089C412.757 70.8866 412.988 70.7033 413.168 70.4741C413.348 70.245 413.471 69.9765 413.527 69.6906C413.583 69.4047 413.57 69.1097 413.491 68.8295L408.435 45.0487C408.281 44.4045 407.922 43.828 407.411 43.4063C406.901 42.9846 406.267 42.7406 405.606 42.7112Z" fill="white"/>
<path d="M405.606 42.7112H401.22L407.262 71.178H411.648C411.939 71.1892 412.229 71.1312 412.493 71.0089C412.757 70.8866 412.988 70.7033 413.168 70.4741C413.348 70.245 413.471 69.9765 413.527 69.6906C413.583 69.4047 413.57 69.1097 413.491 68.8295L408.435 45.0487C408.281 44.4045 407.922 43.828 407.411 43.4063C406.901 42.9846 406.267 42.7406 405.606 42.7112Z" stroke="#263238" stroke-linecap="round" stroke-linejoin="round"/>
<path d="M413.501 68.8295H436.53V69.9269C436.53 70.2703 436.393 70.5997 436.151 70.8426C435.908 71.0854 435.579 71.2218 435.236 71.2218H414.784C414.441 71.2218 414.112 71.0854 413.869 70.8426C413.627 70.5997 413.49 70.2703 413.49 69.9269V68.8295H413.501Z" fill="#263238"/>
<path opacity="0.2" d="M413.501 68.8295H436.53V69.9269C436.53 70.2703 436.393 70.5997 436.151 70.8426C435.908 71.0854 435.579 71.2218 435.236 71.2218H414.784C414.441 71.2218 414.112 71.0854 413.869 70.8426C413.627 70.5997 413.49 70.2703 413.49 69.9269V68.8295H413.501Z" fill="white"/>
<path d="M413.501 68.8295H436.53V69.9269C436.53 70.2703 436.393 70.5997 436.151 70.8426C435.908 71.0854 435.579 71.2218 435.236 71.2218H414.784C414.441 71.2218 414.112 71.0854 413.869 70.8426C413.627 70.5997 413.49 70.2703 413.49 69.9269V68.8295H413.501Z" stroke="#263238" stroke-linecap="round" stroke-linejoin="round"/>
<path d="M409.959 71.178H374.298C373.634 71.1484 372.998 70.9032 372.485 70.4795C371.973 70.0558 371.612 69.4766 371.458 68.8295L366.414 45.0486C366.334 44.7691 366.321 44.4744 366.377 44.1889C366.433 43.9034 366.556 43.6354 366.736 43.407C366.916 43.1786 367.148 42.9964 367.412 42.8754C367.676 42.7544 367.966 42.6981 368.256 42.7111H403.917C404.579 42.7388 405.214 42.9822 405.724 43.4041C406.235 43.8261 406.594 44.4036 406.746 45.0486L411.802 68.8295C411.882 69.1096 411.894 69.4047 411.838 69.6906C411.782 69.9765 411.659 70.245 411.479 70.4741C411.3 70.7033 411.068 70.8865 410.804 71.0089C410.54 71.1312 410.25 71.1891 409.959 71.178Z" fill="#263238"/>
<path d="M409.959 71.178H374.298C373.634 71.1484 372.998 70.9032 372.485 70.4795C371.973 70.0558 371.612 69.4766 371.458 68.8295L366.414 45.0486C366.334 44.7691 366.321 44.4744 366.377 44.1889C366.433 43.9034 366.556 43.6354 366.736 43.407C366.916 43.1786 367.148 42.9964 367.412 42.8754C367.676 42.7544 367.966 42.6981 368.256 42.7111H403.917C404.579 42.7388 405.214 42.9822 405.724 43.4041C406.235 43.8261 406.594 44.4036 406.746 45.0486L411.802 68.8295C411.882 69.1096 411.894 69.4047 411.838 69.6906C411.782 69.9765 411.659 70.245 411.479 70.4741C411.3 70.7033 411.068 70.8865 410.804 71.0089C410.54 71.1312 410.25 71.1891 409.959 71.178Z" fill="#BFBFBF" stroke="#263238" stroke-linecap="round" stroke-linejoin="round"/>
<path d="M409.959 71.178H374.298C373.634 71.1484 372.998 70.9032 372.485 70.4795C371.973 70.0558 371.612 69.4766 371.458 68.8295L366.414 45.0486C366.334 44.7691 366.321 44.4744 366.377 44.1889C366.433 43.9034 366.556 43.6354 366.736 43.407C366.916 43.1786 367.148 42.9964 367.412 42.8754C367.676 42.7544 367.966 42.6981 368.256 42.7111H403.917C404.579 42.7388 405.214 42.9822 405.724 43.4041C406.235 43.8261 406.594 44.4036 406.746 45.0486L411.802 68.8295C411.882 69.1096 411.894 69.4047 411.838 69.6906C411.782 69.9765 411.659 70.245 411.479 70.4741C411.3 70.7033 411.068 70.8865 410.804 71.0089C410.54 71.1312 410.25 71.1891 409.959 71.178Z" stroke="#263238" stroke-linecap="round" stroke-linejoin="round"/>
<path d="M342.289 33.449C340.615 33.3801 339.032 32.6661 337.872 31.4563C336.712 30.2465 336.064 28.6347 336.064 26.9579C336.064 25.2811 336.712 23.6692 337.872 22.4594C339.032 21.2496 340.615 20.5356 342.289 20.4667H390.725C392.399 20.5356 393.982 21.2496 395.142 22.4594C396.303 23.6692 396.95 25.2811 396.95 26.9579C396.95 28.6347 396.303 30.2465 395.142 31.4563C393.982 32.6661 392.399 33.3801 390.725 33.449H342.289Z" fill="white"/>
<path d="M342.289 33.449C340.615 33.3801 339.032 32.6661 337.872 31.4563C336.712 30.2465 336.064 28.6347 336.064 26.9579C336.064 25.2811 336.712 23.6692 337.872 22.4594C339.032 21.2496 340.615 20.5356 342.289 20.4667H390.725C392.399 20.5356 393.982 21.2496 395.142 22.4594C396.303 23.6692 396.95 25.2811 396.95 26.9579C396.95 28.6347 396.303 30.2465 395.142 31.4563C393.982 32.6661 392.399 33.3801 390.725 33.449H342.289Z" stroke="#263238" stroke-miterlimit="10"/>
<path d="M371.261 22.6835H342.289C341.194 22.739 340.162 23.2136 339.406 24.0091C338.65 24.8046 338.229 25.8603 338.229 26.9579C338.229 28.0555 338.65 29.1111 339.406 29.9066C340.162 30.7022 341.194 31.1767 342.289 31.2323H369.287L371.261 22.6835Z" fill="#92E3A9"/>
<path d="M370.471 129.121V71.167H448.757C448.758 71.8933 448.615 72.6126 448.337 73.2832C448.058 73.9539 447.649 74.5625 447.134 75.0738C446.622 75.5876 446.014 75.9947 445.343 76.2716C444.673 76.5485 443.955 76.6897 443.23 76.687H378.575V137.736" stroke="#263238" stroke-linecap="round" stroke-linejoin="round"/>
<path d="M387.447 330.617H351.829C351.032 330.614 350.266 330.304 349.691 329.749C349.117 329.195 348.779 328.44 348.748 327.643L346.303 261.886C346.286 261.454 346.361 261.024 346.522 260.623C346.683 260.222 346.926 259.859 347.237 259.559C347.547 259.258 347.917 259.027 348.323 258.88C348.729 258.732 349.162 258.672 349.592 258.703L391.263 261.644C392.065 261.695 392.815 262.058 393.354 262.654C393.892 263.251 394.177 264.034 394.147 264.838L390.528 327.665C390.491 328.458 390.151 329.208 389.577 329.757C389.004 330.307 388.241 330.615 387.447 330.617Z" fill="#92E3A9" stroke="#263238" stroke-linecap="round" stroke-linejoin="round"/>
<path d="M362.181 291.373C362.437 290.483 362.613 289.573 362.708 288.652C362.708 288.059 362.379 286.742 361.874 286.457C361.37 286.171 358.771 286.643 358.771 286.643C358.771 286.643 359.385 284.613 358.968 284.152C358.552 283.691 357.225 283.878 356.709 284.152C355.865 284.536 354.845 286.226 354.275 286.962C353.584 287.861 352.378 289.782 351.731 290.704C351.424 291.165 350.459 292.525 350.459 292.525L342.53 295.357L342.958 303.39L351.895 297.991C351.895 297.991 359.911 297.991 361.6 296.18C362.422 295.236 361.995 292.547 362.181 291.373Z" fill="white" stroke="#263238" stroke-linecap="round" stroke-linejoin="round"/>
<path d="M349.285 275.11C348.836 281.475 347.882 288.158 345.941 291.999H349.23C349.23 291.999 346.248 297.343 348.134 302.391C348.134 302.391 339.076 308.482 337.058 304.586C335.041 300.69 337.376 284.942 339.449 277.37C341.521 269.798 342.158 258.166 349.548 258.714" fill="#92E3A9"/>
<path d="M349.285 275.11C348.836 281.475 347.882 288.158 345.941 291.999H349.23C349.23 291.999 346.248 297.343 348.134 302.391C348.134 302.391 339.076 308.482 337.058 304.586C335.041 300.69 337.376 284.942 339.449 277.37C341.521 269.798 342.158 258.166 349.548 258.714" stroke="#263238" stroke-linecap="round" stroke-linejoin="round"/>
<path d="M344.581 292.525C343.076 293.113 341.789 294.152 340.896 295.499" stroke="#263238" stroke-linecap="round" stroke-linejoin="round"/>
<path d="M362.269 271.85L363.76 271.653C364.004 271.619 364.252 271.633 364.49 271.696C364.727 271.758 364.951 271.866 365.146 272.015C365.342 272.164 365.506 272.351 365.63 272.563C365.753 272.776 365.833 273.011 365.866 273.255L367.544 285.579C367.578 285.823 367.563 286.072 367.501 286.31C367.439 286.549 367.331 286.773 367.182 286.97C367.033 287.167 366.847 287.332 366.635 287.457C366.422 287.582 366.187 287.663 365.943 287.697L364.451 287.894L362.269 271.85Z" fill="white" stroke="#263238" stroke-linecap="round" stroke-linejoin="round"/>
<path d="M359.732 288.547L364.654 287.876C365.824 287.716 366.643 286.637 366.484 285.466L364.876 273.658C364.716 272.487 363.638 271.667 362.468 271.826L357.546 272.498C356.376 272.657 355.557 273.736 355.716 274.907L357.324 286.716C357.484 287.887 358.561 288.706 359.732 288.547Z" fill="#BFBFBF"/>
<path d="M359.732 288.547L364.654 287.876C365.824 287.716 366.643 286.637 366.484 285.466L364.876 273.658C364.716 272.487 363.638 271.667 362.468 271.826L357.546 272.498C356.376 272.657 355.557 273.736 355.716 274.907L357.324 286.716C357.484 287.887 358.561 288.706 359.732 288.547Z" stroke="#263238" stroke-linecap="round" stroke-linejoin="round"/>
<path d="M356.852 274.517C356.864 274.606 356.894 274.691 356.939 274.768C356.984 274.845 357.044 274.913 357.115 274.967C357.187 275.021 357.268 275.06 357.354 275.083C357.441 275.106 357.531 275.111 357.619 275.099C357.708 275.086 357.793 275.057 357.87 275.012C357.948 274.966 358.015 274.906 358.069 274.835C358.123 274.764 358.162 274.682 358.185 274.596C358.208 274.509 358.213 274.419 358.201 274.33C358.174 274.153 358.078 273.992 357.935 273.884C357.791 273.775 357.611 273.727 357.433 273.749C357.344 273.761 357.259 273.79 357.182 273.836C357.105 273.881 357.037 273.941 356.983 274.012C356.929 274.084 356.89 274.165 356.867 274.251C356.845 274.338 356.84 274.428 356.852 274.517Z" fill="white" stroke="#263238" stroke-linecap="round" stroke-linejoin="round"/>
<path d="M358.102 286.665C357.948 285.752 357.875 284.826 357.883 283.9C357.992 283.307 358.42 282.034 358.979 281.771C359.538 281.507 362.05 282.309 362.05 282.309C362.05 282.309 361.655 280.213 362.126 279.806C362.598 279.4 363.892 279.73 364.32 280.015C365.12 280.487 365.943 282.287 366.425 283.077C367.006 284.053 367.993 286.084 368.53 287.082C368.794 287.576 369.627 289.025 369.627 289.025L376.711 292.273L373.421 298.232L367.609 294.303C367.609 294.303 359.637 293.392 358.157 291.417C357.433 290.462 358.157 287.883 358.102 286.665Z" fill="white" stroke="#263238" stroke-linecap="round" stroke-linejoin="round"/>
<path d="M390.638 265.024C390.813 264.234 391 263.455 391.208 262.687C391.25 262.488 391.347 262.305 391.488 262.158C391.629 262.01 391.807 261.905 392.004 261.854C392.201 261.803 392.408 261.808 392.603 261.867C392.797 261.927 392.971 262.04 393.105 262.193L393.379 262.489C394.831 264.038 395.875 265.923 396.417 267.976C398.347 275.296 402.525 293.689 399.564 307.187C399.394 307.945 398.962 308.618 398.344 309.088C397.726 309.558 396.962 309.794 396.186 309.755C390.758 309.426 381.262 308.065 370.877 297.771C370.877 297.771 373.07 292.624 375.647 290.857L390.013 296.663C389.331 291.519 389.009 286.334 389.048 281.145" fill="#92E3A9"/>
<path d="M390.638 265.024C390.813 264.234 391 263.455 391.208 262.687C391.25 262.488 391.347 262.305 391.488 262.158C391.629 262.01 391.807 261.905 392.004 261.854C392.201 261.803 392.408 261.808 392.603 261.867C392.797 261.927 392.971 262.04 393.105 262.193L393.379 262.489C394.831 264.038 395.875 265.923 396.417 267.976C398.347 275.296 402.525 293.689 399.564 307.187C399.394 307.945 398.962 308.618 398.344 309.088C397.726 309.558 396.962 309.794 396.186 309.755C390.758 309.426 381.262 308.065 370.877 297.771C370.877 297.771 373.07 292.624 375.647 290.857L390.013 296.663C389.331 291.519 389.009 286.334 389.048 281.145" stroke="#263238" stroke-linecap="round" stroke-linejoin="round"/>
<path d="M391.252 297.595C391.846 297.916 392.37 298.352 392.793 298.878C393.217 299.403 393.532 300.008 393.719 300.657" stroke="#263238" stroke-linecap="round" stroke-linejoin="round"/>
<path d="M371.919 250.363L381.251 235.383C381.251 235.383 386.087 233.375 383.499 230.796C383.499 230.796 387.655 223.597 382.26 223.597C382.26 223.597 381.569 217.748 376.349 220.107C376.349 220.107 371.809 214.708 368.772 218.648C368.772 218.648 362.543 215.608 360.942 219.427C360.942 219.427 356.391 219.427 356.556 222.807C356.556 222.807 353.694 226.626 357.466 227.076C357.466 227.076 356.468 230.116 360.931 230.116C365.394 230.116 370.899 235.603 370.899 235.603L371.996 241.222L371.919 250.363Z" fill="#263238" stroke="#263238" stroke-linecap="round" stroke-linejoin="round"/>
<path d="M377.994 260.898C377.994 260.898 367.851 266.473 360.449 259.329C360.449 259.329 362.313 255.817 362.96 247.093L373.717 245.172C373.407 248.14 373.518 251.136 374.046 254.072C374.759 257.397 376.7 260.448 377.994 260.898Z" fill="white"/>
<path d="M374.485 245.436L374.178 246.533C373.997 247.189 373.692 247.804 373.279 248.344C371.634 250.539 367.017 256.026 362.51 255.532C358.332 255.115 357.17 248.662 356.863 245.425L374.485 245.436Z" fill="#263238" stroke="#263238" stroke-linecap="round" stroke-linejoin="round"/>
<path d="M377.994 260.898C377.994 260.898 367.851 266.473 360.449 259.329C360.449 259.329 362.313 255.817 362.96 247.093L373.717 245.172C373.407 248.14 373.518 251.136 374.046 254.072C374.759 257.397 376.7 260.448 377.994 260.898Z" stroke="#263238" stroke-linecap="round" stroke-linejoin="round"/>
<path d="M358.343 228.535L356.644 233.957C356.456 234.529 356.403 235.138 356.49 235.735L356.731 237.337L355.843 240.903C355.799 241.088 355.767 241.275 355.744 241.463C355.558 243.34 354.834 253.348 360.131 254.632C364.813 255.729 370.515 250.681 372.577 248.629C373.09 248.12 373.499 247.516 373.783 246.851L374.968 244.152C375.644 244.252 376.335 244.139 376.944 243.828C377.553 243.517 378.051 243.024 378.367 242.418C379.464 240.223 380.889 238.983 378.773 237.468C376.656 235.954 375.318 239.027 375.318 239.027C375.318 239.027 375.384 235.164 374.88 234.001C374.375 232.837 372.632 231.488 372.182 230.478C371.961 229.696 371.815 228.895 371.744 228.086C371.744 228.086 364.506 228.283 359.363 226.319L358.343 228.535Z" fill="white" stroke="#263238" stroke-linecap="round" stroke-linejoin="round"/>
<path d="M358.343 228.535L356.644 233.957C356.456 234.529 356.403 235.138 356.49 235.735L356.731 237.337L355.843 240.903C355.799 241.088 355.767 241.275 355.744 241.463C355.558 243.34 354.834 253.348 360.131 254.632C364.813 255.729 370.515 250.681 372.577 248.629C373.09 248.12 373.499 247.516 373.783 246.851L374.968 244.152C375.644 244.252 376.335 244.139 376.944 243.828C377.553 243.517 378.051 243.024 378.367 242.418C379.464 240.223 380.889 238.983 378.773 237.468C376.656 235.954 375.318 239.027 375.318 239.027C375.318 239.027 375.384 235.164 374.88 234.001C374.375 232.837 372.632 231.488 372.182 230.478C371.961 229.696 371.815 228.895 371.744 228.086C371.744 228.086 364.506 228.283 359.363 226.319L358.343 228.535Z" fill="white" stroke="#263238" stroke-linecap="round" stroke-linejoin="round"/>
<path d="M361.71 239.246L359.056 243.515C358.981 243.658 358.939 243.815 358.931 243.976C358.924 244.137 358.952 244.297 359.014 244.446C359.076 244.595 359.17 244.728 359.289 244.837C359.408 244.945 359.549 245.026 359.703 245.073L362.039 245.622" stroke="#263238" stroke-linecap="round" stroke-linejoin="round"/>
<path d="M365.57 248.069C363.947 249.364 361.885 249.551 360.887 248.64" stroke="#263238" stroke-linecap="round" stroke-linejoin="round"/>
<path d="M365.285 240.695C365.186 241.331 364.857 241.792 364.55 241.792C364.243 241.792 364.089 241.189 364.199 240.563C364.309 239.938 364.627 239.466 364.934 239.466C365.241 239.466 365.416 240.091 365.285 240.695Z" fill="#263238"/>
<path d="M359.374 239.74C359.264 240.377 358.935 240.837 358.639 240.837C358.343 240.837 358.179 240.234 358.277 239.608C358.376 238.983 358.716 238.511 359.012 238.511C359.308 238.511 359.473 239.115 359.374 239.74Z" fill="#263238"/>
<path d="M356.896 235.91C356.977 235.641 357.117 235.394 357.306 235.187C357.494 234.98 357.727 234.818 357.987 234.712C358.247 234.607 358.527 234.561 358.807 234.579C359.087 234.596 359.359 234.676 359.604 234.813" stroke="#263238" stroke-linecap="round" stroke-linejoin="round"/>
<path d="M364.012 235.208C364.693 235.217 365.356 235.431 365.913 235.823C366.471 236.214 366.898 236.765 367.138 237.403" stroke="#263238" stroke-linecap="round" stroke-linejoin="round"/>
<path d="M373.904 227.998C373.904 227.998 367.971 232.322 367.269 229.194C367.269 229.194 362.335 230.379 362.006 228.722C362.006 228.722 357.071 230.697 356.523 229.161C355.975 227.625 360.46 223.542 360.46 223.542L370.888 224.87L373.904 227.998Z" fill="#263238" stroke="#263238" stroke-linecap="round" stroke-linejoin="round"/>
<path d="M361.786 222.675C361.121 223.995 360.288 225.224 359.308 226.33" stroke="#7F7F7F" stroke-linecap="round" stroke-linejoin="round"/>
<path d="M364.912 221.26C364.044 221.138 363.164 221.358 362.455 221.874" stroke="#7F7F7F" stroke-linecap="round" stroke-linejoin="round"/>
<path d="M376.985 224.892C374.101 224.618 373.695 227.087 369.232 226.944C365.021 226.769 366.973 223.509 366.304 222.006" stroke="#7F7F7F" stroke-linecap="round" stroke-linejoin="round"/>
<path d="M379.058 234.56C379.058 234.56 384.025 227.35 379.058 225.43" stroke="#7F7F7F" stroke-linecap="round" stroke-linejoin="round"/>
<path d="M343.177 461.746C342.152 462.077 341.211 462.628 340.421 463.362C339.631 464.096 339.011 464.994 338.605 465.993C338.525 466.168 338.493 466.36 338.511 466.551C338.529 466.743 338.597 466.926 338.708 467.082C338.819 467.239 338.969 467.364 339.144 467.444C339.318 467.524 339.51 467.558 339.701 467.54H355.832C356.142 467.544 356.443 467.434 356.679 467.232C356.915 467.031 357.07 466.75 357.115 466.443C357.379 464.418 357.107 462.359 356.325 460.473L357.214 450.53H347.794L347.07 460.045L343.177 461.746Z" fill="white" stroke="#263238" stroke-linecap="round" stroke-linejoin="round"/>
<path d="M353.452 461.647C355.141 464.007 354.725 460.473 356.282 460.473C357.063 462.359 357.335 464.418 357.071 466.443C357.026 466.75 356.871 467.031 356.635 467.232C356.399 467.434 356.098 467.544 355.788 467.54H339.657C339.466 467.558 339.274 467.524 339.1 467.444C338.926 467.364 338.776 467.239 338.665 467.082C338.554 466.926 338.486 466.743 338.467 466.551C338.449 466.36 338.481 466.168 338.561 465.993C338.967 464.994 339.587 464.096 340.377 463.362C341.167 462.628 342.108 462.077 343.134 461.746L346.983 460.045C346.983 460.045 351.775 459.288 353.452 461.647Z" fill="#BFBFBF" stroke="#263238" stroke-linecap="round" stroke-linejoin="round"/>
<path d="M357.115 466.103C357.115 466.223 357.115 466.344 357.115 466.443C357.07 466.75 356.915 467.031 356.679 467.232C356.443 467.434 356.142 467.544 355.832 467.54H339.657C339.482 467.548 339.308 467.513 339.149 467.44C338.99 467.366 338.851 467.255 338.743 467.116C338.636 466.978 338.563 466.815 338.531 466.643C338.5 466.47 338.51 466.293 338.561 466.125C339.657 466.125 340.425 466.125 340.425 466.125L357.115 466.103Z" fill="white" stroke="#263238" stroke-linecap="round" stroke-linejoin="round"/>
<path d="M349.812 329.223L346.522 456.522H358.146C358.146 456.522 361.743 424.697 362.159 413.987C362.346 409.202 363.322 400.818 363.651 395.989C364.232 387.331 365.581 377.684 368.903 360.872C369.441 358.162 372.698 353.476 373.388 350.787C374.737 345.552 375.307 329.19 375.307 329.19L349.812 329.223Z" fill="#263238" stroke="#263238" stroke-linecap="round" stroke-linejoin="round"/>
<path d="M357.872 404.758C357.872 404.758 355.218 408.269 351.533 407.797" stroke="#7F7F7F" stroke-linecap="round" stroke-linejoin="round"/>
<path d="M348.43 401.41C348.43 401.41 352.63 403.912 358.881 401.41" stroke="#7F7F7F" stroke-linecap="round" stroke-linejoin="round"/>
<path d="M399.849 461.746C401.351 462.404 403.665 463.381 404.542 466.333C404.579 466.476 404.583 466.625 404.553 466.769C404.524 466.913 404.462 467.049 404.372 467.165C404.282 467.282 404.166 467.376 404.034 467.441C403.902 467.506 403.757 467.54 403.61 467.54H387.479C387.096 467.54 386.726 467.4 386.439 467.145C386.152 466.89 385.968 466.539 385.922 466.158C385.729 464.223 386.015 462.27 386.756 460.473L385.857 450.53H395.287L396 460.045L399.849 461.746Z" fill="white" stroke="#263238" stroke-linecap="round" stroke-linejoin="round"/>
<path d="M404.542 466.333C404.579 466.476 404.583 466.625 404.553 466.769C404.524 466.913 404.462 467.049 404.372 467.165C404.282 467.282 404.166 467.376 404.034 467.441C403.902 467.506 403.757 467.54 403.61 467.54H387.479C387.096 467.54 386.725 467.4 386.439 467.145C386.152 466.89 385.968 466.539 385.922 466.158C385.729 464.223 386.015 462.27 386.756 460.473C388.269 460.221 387.293 463.502 389.782 461.483C392.272 459.463 396 460.045 396 460.045L399.849 461.746C401.351 462.372 403.665 463.381 404.542 466.333Z" fill="#BFBFBF" stroke="#263238" stroke-linecap="round" stroke-linejoin="round"/>
<path d="M404.455 466.103C404.455 466.19 404.52 466.256 404.542 466.333C404.579 466.476 404.583 466.625 404.553 466.769C404.524 466.913 404.461 467.049 404.372 467.165C404.282 467.282 404.166 467.376 404.034 467.441C403.902 467.506 403.757 467.54 403.61 467.54H387.479C387.096 467.54 386.725 467.4 386.438 467.145C386.151 466.89 385.968 466.539 385.922 466.158V466.103H404.455Z" fill="white" stroke="#263238" stroke-linecap="round" stroke-linejoin="round"/>
<path d="M389.41 329.245C389.41 329.245 391.054 341.898 391.296 346.145C391.427 348.658 391.208 353.706 391.296 356.219C391.603 365.898 392.809 385.246 393.763 394.87C394.256 399.94 396.132 409.981 396.472 415.062C397.173 425.411 396.472 456.566 396.472 456.566H384.793C384.793 456.566 380.056 421.449 378.827 409.663C378.389 405.482 373.542 363.934 370.241 354.88C369.616 353.146 368.191 350.238 367.598 348.493C366.417 344.833 365.558 341.077 365.032 337.267C364.857 335.27 364.736 329.267 364.736 329.267L389.41 329.245Z" fill="#263238" stroke="#263238" stroke-linecap="round" stroke-linejoin="round"/>
<path d="M391.559 399.995C391.559 399.995 389.366 403.978 381.69 403.978" stroke="#7F7F7F" stroke-linecap="round" stroke-linejoin="round"/>
<path d="M370.022 355.714C369.397 354.057 367.971 351.325 367.379 349.624C366.469 347.067 365.032 337.234 364.736 329.234" stroke="#7F7F7F" stroke-linecap="round" stroke-linejoin="round"/>
<path d="M380.505 412.637C382.733 423.69 387.071 434.208 393.28 443.617" stroke="#7F7F7F" stroke-linecap="round" stroke-linejoin="round"/>
<path d="M347.608 411.068C348.352 421.332 351.019 431.365 355.47 440.643" stroke="#7F7F7F" stroke-linecap="round" stroke-linejoin="round"/>
<path d="M379.036 246.763H408.841C411.177 246.763 413.074 249.474 413.074 252.821V262.906C413.074 266.199 411.177 268.953 408.841 268.953H385.067L375.472 275.34L379.036 268.953C376.7 268.953 374.814 266.242 374.814 262.906V252.821C374.814 249.474 376.7 246.763 379.036 246.763Z" fill="white" stroke="#263238" stroke-linecap="round" stroke-linejoin="round"/>
<path d="M406.341 252.953H381.141" stroke="#263238" stroke-linecap="round" stroke-linejoin="round"/>
<path d="M406.341 257.441H383.082" stroke="#263238" stroke-linecap="round" stroke-linejoin="round"/>
<path d="M406.341 261.919H381.141" stroke="#263238" stroke-linecap="round" stroke-linejoin="round"/>
<path d="M89.9531 288.202L30.8689 295.785C27.8406 296.174 24.7647 295.935 21.8325 295.084C18.9003 294.233 16.1744 292.787 13.8243 290.836C11.4742 288.886 9.5501 286.473 8.17171 283.746C6.79331 281.02 5.99004 278.039 5.81185 274.989L0.0437923 177.144C-0.152961 173.85 0.384433 170.553 1.6171 167.492C2.84976 164.431 4.74687 161.683 7.17118 159.446C9.59548 157.209 12.4864 155.539 15.6347 154.557C18.783 153.575 22.11 153.306 25.375 153.769L93.9556 163.448C99.4365 164.223 104.433 167.012 107.97 171.273C111.508 175.533 113.334 180.96 113.091 186.494L109.363 267.088C109.131 272.331 107.057 277.325 103.506 281.188C99.9553 285.051 95.1554 287.535 89.9531 288.202Z" fill="#92E3A9"/>
<path opacity="0.3" d="M109.363 267.131C109.121 272.367 107.043 277.351 103.493 281.204C99.9426 285.058 95.1483 287.536 89.9531 288.202L30.8689 295.785C27.8406 296.174 24.7647 295.935 21.8325 295.084C18.9003 294.233 16.1744 292.787 13.8243 290.836C11.4742 288.886 9.5501 286.473 8.17171 283.746C6.79331 281.02 5.99004 278.039 5.81185 274.989L0.0437923 177.144C-0.152961 173.85 0.384433 170.553 1.6171 167.492C2.84976 164.431 4.74687 161.683 7.17118 159.446C9.59548 157.209 12.4864 155.539 15.6347 154.557C18.783 153.575 22.11 153.306 25.375 153.769L93.9556 163.448C99.4365 164.223 104.433 167.012 107.97 171.273C111.508 175.533 113.334 180.96 113.091 186.494L109.363 267.131Z" fill="white"/>
<path d="M21.493 189.984H48.9845C50.2308 190.083 51.4025 190.618 52.2945 191.495C53.1866 192.371 53.7422 193.534 53.8643 194.779L60.3452 253.26C60.5913 255.52 61.6635 257.61 63.3557 259.127C65.0479 260.644 67.2407 261.482 69.5127 261.48" stroke="#263238" stroke-linecap="round" stroke-linejoin="round"/>
<path d="M96.2036 268.843V274.232H30.9566C28.6385 274.231 26.4057 273.356 24.7028 271.782C23 270.208 21.9518 268.05 21.7672 265.738L16.0978 195.558C16.041 194.826 16.1405 194.09 16.3898 193.399C16.6392 192.707 17.0325 192.077 17.5438 191.55C18.0551 191.023 18.6727 190.61 19.3555 190.34C20.0382 190.07 20.7706 189.949 21.504 189.984C22.7491 190.083 23.9193 190.619 24.8095 191.496C25.6998 192.372 26.2532 193.535 26.3728 194.779L32.8537 253.26C33.1049 255.522 34.1816 257.612 35.8774 259.129C37.5731 260.646 39.7687 261.483 42.0431 261.48H88.8564C90.806 261.483 92.6748 262.26 94.0523 263.64C95.4299 265.021 96.2036 266.892 96.2036 268.843V268.843Z" stroke="#263238" stroke-linecap="round" stroke-linejoin="round"/>
<path d="M82.0028 326.106H65.3347V272.333H56.7374V326.106H40.0693C38.6878 326.106 37.3629 326.655 36.3861 327.633C35.4093 328.611 34.8605 329.936 34.8605 331.319H87.2116C87.2131 330.634 87.0793 329.955 86.8181 329.322C86.5568 328.689 86.1732 328.114 85.6892 327.63C85.2052 327.145 84.6305 326.761 83.9978 326.5C83.3652 326.239 82.6872 326.105 82.0028 326.106V326.106Z" stroke="#263238" stroke-linecap="round" stroke-linejoin="round"/>
<path d="M65.3347 291.373V274.232H56.7374V292.46" stroke="#263238" stroke-linecap="round" stroke-linejoin="round"/>
<path d="M95.5896 311.127L96.423 322.979L105.371 322.715L104.889 309.908L95.5896 311.127Z" fill="white" stroke="#263238" stroke-linecap="round" stroke-linejoin="round"/>
<path d="M95.7651 327.39C95.7651 327.39 110.163 327.972 114.911 327.39C116.392 327.215 119.846 327.182 120.691 325.953C121.107 325.36 120.362 323.088 120.362 323.088L112.85 320.806L107.663 317.952C107.261 317.729 106.8 317.637 106.343 317.69C105.887 317.743 105.459 317.939 105.119 318.249L104.527 318.786C104.283 319.008 104.092 319.283 103.969 319.588C103.845 319.894 103.793 320.224 103.814 320.553V320.806L102.959 320.213C102.589 319.955 102.149 319.817 101.698 319.818H95.5019C94.4197 321.601 93.9071 323.672 94.0325 325.755C94.0524 326.199 94.2444 326.619 94.5678 326.924C94.8912 327.229 95.3206 327.396 95.7651 327.39Z" fill="#263238" stroke="#263238" stroke-linecap="round" stroke-linejoin="round"/>
<path d="M66.6615 297.442L60.718 307.253L67.9336 312.564L74.7434 302.227L66.6615 297.442Z" fill="white" stroke="#263238" stroke-linecap="round" stroke-linejoin="round"/>
<path d="M91.6089 253.864C91.6089 253.864 81.8054 258.429 63.7666 300.613C64.7558 302.237 66.0898 303.624 67.674 304.674C69.2583 305.725 71.054 306.414 72.934 306.693C72.934 306.693 116.052 253.513 110.547 244.141C105.382 235.361 57.3954 238.654 57.3954 238.654L58.0204 259.724C58.0204 259.724 86.8826 258.253 91.6089 253.864Z" fill="#92E3A9" stroke="#263238" stroke-linecap="round" stroke-linejoin="round"/>
<path d="M69.6333 140.293C69.6333 140.293 61.0141 133.807 52.5814 139.426C44.1486 145.045 38.8082 158.323 43.3152 163.569C44.6772 165.116 46.3708 166.335 48.2697 167.135C50.1686 167.935 52.2235 168.295 54.2811 168.189C54.2811 168.189 62.8235 174.773 66.3435 173.676C69.8636 172.579 75.829 163.426 76.0922 155.229C76.3554 147.031 79.0091 140.984 69.6333 140.293Z" fill="#263238" stroke="#263238" stroke-linecap="round" stroke-linejoin="round"/>
<path d="M61.0579 169.363C61.0579 169.363 58.6674 172.655 58.788 175.465L47.537 171.558C47.537 171.558 52.2414 164.721 53.3599 158.027C54.4784 151.333 61.0579 169.363 61.0579 169.363Z" fill="white"/>
<path d="M53.1077 161.067C53.2831 164.458 54.2043 165.895 57.0225 168.749C60.3123 172.041 62.4287 174.697 67.1988 168.749C70.357 164.798 71.333 162.285 71.5852 161.067H53.1077Z" fill="#263238" stroke="#263238" stroke-linecap="round" stroke-linejoin="round"/>
<path d="M61.0579 169.363C61.0579 169.363 58.6674 172.655 58.788 175.465L47.537 171.558C47.537 171.558 52.2414 164.721 53.3599 158.027C54.4784 151.333 61.0579 169.363 61.0579 169.363Z" stroke="#263238" stroke-linecap="round" stroke-linejoin="round"/>
<path d="M36.3518 239.949C36.3518 239.949 28.0178 258.155 42.0651 261.183C56.1124 264.212 85.786 257.606 85.786 257.606C85.786 257.606 88.1985 281.112 95.0412 315.242C98.7711 315.596 102.534 315.296 106.161 314.353C106.161 314.353 105.733 250.813 100.009 243.021C94.2846 235.23 51.4299 235.833 36.3518 239.949Z" fill="#92E3A9" stroke="#263238" stroke-linecap="round" stroke-linejoin="round"/>
<path d="M34.2465 239.971C34.2465 239.971 36.319 242.297 50.0702 237.644L67.3963 236.975C67.3963 236.975 73.8662 207.652 71.7827 196.733C70.6183 190.392 69.0655 184.128 67.1332 177.978C57.9594 174.502 48.1171 173.155 38.3477 174.038C37.8185 174.091 37.3319 174.352 36.9947 174.763C36.6575 175.175 36.4973 175.703 36.5493 176.233C37.4046 184.398 39.9378 211.065 34.2465 239.971Z" fill="#263238" stroke="#263238" stroke-linecap="round" stroke-linejoin="round"/>
<path d="M67.2209 177.978C67.2209 177.978 74.4145 179.58 74.4145 188.162C74.4145 196.744 73.5811 210.681 73.5811 210.681L82.8801 223.29C82.8801 223.29 78.8995 225.485 78.2964 229.205C78.2964 229.205 64.3917 217.759 63.6021 213.841C62.8126 209.923 67.2209 177.978 67.2209 177.978Z" fill="#263238" stroke="#263238" stroke-linecap="round" stroke-linejoin="round"/>
<path d="M68.7122 208.497L69.403 211.054L67.484 209.232L61.7379 199.553C61.6414 199.388 61.6137 199.192 61.661 199.007C61.7082 198.822 61.8265 198.663 61.9901 198.565C62.1546 198.469 62.3506 198.441 62.5355 198.488C62.7203 198.536 62.879 198.654 62.977 198.818L68.7122 208.497Z" fill="white" stroke="#263238" stroke-linecap="round" stroke-linejoin="round"/>
<path d="M53.7219 210.088C55.4033 208.922 56.9098 207.521 58.196 205.929C60.0053 203.558 60.6085 202.165 62.034 202.637C63.4596 203.109 68.6136 204.48 67.846 206.126C67.8707 206.831 67.641 207.52 67.199 208.069C66.8388 208.811 66.3137 209.46 65.6637 209.967C64.6439 210.714 64.3149 210.395 64.3149 210.395C64.3149 210.395 63.6022 210.988 63.1416 210.834C63.1416 210.834 62.045 212.755 58.3714 213.49L48.5021 217.704L47.4933 211.361L53.7219 210.088Z" fill="white" stroke="#263238" stroke-linecap="round" stroke-linejoin="round"/>
<path d="M60.6742 204.777C61.11 205.182 61.5796 205.549 62.0779 205.874C62.7468 206.291 65.0935 207.52 65.0167 208.299C64.94 209.078 63.3389 210.593 62.8236 210.494C62.3082 210.395 60.4659 209.704 60.5098 209.287C60.3418 209.611 60.2235 209.959 60.1588 210.319C60.1569 210.803 60.059 211.282 59.8708 211.729C59.6826 212.175 59.4077 212.58 59.0623 212.919" stroke="#263238" stroke-linecap="round" stroke-linejoin="round"/>
<path d="M67.1989 208.08C67.0804 207.661 66.8108 207.301 66.4422 207.07C65.2775 206.404 64.1763 205.633 63.1525 204.766" stroke="#263238" stroke-linecap="round" stroke-linejoin="round"/>
<path d="M67.8458 206.137C67.5872 205.881 67.2959 205.659 66.9795 205.479C65.779 204.67 64.5094 203.968 63.1853 203.383" stroke="#263238" stroke-linecap="round" stroke-linejoin="round"/>
<path d="M61.0361 208.804C61.0361 208.804 61.8147 208.53 62.1327 208.804C62.4507 209.078 62.4069 209.463 62.7578 209.836" stroke="#263238" stroke-linecap="round" stroke-linejoin="round"/>
<path d="M62.0998 208.782C61.6179 208.455 61.2075 208.033 60.8936 207.542" stroke="#263238" stroke-linecap="round" stroke-linejoin="round"/>
<path d="M39.3236 199.114C39.181 201.857 37.7226 213.029 37.7226 213.029C42.5587 211.458 47.5345 210.356 52.5813 209.737C52.5813 209.737 51.8137 212.678 54.0617 216.881C54.0617 216.881 33.3801 225.002 29.1253 224.135C24.8706 223.268 25.5614 214.083 27.1953 193.682C28.8292 173.281 38.4354 174.049 38.4354 174.049" fill="#263238"/>
<path d="M39.3236 199.114C39.181 201.857 37.7226 213.029 37.7226 213.029C42.5587 211.458 47.5345 210.356 52.5813 209.737C52.5813 209.737 51.8137 212.678 54.0617 216.881C54.0617 216.881 33.3801 225.002 29.1253 224.135C24.8706 223.268 25.5614 214.083 27.1953 193.682C28.8292 173.281 38.4354 174.049 38.4354 174.049" stroke="#263238" stroke-linecap="round" stroke-linejoin="round"/>
<path d="M53.1515 216.87C53.1515 216.87 44.6859 220.162 37.4703 222.357" stroke="#7F7F7F" stroke-linecap="round" stroke-linejoin="round"/>
<path d="M38.4135 199.114C38.271 201.858 36.8125 213.029 36.8125 213.029C41.6448 211.458 46.617 210.355 51.6603 209.737" stroke="#7F7F7F" stroke-linecap="round" stroke-linejoin="round"/>
<path d="M44.9821 173.753C44.9821 173.753 47.4055 172.271 47.4055 170.307C47.4055 168.343 58.2288 174.06 60.7071 173.731C63.1854 173.402 61.8037 175.542 61.5405 176.145C60.9155 178.142 59.1171 180.612 44.9821 173.753Z" fill="#263238" stroke="#263238" stroke-linecap="round" stroke-linejoin="round"/>
<path d="M61.5295 176.145C60.8935 177.989 59.2486 180.348 47.0656 174.784" stroke="#7F7F7F" stroke-linecap="round" stroke-linejoin="round"/>
<path d="M73.1972 151.958L72.1006 158.773C72.1006 158.773 72.287 161.495 67.5278 167.443C62.7686 173.391 60.6193 170.735 57.3515 167.443C54.0836 164.15 53.3818 162.724 53.4037 158.016C53.4037 158.016 51.726 157.775 50.6952 154.724C49.6644 151.673 53.4257 150.488 54.3797 152.43L60.0052 149.61L63.5143 145.385L65.521 142.707L69.6332 144.243L74.0196 146.877L73.1972 151.958Z" fill="white" stroke="#263238" stroke-linecap="round" stroke-linejoin="round"/>
<path d="M68.164 158.993C68.164 158.993 66.4094 160.792 67.8788 162.526C69.8637 164.886 65.6857 164.161 65.6857 164.864" stroke="#263238" stroke-linecap="round" stroke-linejoin="round"/>
<path d="M63.4814 165.643C63.4814 165.643 62.1326 165.983 59.7969 163.657" stroke="#263238" stroke-linecap="round" stroke-linejoin="round"/>
<path d="M64.249 158.62C63.9968 159.201 63.602 159.596 63.3717 159.497C63.1415 159.399 63.1634 158.839 63.3717 158.257C63.5801 157.676 64.0187 157.281 64.249 157.379C64.4793 157.478 64.5012 158.027 64.249 158.62Z" fill="#263238"/>
<path d="M69.3921 160.957C69.1728 161.484 68.8218 161.835 68.6135 161.747C68.4051 161.659 68.4161 161.155 68.6135 160.65C68.8109 160.145 69.1837 159.761 69.3921 159.86C69.6004 159.958 69.6224 160.43 69.3921 160.957Z" fill="#263238"/>
<path d="M67.0453 154.252C66.4948 153.849 65.8303 153.632 65.1482 153.632C64.4661 153.632 63.8016 153.849 63.2511 154.252" stroke="#263238" stroke-linecap="round" stroke-linejoin="round"/>
<path d="M70.5873 156.26C70.8602 156.353 71.1045 156.516 71.2966 156.731C71.4887 156.946 71.6221 157.207 71.6839 157.489" stroke="#263238" stroke-linecap="round" stroke-linejoin="round"/>
<path d="M54.654 149.61C54.654 149.61 52.1867 155.887 55.5971 158.609C55.5971 158.609 58.4263 150.521 64.282 149.61C70.1378 148.699 72.5394 146.877 72.5394 146.877C72.5394 146.877 71.8375 154.866 73.4386 156.831C75.0396 158.795 75.0067 147.635 75.0067 147.635L73.4386 143.805L64.951 140.457L57.6806 143.87L54.654 149.61Z" fill="#263238" stroke="#263238" stroke-linecap="round" stroke-linejoin="round"/>
<path d="M53.1516 159.069C53.1516 159.069 51.9892 166.049 54.6539 166.751C57.3187 167.454 50.8378 167.585 47.4823 166.038C44.1267 164.491 51.9234 158.203 51.9234 158.203L53.1516 159.069Z" fill="#263238" stroke="#263238" stroke-linecap="round" stroke-linejoin="round"/>
<path d="M68.416 208.102H69.6771L65.4881 234.593H64.2271C64.0626 234.597 63.8995 234.563 63.7498 234.494C63.6001 234.426 63.4678 234.325 63.3624 234.199C63.2571 234.072 63.1816 233.924 63.1415 233.764C63.1013 233.604 63.0975 233.438 63.1305 233.276L66.9027 209.419C66.9693 209.06 67.1551 208.735 67.4299 208.496C67.7046 208.257 68.0522 208.118 68.416 208.102Z" fill="white" stroke="#263238" stroke-linecap="round" stroke-linejoin="round"/>
<path d="M65.0935 234.593H80.4457C80.8126 234.584 81.1649 234.447 81.4427 234.207C81.7205 233.967 81.9068 233.638 81.97 233.276L85.7422 209.419C85.7752 209.257 85.7714 209.091 85.7313 208.931C85.6911 208.771 85.6156 208.623 85.5103 208.496C85.405 208.37 85.2726 208.269 85.1229 208.201C84.9732 208.132 84.8101 208.098 84.6457 208.102H69.3373C68.971 208.114 68.6198 208.251 68.3424 208.49C68.0649 208.73 67.8781 209.058 67.813 209.419L64.0408 233.276C64.0086 233.434 64.0114 233.597 64.0491 233.753C64.0868 233.91 64.1584 234.056 64.2589 234.182C64.3593 234.307 64.4861 234.409 64.6304 234.48C64.7746 234.552 64.9327 234.59 65.0935 234.593Z" fill="white" stroke="#263238" stroke-linecap="round" stroke-linejoin="round"/>
<path d="M81.2352 212.777H82.6279C82.8617 212.77 83.0858 212.682 83.2618 212.527C83.4378 212.373 83.5549 212.163 83.5929 211.932L83.8232 210.538C83.843 210.434 83.8392 210.328 83.8122 210.226C83.7853 210.124 83.7357 210.03 83.6672 209.949C83.5988 209.869 83.5132 209.806 83.4168 209.763C83.3204 209.721 83.2156 209.7 83.1104 209.704H81.7177C81.4848 209.712 81.2615 209.799 81.0842 209.95C80.907 210.102 80.7862 210.309 80.7417 210.538L80.5224 211.932C80.5007 212.036 80.503 212.144 80.5292 212.247C80.5553 212.351 80.6045 212.447 80.6732 212.528C80.7419 212.609 80.8282 212.674 80.9256 212.717C81.0229 212.76 81.1288 212.781 81.2352 212.777V212.777Z" stroke="#263238" stroke-linecap="round" stroke-linejoin="round"/>
<path d="M81.619 211.24C81.6057 211.309 81.608 211.379 81.6258 211.447C81.6436 211.514 81.6765 211.576 81.7218 211.629C81.7672 211.682 81.824 211.724 81.8878 211.751C81.9517 211.779 82.021 211.792 82.0905 211.789C82.242 211.78 82.3864 211.722 82.5014 211.623C82.6163 211.523 82.6955 211.389 82.7265 211.24C82.7396 211.171 82.7371 211.101 82.7193 211.033C82.7016 210.965 82.6689 210.902 82.6237 210.848C82.5786 210.795 82.5221 210.752 82.4583 210.723C82.3945 210.694 82.3251 210.679 82.255 210.681C82.102 210.69 81.9564 210.75 81.8413 210.852C81.7261 210.953 81.6479 211.09 81.619 211.24V211.24Z" stroke="#263238" stroke-linecap="round" stroke-linejoin="round"/>
<path d="M82.6608 225.77C82.6608 225.77 84.1192 221.512 85.2049 222.478C86.0602 223.257 84.6017 225.77 84.6017 225.77H82.6608Z" fill="white" stroke="#263238" stroke-linecap="round" stroke-linejoin="round"/>
<path d="M86.2136 227.416C86.4658 226.933 87.3102 225.825 86.9812 225.364C86.4439 224.508 83.9327 224.717 82.9677 225.002C82.3427 225.129 81.7543 225.395 81.246 225.781C81.1035 225.979 80.9061 226.56 81.0706 226.736C81.2351 226.911 82.3207 226.593 82.7374 226.582C83.4757 226.642 84.2087 226.756 84.9306 226.922C84.113 227.179 83.2772 227.374 82.4303 227.504C81.5531 227.504 78.3401 226.966 79.1406 228.832C79.1406 228.832 77.9563 229.194 78.6362 230.083C79.316 230.972 81.6189 230.895 81.6189 230.895C81.0936 231.042 80.5521 231.123 80.0069 231.136C79.0858 231.136 78.373 230.434 78.2852 230.928C78.1537 231.685 78.8445 232.322 79.8205 232.684C80.2988 232.888 80.8136 232.994 81.3338 232.994C81.854 232.994 82.3687 232.888 82.847 232.684C84.481 232.091 85.5118 228.81 86.2136 227.416Z" fill="white" stroke="#263238" stroke-linecap="round" stroke-linejoin="round"/>
<path d="M79.8754 229.117C80.7248 229.303 81.5857 229.431 82.4523 229.501C83.0511 229.514 83.6456 229.398 84.1959 229.161" stroke="#263238" stroke-linecap="round" stroke-linejoin="round"/>
<path d="M72.4187 206.434C72.7011 203.201 72.6165 199.946 72.1665 196.733C70.9602 190.28 69.5566 184.892 68.6025 181.577" stroke="#7F7F7F" stroke-linecap="round" stroke-linejoin="round"/>
<path d="M56.6386 309.491C56.6386 309.491 66.3873 320.059 70.1376 323.001C71.311 323.922 73.7674 326.293 75.2148 326.084C75.9276 325.964 76.9913 323.835 76.9913 323.835L73.3177 316.921L71.6509 311.258C71.5238 310.82 71.2632 310.432 70.9055 310.149C70.5478 309.866 70.1107 309.701 69.6551 309.678H68.8546C68.5303 309.663 68.2066 309.72 67.907 309.845C67.6073 309.97 67.3392 310.161 67.122 310.402L66.9466 310.6L66.7602 309.568C66.6791 309.127 66.4648 308.721 66.1461 308.405L61.7597 304.015C59.7523 304.504 57.9423 305.595 56.5728 307.143C56.2773 307.466 56.119 307.892 56.1313 308.331C56.1436 308.769 56.3255 309.185 56.6386 309.491Z" fill="#263238" stroke="#263238" stroke-linecap="round" stroke-linejoin="round"/>
<path d="M87.0361 255.093C87.0361 255.093 90.1285 250.835 91.8282 249.99" stroke="#263238" stroke-linecap="round" stroke-linejoin="round"/>
<path d="M80.7198 123.404C80.1627 123.396 79.6295 123.176 79.2284 122.789C74.8863 118.452 69.0022 116.016 62.8673 116.016C56.7325 116.016 50.8483 118.452 46.5062 122.789C46.1088 123.174 45.5759 123.387 45.0228 123.382C44.4697 123.377 43.9408 123.154 43.5505 122.762C43.1601 122.37 42.9395 121.84 42.9366 121.286C42.9336 120.733 43.1483 120.201 43.5345 119.804C48.6714 114.691 55.6221 111.821 62.8673 111.821C70.1126 111.821 77.0632 114.691 82.2002 119.804C82.495 120.098 82.6961 120.473 82.7782 120.881C82.8602 121.29 82.8194 121.713 82.661 122.099C82.5026 122.484 82.2336 122.813 81.8881 123.046C81.5426 123.278 81.136 123.403 80.7198 123.404Z" fill="#92E3A9" stroke="#263238" stroke-linecap="round" stroke-linejoin="round"/>
<path d="M75.1161 129.011C74.8386 129.011 74.564 128.955 74.3081 128.848C74.0521 128.74 73.8199 128.583 73.6248 128.386C70.7708 125.532 66.9015 123.93 62.8672 123.93C58.833 123.93 54.9637 125.532 52.1097 128.386C51.9306 128.628 51.7019 128.828 51.439 128.974C51.176 129.12 50.8849 129.207 50.5852 129.231C50.2855 129.255 49.9842 129.214 49.7015 129.112C49.4189 129.009 49.1614 128.848 48.9465 128.637C48.7315 128.427 48.5641 128.173 48.4555 127.892C48.3468 127.612 48.2994 127.311 48.3165 127.011C48.3336 126.711 48.4148 126.417 48.5546 126.151C48.6944 125.885 48.8896 125.651 49.127 125.467C50.9314 123.661 53.0735 122.229 55.4311 121.251C57.7886 120.274 60.3154 119.771 62.8672 119.771C65.4191 119.771 67.9459 120.274 70.3034 121.251C72.661 122.229 74.8031 123.661 76.6075 125.467C76.8977 125.764 77.0944 126.139 77.1731 126.547C77.2518 126.954 77.209 127.376 77.0501 127.76C76.8912 128.143 76.6232 128.472 76.2793 128.704C75.9355 128.936 75.531 129.062 75.1161 129.066V129.011Z" fill="#92E3A9" stroke="#263238" stroke-linecap="round" stroke-linejoin="round"/>
<path d="M70.2146 133.917C69.9374 133.921 69.6623 133.868 69.406 133.762C69.1496 133.657 68.9174 133.5 68.7232 133.302C67.1676 131.753 65.0621 130.883 62.8674 130.883C60.6727 130.883 58.5672 131.753 57.0116 133.302C56.61 133.657 56.0883 133.845 55.5529 133.828C55.0175 133.812 54.5086 133.591 54.1299 133.212C53.7511 132.833 53.5309 132.324 53.5142 131.788C53.4975 131.252 53.6855 130.73 54.0399 130.328C56.3833 127.99 59.5578 126.676 62.8674 126.676C66.177 126.676 69.3515 127.99 71.6949 130.328C71.8909 130.523 72.0464 130.755 72.1525 131.01C72.2586 131.265 72.3133 131.539 72.3133 131.815C72.3133 132.092 72.2586 132.365 72.1525 132.621C72.0464 132.876 71.8909 133.108 71.6949 133.302C71.5021 133.499 71.2716 133.655 71.0172 133.76C70.7629 133.866 70.4899 133.919 70.2146 133.917Z" fill="#92E3A9" stroke="#263238" stroke-linecap="round" stroke-linejoin="round"/>
</g>
<defs>
<clipPath id="clip0_150:215">
<rect width="495" height="477" fill="white"/>
</clipPath>
</defs>
</svg>
