<svg width="420" height="449" viewBox="0 0 420 449" fill="none" xmlns="http://www.w3.org/2000/svg">
<g clip-path="url(#clip0_150:776)">
<rect width="420" height="448.52" fill="white"/>
<path d="M210 448.53C325.98 448.53 420 392.761 420 323.966C420 255.171 325.98 199.401 210 199.401C94.0202 199.401 0 255.171 0 323.966C0 392.761 94.0202 448.53 210 448.53Z" fill="#F0F0F0"/>
<path d="M288.228 344.718C325.99 344.718 356.602 327.044 356.602 305.242C356.602 283.44 325.99 265.765 288.228 265.765C250.466 265.765 219.854 283.44 219.854 305.242C219.854 327.044 250.466 344.718 288.228 344.718Z" fill="#E0E0E0"/>
<path d="M116.352 383.142C151.062 383.142 179.2 366.895 179.2 346.854C179.2 326.812 151.062 310.565 116.352 310.565C81.6426 310.565 53.5049 326.812 53.5049 346.854C53.5049 366.895 81.6426 383.142 116.352 383.142Z" fill="#E0E0E0"/>
<path d="M126.912 375.973L234.704 438.202C235.029 438.369 235.388 438.456 235.753 438.456C236.117 438.456 236.477 438.369 236.801 438.202L293.571 405.431C294.151 405.092 294.151 404.551 293.571 404.223L185.847 341.984C185.522 341.817 185.163 341.73 184.798 341.73C184.434 341.73 184.074 341.817 183.75 341.984L126.912 374.765C126.352 375.094 126.352 375.683 126.912 375.973Z" fill="#E0E0E0"/>
<path d="M379.326 281.156L370.128 275.842C370.128 275.842 367.867 256.133 369.375 240.868C371.481 219.41 385.335 193.605 401.856 199.662C418.377 205.72 394.282 227.574 388.919 245.766C383.557 263.959 379.326 281.156 379.326 281.156Z" fill="#92E3A9"/>
<path opacity="0.15" d="M379.326 281.156L370.128 275.842C370.128 275.842 367.867 256.133 369.375 240.868C371.481 219.41 385.335 193.605 401.856 199.662C418.377 205.72 394.282 227.574 388.919 245.766C383.557 263.959 379.326 281.156 379.326 281.156Z" fill="black"/>
<path d="M374.486 278.915C374.632 278.91 374.772 278.847 374.873 278.74C374.974 278.634 375.029 278.492 375.027 278.345C373.413 230.675 397.141 206.705 397.373 206.464C397.425 206.413 397.466 206.352 397.494 206.285C397.522 206.217 397.536 206.145 397.536 206.073C397.536 206 397.522 205.928 397.494 205.861C397.466 205.793 397.425 205.733 397.373 205.681C397.268 205.576 397.126 205.517 396.977 205.517C396.829 205.517 396.686 205.576 396.581 205.681C396.339 205.923 372.273 230.241 373.906 278.393C373.91 278.465 373.928 278.536 373.959 278.602C373.99 278.667 374.034 278.726 374.087 278.774C374.141 278.823 374.204 278.86 374.273 278.884C374.341 278.908 374.413 278.919 374.486 278.915Z" fill="white"/>
<path d="M385.113 284.47L378.562 280.683C378.562 280.683 377.451 267.157 384.089 250.732C389.885 236.424 404.184 224.56 411.382 227.052C418.58 229.545 418.416 234.656 414.899 240.008C411.382 245.361 390.021 258.143 385.113 284.47Z" fill="#C7ECC6"/>
<path d="M381.664 283.03C381.737 283.03 381.809 283.016 381.877 282.988C381.944 282.959 382.005 282.918 382.057 282.866C382.108 282.814 382.148 282.752 382.175 282.684C382.203 282.616 382.216 282.543 382.215 282.47C382.089 252.336 410.387 231.97 410.667 231.767C410.728 231.725 410.779 231.671 410.819 231.608C410.858 231.546 410.885 231.477 410.897 231.404C410.91 231.331 410.908 231.257 410.892 231.185C410.875 231.113 410.845 231.045 410.802 230.984C410.761 230.924 410.708 230.873 410.646 230.833C410.584 230.794 410.515 230.768 410.443 230.756C410.371 230.744 410.297 230.748 410.226 230.765C410.155 230.783 410.088 230.815 410.03 230.859C409.74 231.062 380.968 251.766 381.104 282.48C381.106 282.627 381.166 282.767 381.271 282.87C381.376 282.973 381.517 283.03 381.664 283.03Z" fill="white"/>
<path d="M45.399 272.635L53.1282 268.152C53.1282 268.152 57.7463 248.964 55.901 231.69C53.3504 207.411 37.3704 198.281 31.2644 200.368C25.1584 202.454 23.458 209.507 33.5155 223.999C39.4476 232.521 46.7227 250.298 45.399 272.635Z" fill="#92E3A9"/>
<g opacity="0.15">
<path opacity="0.15" d="M45.399 272.635L53.1282 268.152C53.1282 268.152 57.7463 248.964 55.901 231.69C53.3504 207.411 37.3704 198.281 31.2644 200.368C25.1584 202.454 23.458 209.507 33.5155 223.999C39.4476 232.521 46.7227 250.298 45.399 272.635Z" fill="black"/>
</g>
<path d="M48.6549 263.205H48.5776C48.5081 263.192 48.4419 263.166 48.3828 263.127C48.3237 263.089 48.2728 263.039 48.2333 262.98C48.1937 262.922 48.1661 262.856 48.1523 262.787C48.1384 262.718 48.1385 262.646 48.1525 262.577C52.4035 240.182 44.5874 215.024 34.897 204.551C34.7961 204.45 34.7395 204.312 34.7395 204.169C34.7395 204.026 34.7961 203.889 34.897 203.788C34.9996 203.689 35.1364 203.634 35.2787 203.634C35.4209 203.634 35.5577 203.689 35.6603 203.788C45.5246 214.415 53.4952 240.028 49.1862 262.722C49.1721 262.854 49.1102 262.976 49.0122 263.065C48.9143 263.154 48.7872 263.204 48.6549 263.205Z" fill="white"/>
<path d="M25.0714 284.373C23.8444 285.001 20.5885 282.209 19.6804 281.533C18.1249 280.351 16.8977 278.791 16.1153 277.002C15.2439 274.97 15.0245 272.719 15.4873 270.558C15.7314 269.416 16.0542 268.292 16.4534 267.195C16.8206 266.104 17.1974 265.022 17.5645 263.939C18.0053 262.891 18.2288 261.763 18.2215 260.626C18.0476 258.355 16.125 256.674 14.3569 255.215C12.4247 253.602 10.4151 251.505 10.5697 248.781C10.8212 246.681 11.7625 244.723 13.2459 243.216C14.6371 241.631 16.2506 240.25 17.5162 238.578C18.5021 237.411 19.058 235.942 19.091 234.414C19.0137 233.475 18.7475 232.562 18.3084 231.728C17.4389 229.912 16.2506 228.221 15.6805 226.289C15.1105 224.357 15.3327 221.99 16.8882 220.705C18.1635 219.652 19.9799 219.584 21.6223 219.739C23.1594 220.002 24.6202 220.599 25.9023 221.487C30.0953 224.106 32.2981 229.352 36.7907 231.429C38.5809 232.087 40.4105 232.632 42.2687 233.062C44.085 233.641 45.9207 234.675 46.6839 236.424C48.1911 239.863 44.8676 243.853 45.8724 247.476C46.7516 250.684 49.7369 252.046 51.3407 254.974C51.9801 256.266 52.19 257.728 51.9397 259.147C51.6667 261.555 50.9562 263.893 49.8432 266.046C48.6106 268.261 47.2459 270.4 45.7565 272.451C45.7565 272.451 25.2646 284.277 25.0714 284.373Z" fill="#C7ECC6"/>
<path d="M36.9549 278.19C36.8122 278.175 36.6808 278.105 36.5888 277.995C36.4968 277.885 36.4513 277.744 36.4622 277.601C38.3944 256.297 29.5543 232.192 22.5884 225.014C22.4998 224.909 22.4541 224.775 22.4606 224.638C22.467 224.501 22.5252 224.372 22.6233 224.276C22.7214 224.181 22.8521 224.126 22.9891 224.123C23.1261 224.12 23.2591 224.169 23.3613 224.26C30.4721 231.622 39.5248 256.143 37.5346 277.697C37.5199 277.838 37.4515 277.968 37.3435 278.06C37.2355 278.152 37.0964 278.198 36.9549 278.19Z" fill="white"/>
<path d="M34.8392 251.921C34.7848 251.93 34.7293 251.93 34.675 251.921C29.6898 250.27 24.5384 249.171 19.3134 248.646C19.2426 248.64 19.1737 248.619 19.1108 248.586C19.048 248.553 18.9924 248.508 18.9473 248.453C18.9023 248.398 18.8687 248.335 18.8486 248.266C18.8285 248.198 18.8223 248.127 18.8303 248.056C18.8322 247.985 18.8493 247.915 18.8804 247.85C18.9115 247.786 18.956 247.729 19.0109 247.684C19.0657 247.638 19.1297 247.604 19.1985 247.585C19.2673 247.566 19.3394 247.562 19.41 247.573C24.7303 248.108 29.9757 249.226 35.0518 250.906C35.1696 250.953 35.2671 251.04 35.3274 251.152C35.3876 251.263 35.4068 251.392 35.3814 251.517C35.3561 251.641 35.288 251.752 35.1889 251.832C35.0898 251.911 34.966 251.952 34.8392 251.95V251.921Z" fill="white"/>
<path d="M228.405 0.260856L158.321 40.7324C158.006 40.938 157.744 41.2148 157.556 41.5404C157.368 41.866 157.26 42.2313 157.239 42.6067V71.7551C157.259 72.1281 157.367 72.491 157.556 72.8136C157.744 73.1362 158.006 73.4093 158.321 73.6101L162.186 75.7839C162.523 75.9531 162.895 76.0412 163.273 76.0412C163.65 76.0412 164.022 75.9531 164.359 75.7839L234.443 35.3124C234.758 35.1068 235.02 34.83 235.208 34.5044C235.396 34.1787 235.505 33.8135 235.525 33.4381V4.27999C235.504 3.90633 235.393 3.5432 235.204 3.22063C235.014 2.89806 234.75 2.62533 234.434 2.42501L230.569 0.251194C230.233 0.0836462 229.862 -0.00275244 229.486 -0.00107466C229.11 0.000603123 228.74 0.0903109 228.405 0.260856Z" fill="#69CC66"/>
<path d="M163.287 75.1463V46.0075C163.308 45.6321 163.416 45.2668 163.604 44.9412C163.792 44.6156 164.054 44.3388 164.369 44.1332L234.453 3.66166C235.052 3.31385 235.535 3.59403 235.535 4.27999V33.4284C235.514 33.8038 235.406 34.1691 235.218 34.4947C235.03 34.8203 234.768 35.0971 234.453 35.3027L164.369 75.7743C163.77 76.1221 163.287 75.8419 163.287 75.1463Z" fill="#C7ECC6"/>
<path opacity="0.2" d="M164.369 75.7743C164.031 75.9412 163.659 76.0281 163.282 76.0281C162.905 76.0281 162.533 75.9412 162.195 75.7743L158.331 73.6005C158.015 73.4002 157.753 73.1273 157.564 72.8045C157.376 72.4818 157.268 72.1186 157.249 71.7455V42.6067C157.265 42.2167 157.382 41.8375 157.587 41.5053L163.625 44.9448C163.425 45.2638 163.315 45.631 163.307 46.0075V75.1463C163.287 75.7839 163.732 76.18 164.369 75.7743Z" fill="black"/>
<path opacity="0.4" d="M235.516 4.08677C235.438 3.54573 234.994 3.3525 234.453 3.66167L164.369 44.1332C164.05 44.3342 163.787 44.6136 163.606 44.9448L157.577 41.5053C157.755 41.1883 158.011 40.9222 158.321 40.7324L228.405 0.260858C228.742 0.0917127 229.114 0.00363541 229.492 0.00363541C229.869 0.00363541 230.241 0.0917127 230.579 0.260858L234.443 2.42501C234.732 2.60779 234.977 2.85106 235.162 3.13799C235.347 3.42491 235.468 3.74863 235.516 4.08677Z" fill="white"/>
<path d="M154.273 65.3303C153.597 64.9245 148.476 62.0648 148.351 61.9682C148.216 61.8969 148.1 61.7949 148.013 61.6704C147.925 61.5459 147.868 61.4025 147.846 61.2518C147.825 61.1011 147.839 60.9474 147.888 60.8032C147.937 60.6591 148.019 60.5286 148.128 60.4223L157.336 50.8769L163.287 54.268L154.089 63.8135C153.994 63.9218 153.923 64.049 153.88 64.1868C153.837 64.3245 153.824 64.4698 153.842 64.613C153.859 64.7562 153.906 64.8941 153.981 65.0177C154.055 65.1414 154.155 65.2479 154.273 65.3303Z" fill="#92E3A9"/>
<path opacity="0.4" d="M154.273 65.3303C153.597 64.9245 148.476 62.0648 148.351 61.9682C148.216 61.8969 148.1 61.7949 148.013 61.6704C147.925 61.5459 147.868 61.4025 147.846 61.2518C147.825 61.1011 147.839 60.9474 147.888 60.8032C147.937 60.6591 148.019 60.5286 148.128 60.4223L157.336 50.8769L163.287 54.268L154.089 63.8135C153.994 63.9218 153.923 64.049 153.88 64.1868C153.837 64.3245 153.824 64.4698 153.842 64.613C153.859 64.7562 153.906 64.8941 153.981 65.0177C154.055 65.1414 154.155 65.2479 154.273 65.3303Z" fill="#C7ECC6"/>
<path d="M163.287 54.268L154.09 63.8135C153.954 63.944 153.859 64.1114 153.817 64.2951C153.775 64.4788 153.787 64.6707 153.853 64.8474C153.919 65.024 154.035 65.1775 154.187 65.2891C154.339 65.4006 154.52 65.4653 154.708 65.4752H163.287V54.268Z" fill="#C7ECC6"/>
<path d="M175.219 45.3312C175.257 45.2998 175.305 45.2826 175.354 45.2826C175.404 45.2826 175.451 45.2998 175.489 45.3312C175.531 45.3786 175.563 45.4337 175.582 45.4935C175.602 45.5532 175.61 45.6163 175.605 45.679V47.2345C175.602 47.4103 175.566 47.5839 175.499 47.7466L175.287 48.2297L173.209 52.8091C173.576 52.6574 173.973 52.5913 174.369 52.6159C174.685 52.6468 174.983 52.7789 175.219 52.9927C175.489 53.2602 175.686 53.593 175.789 53.9589C175.935 54.4772 176.004 55.0145 175.992 55.553C175.995 56.2938 175.898 57.0316 175.702 57.7461C175.509 58.4199 175.236 59.0685 174.89 59.6784C174.551 60.2776 174.139 60.8326 173.663 61.3305C173.222 61.848 172.704 62.2944 172.127 62.6541C171.604 62.9892 171.014 63.2067 170.398 63.2918C169.976 63.3517 169.545 63.2738 169.171 63.0695C168.835 62.8727 168.573 62.5704 168.427 62.2097C168.252 61.8127 168.15 61.3871 168.127 60.9537C168.115 60.7857 168.152 60.6178 168.234 60.4706C168.292 60.3385 168.386 60.2249 168.504 60.1421L169.635 59.4948C169.666 59.4663 169.708 59.4506 169.751 59.4506C169.793 59.4506 169.835 59.4663 169.866 59.4948C169.948 59.5789 170.013 59.6771 170.06 59.7847C170.114 59.9203 170.192 60.0447 170.292 60.1518C170.392 60.2573 170.524 60.3254 170.668 60.345C170.862 60.3949 171.064 60.3949 171.258 60.345C171.562 60.2525 171.854 60.1227 172.127 59.9586C172.696 59.6308 173.177 59.17 173.528 58.6156C173.878 58.0676 174.063 57.4302 174.06 56.78C174.06 56.123 173.886 55.7559 173.528 55.6786C173.031 55.63 172.533 55.7639 172.127 56.0554L170.939 56.7413C170.901 56.7727 170.853 56.7899 170.804 56.7899C170.754 56.7899 170.706 56.7727 170.668 56.7413C170.628 56.6918 170.598 56.6346 170.579 56.5733C170.561 56.5119 170.555 56.4475 170.562 56.3839V54.838C170.561 54.6618 170.597 54.4872 170.668 54.326C170.727 54.1614 170.795 54.0002 170.871 53.8429L172.862 49.4663L168.939 51.7367C168.902 51.77 168.854 51.7884 168.804 51.7884C168.754 51.7884 168.706 51.77 168.668 51.7367C168.626 51.6903 168.593 51.6353 168.573 51.5753C168.553 51.5154 168.546 51.4518 168.553 51.3889V49.7465C168.554 49.5788 168.594 49.4136 168.668 49.2634C168.721 49.1277 168.816 49.0125 168.939 48.9349L175.219 45.3312Z" fill="#FAFAFA"/>
<path d="M178.745 43.8627C178.748 43.6962 178.784 43.5319 178.852 43.3796C178.907 43.2458 179.001 43.1315 179.122 43.0511L184.474 39.9595C184.512 39.9262 184.56 39.9078 184.61 39.9078C184.66 39.9078 184.708 39.9262 184.745 39.9595C184.786 40.0069 184.818 40.062 184.838 40.1217C184.858 40.1815 184.866 40.2445 184.861 40.3073V41.8821C184.859 42.0498 184.82 42.215 184.745 42.3652C184.692 42.5009 184.598 42.6161 184.474 42.6937L180.475 45.0027L180.32 47.9012C180.542 47.6274 180.798 47.3838 181.083 47.1766C181.282 47.0334 181.489 46.9012 181.702 46.7804C182.152 46.5014 182.655 46.3204 183.18 46.2491C183.595 46.2001 184.014 46.3031 184.359 46.5389C184.732 46.8299 185.008 47.2275 185.151 47.679C185.355 48.3286 185.45 49.0077 185.431 49.6885C185.438 50.5505 185.341 51.4103 185.141 52.2488C184.966 52.9824 184.696 53.6904 184.339 54.355C183.736 55.505 182.822 56.4625 181.702 57.1181C181.189 57.4454 180.613 57.6595 180.011 57.7461C179.603 57.794 179.192 57.6946 178.852 57.4659C178.526 57.2204 178.281 56.8843 178.146 56.4998C177.983 56.0237 177.895 55.5249 177.885 55.0216C177.878 54.8541 177.915 54.6876 177.992 54.5385C178.048 54.4021 178.146 54.2871 178.272 54.21L179.422 53.5434C179.459 53.5144 179.505 53.4987 179.552 53.4987C179.599 53.4987 179.645 53.5144 179.682 53.5434C179.727 53.5787 179.763 53.6226 179.79 53.6724C179.816 53.7222 179.832 53.777 179.837 53.8333C179.869 54.0749 179.962 54.3044 180.107 54.4999C180.217 54.629 180.367 54.7175 180.533 54.7511C180.715 54.7881 180.904 54.7679 181.074 54.6931C181.292 54.617 181.502 54.5199 181.702 54.4033C182.264 54.0663 182.719 53.5773 183.016 52.9927C183.349 52.3241 183.518 51.5854 183.508 50.8382C183.537 50.59 183.508 50.3384 183.422 50.1035C183.337 49.8687 183.197 49.6571 183.016 49.4856C182.814 49.3664 182.581 49.31 182.347 49.3238C182.113 49.3376 181.888 49.4208 181.702 49.5629C181.455 49.6963 181.228 49.862 181.025 50.0557C180.874 50.1954 180.738 50.3508 180.62 50.5194L180.339 50.9155C180.246 51.0263 180.135 51.1209 180.011 51.1957L178.697 51.9589C178.659 51.9904 178.611 52.0075 178.562 52.0075C178.512 52.0075 178.465 51.9904 178.426 51.9589C178.384 51.9101 178.352 51.8533 178.332 51.7919C178.312 51.7305 178.305 51.6658 178.31 51.6015L178.745 43.8627Z" fill="#FAFAFA"/>
<path d="M189.247 49.2151C189.284 49.1818 189.333 49.1634 189.383 49.1634C189.432 49.1634 189.481 49.1818 189.518 49.2151C189.558 49.2632 189.587 49.3187 189.606 49.3784C189.624 49.4381 189.63 49.5008 189.624 49.5629V51.7077C189.627 51.8749 189.591 52.0404 189.518 52.1908C189.462 52.3273 189.368 52.4447 189.247 52.529L187.924 53.2922C187.886 53.3236 187.838 53.3408 187.788 53.3408C187.739 53.3408 187.691 53.3236 187.653 53.2922C187.611 53.2434 187.579 53.1866 187.559 53.1252C187.539 53.0638 187.532 52.9991 187.537 52.9347V50.7899C187.54 50.6223 187.579 50.4574 187.653 50.3068C187.708 50.1727 187.803 50.0583 187.924 49.9784L189.247 49.2151Z" fill="#FAFAFA"/>
<path d="M193.672 46.6548C193.71 46.6234 193.758 46.6062 193.807 46.6062C193.857 46.6062 193.905 46.6234 193.943 46.6548C193.985 46.7037 194.017 46.7604 194.037 46.8218C194.057 46.8832 194.064 46.948 194.059 47.0123V49.1571C194.057 49.3248 194.017 49.49 193.943 49.6402C193.887 49.7743 193.793 49.8887 193.672 49.9687L192.349 50.7319C192.311 50.7652 192.263 50.7836 192.213 50.7836C192.163 50.7836 192.115 50.7652 192.078 50.7319C192.035 50.6856 192.003 50.6305 191.983 50.5705C191.963 50.5106 191.956 50.447 191.962 50.3841V48.2393C191.962 48.0714 192.002 47.906 192.078 47.7562C192.134 47.6198 192.228 47.5023 192.349 47.4181L193.672 46.6548Z" fill="#FAFAFA"/>
<path d="M198.097 44.1042C198.134 44.071 198.182 44.0526 198.232 44.0526C198.282 44.0526 198.33 44.071 198.368 44.1042C198.41 44.151 198.442 44.206 198.462 44.2659C198.482 44.3258 198.489 44.3892 198.484 44.4521V46.6162C198.483 46.7841 198.444 46.9495 198.368 47.0993C198.312 47.2357 198.218 47.3532 198.097 47.4374L196.773 48.2007C196.735 48.2321 196.688 48.2493 196.638 48.2493C196.589 48.2493 196.541 48.2321 196.503 48.2007C196.461 48.1518 196.429 48.0951 196.409 48.0337C196.389 47.9723 196.381 47.9075 196.387 47.8432V45.679C196.39 45.5115 196.429 45.3465 196.503 45.196C196.558 45.0619 196.652 44.9474 196.773 44.8675L198.097 44.1042Z" fill="#FAFAFA"/>
<path d="M207.584 26.6171C207.622 26.5839 207.67 26.5655 207.72 26.5655C207.77 26.5655 207.818 26.5839 207.855 26.6171C207.898 26.6635 207.93 26.7185 207.95 26.7785C207.97 26.8385 207.977 26.902 207.971 26.9649V28.5204C207.971 28.6966 207.935 28.8709 207.865 29.0325C207.797 29.216 207.729 29.3706 207.662 29.5155L205.585 34.0854C205.952 33.9362 206.348 33.8734 206.744 33.9018C207.077 33.9275 207.391 34.0674 207.633 34.2979C207.902 34.5665 208.098 34.8989 208.203 35.2641C208.346 35.783 208.411 36.3202 208.396 36.8582C208.398 37.5989 208.3 38.3365 208.106 39.0513C207.917 39.7266 207.644 40.3756 207.295 40.9836C206.955 41.5804 206.547 42.135 206.077 42.6357C205.622 43.1059 205.105 43.5122 204.541 43.8434C204.018 44.1798 203.428 44.3975 202.812 44.481C202.393 44.5362 201.967 44.4585 201.594 44.2588C201.262 44.0548 201 43.755 200.841 43.399C200.67 43.0005 200.569 42.5757 200.541 42.143C200.533 41.9722 200.569 41.8022 200.648 41.6502C200.709 41.5199 200.806 41.4095 200.928 41.3314L202.048 40.6841C202.083 40.6567 202.125 40.6417 202.169 40.6417C202.213 40.6417 202.256 40.6567 202.29 40.6841C202.366 40.7757 202.431 40.8763 202.483 40.9836C202.528 41.1187 202.604 41.2412 202.705 41.3411C202.81 41.442 202.94 41.5122 203.082 41.544C203.276 41.5893 203.478 41.5893 203.672 41.544C203.977 41.4548 204.27 41.3248 204.541 41.1575C205.115 40.8319 205.596 40.3666 205.942 39.8049C206.296 39.2618 206.484 38.6272 206.483 37.9789C206.483 37.3219 206.299 36.9548 205.942 36.8679C205.444 36.8247 204.947 36.9618 204.541 37.2543L203.362 37.9306C203.326 37.966 203.278 37.9858 203.227 37.9858C203.177 37.9858 203.128 37.966 203.092 37.9306C203.049 37.8842 203.016 37.8292 202.996 37.7692C202.976 37.7092 202.969 37.6457 202.976 37.5828V36.0466C202.981 35.8711 203.017 35.6978 203.082 35.5346C203.16 35.3607 203.227 35.1964 203.295 35.0612L205.285 30.6846L201.353 32.955C201.315 32.9864 201.267 33.0036 201.218 33.0036C201.168 33.0036 201.12 32.9864 201.082 32.955C201.041 32.9076 201.009 32.8525 200.989 32.7928C200.969 32.733 200.962 32.67 200.966 32.6072V31.0324C200.967 30.8645 201.006 30.699 201.082 30.5493C201.138 30.4128 201.232 30.2954 201.353 30.2112L207.584 26.6171Z" fill="#FAFAFA"/>
<path d="M210.377 35.1481C210.381 34.3658 210.481 33.587 210.676 32.8294C210.869 32.1338 211.082 31.4478 211.333 30.7619L214.038 23.3323L214.183 22.9555C214.248 22.8239 214.348 22.7133 214.473 22.6366L215.758 21.9024C215.794 21.867 215.843 21.8471 215.893 21.8471C215.944 21.8471 215.992 21.867 216.028 21.9024C216.071 21.9488 216.104 22.0038 216.124 22.0638C216.144 22.1237 216.151 22.1873 216.144 22.2502C216.151 22.3112 216.151 22.3727 216.144 22.4337C216.144 22.4917 216.144 22.5304 216.086 22.5787L214.328 27.4963C214.795 27.2111 215.327 27.0482 215.874 27.0229C216.312 27.0007 216.742 27.1419 217.082 27.419C217.456 27.7471 217.728 28.1766 217.864 28.6557C218.064 29.303 218.159 29.9782 218.144 30.6556C218.146 31.4535 218.048 32.2486 217.854 33.0226C217.672 33.7745 217.407 34.5037 217.062 35.1964C216.719 35.8588 216.293 36.4755 215.797 37.0321C215.348 37.5449 214.819 37.982 214.231 38.3267C213.761 38.6253 213.223 38.8013 212.666 38.8388C212.221 38.8594 211.784 38.7149 211.439 38.433C211.059 38.1037 210.784 37.6705 210.647 37.1867C210.445 36.5268 210.353 35.8379 210.377 35.1481ZM216.173 31.7956C216.203 31.5112 216.174 31.2236 216.088 30.951C216.001 30.6783 215.859 30.4265 215.671 30.2112C215.333 29.902 214.859 29.931 214.241 30.2885C213.613 30.6522 213.113 31.2026 212.811 31.8633C212.481 32.537 212.309 33.2772 212.309 34.0274C212.279 34.3149 212.308 34.6053 212.395 34.8811C212.481 35.1568 212.623 35.4121 212.811 35.6312C213.149 35.9597 213.623 35.9404 214.241 35.5829C214.873 35.2141 215.373 34.6566 215.671 33.9888C216.004 33.3052 216.179 32.5558 216.183 31.7956H216.173Z" fill="#FAFAFA"/>
<path d="M221.806 30.4141C221.843 30.3808 221.891 30.3624 221.941 30.3624C221.991 30.3624 222.039 30.3808 222.077 30.4141C222.118 30.4614 222.15 30.5166 222.17 30.5763C222.19 30.636 222.197 30.6991 222.193 30.7619V32.9164C222.191 33.081 222.151 33.2429 222.077 33.3898C222.024 33.5277 221.929 33.6459 221.806 33.7279L220.483 34.4912C220.444 34.5226 220.397 34.5397 220.347 34.5397C220.298 34.5397 220.25 34.5226 220.212 34.4912C220.171 34.4438 220.139 34.3886 220.119 34.3289C220.099 34.2692 220.091 34.2061 220.096 34.1433V31.9889C220.099 31.8213 220.138 31.6563 220.212 31.5058C220.267 31.3717 220.362 31.2573 220.483 31.1773L221.806 30.4141Z" fill="#FAFAFA"/>
<path d="M226.231 27.8731C226.268 27.8398 226.316 27.8214 226.366 27.8214C226.416 27.8214 226.464 27.8398 226.502 27.8731C226.544 27.9195 226.577 27.9745 226.597 28.0345C226.617 28.0945 226.624 28.158 226.617 28.2209V30.3657C226.616 30.5334 226.576 30.6986 226.502 30.8488C226.449 30.9846 226.354 31.0998 226.231 31.1773L224.907 31.9405C224.871 31.9759 224.823 31.9958 224.772 31.9958C224.722 31.9958 224.673 31.9759 224.637 31.9405C224.594 31.8941 224.561 31.8391 224.541 31.7791C224.521 31.7192 224.514 31.6556 224.521 31.5927V29.4382C224.523 29.2705 224.562 29.1054 224.637 28.9552C224.689 28.8194 224.784 28.7042 224.907 28.6267L226.231 27.8731Z" fill="#FAFAFA"/>
<path d="M230.656 25.3032C230.693 25.2699 230.741 25.2515 230.791 25.2515C230.841 25.2515 230.889 25.2699 230.926 25.3032C230.968 25.3505 230.999 25.4057 231.019 25.4654C231.039 25.5251 231.047 25.5882 231.042 25.651V27.7958C231.042 27.9637 231.002 28.1291 230.926 28.2789C230.871 28.4153 230.777 28.5328 230.656 28.617L229.332 29.3803C229.294 29.4117 229.247 29.4289 229.197 29.4289C229.148 29.4289 229.1 29.4117 229.062 29.3803C228.984 29.2783 228.946 29.151 228.956 29.0228V26.907C228.959 26.7406 228.996 26.5765 229.062 26.4239C229.12 26.2918 229.214 26.1782 229.332 26.0954L230.656 25.3032Z" fill="#FAFAFA"/>
<path d="M288.624 340.1C289.005 340.1 289.369 339.95 289.639 339.682C289.909 339.414 290.061 339.05 290.064 338.67V246.501C290.064 246.116 289.911 245.748 289.639 245.476C289.368 245.204 288.999 245.051 288.615 245.051C288.23 245.051 287.862 245.204 287.59 245.476C287.318 245.748 287.166 246.116 287.166 246.501V338.67C287.165 338.86 287.203 339.049 287.277 339.224C287.351 339.4 287.459 339.559 287.595 339.692C287.73 339.825 287.891 339.93 288.068 340C288.245 340.07 288.434 340.104 288.624 340.1Z" fill="#455A64"/>
<path d="M231.603 306.556C231.891 306.556 232.172 306.47 232.41 306.308C232.648 306.146 232.831 305.916 232.936 305.648L261.196 234.153C261.336 233.8 261.329 233.405 261.178 233.056C261.026 232.708 260.743 232.433 260.389 232.294C260.036 232.154 259.641 232.16 259.292 232.312C258.943 232.463 258.669 232.747 258.529 233.1L230.27 304.595C230.2 304.77 230.165 304.958 230.168 305.147C230.17 305.336 230.211 305.523 230.286 305.696C230.362 305.87 230.471 306.027 230.607 306.157C230.744 306.288 230.905 306.391 231.081 306.459C231.247 306.525 231.425 306.557 231.603 306.556Z" fill="#455A64"/>
<path d="M235.004 297.967C235.198 297.966 235.39 297.925 235.568 297.847C235.746 297.769 235.905 297.655 236.038 297.513L288.634 241.863L341.125 297.281C341.243 297.446 341.395 297.584 341.571 297.685C341.747 297.787 341.942 297.849 342.144 297.87C342.346 297.89 342.55 297.867 342.742 297.802C342.935 297.737 343.111 297.632 343.26 297.494C343.408 297.355 343.526 297.187 343.604 297C343.683 296.813 343.721 296.611 343.715 296.408C343.71 296.205 343.661 296.006 343.573 295.823C343.484 295.64 343.358 295.479 343.202 295.349L289.668 238.83C289.532 238.69 289.37 238.578 289.191 238.502C289.012 238.425 288.819 238.386 288.625 238.385C288.43 238.386 288.238 238.427 288.061 238.505C287.883 238.583 287.723 238.697 287.591 238.839L233.96 295.552C233.772 295.756 233.646 296.011 233.6 296.286C233.553 296.56 233.587 296.843 233.697 297.098C233.808 297.354 233.99 297.572 234.222 297.726C234.454 297.88 234.725 297.964 235.004 297.967Z" fill="#455A64"/>
<path d="M345.655 306.556C345.886 306.556 346.113 306.499 346.317 306.392C346.521 306.284 346.696 306.129 346.826 305.938C346.956 305.748 347.038 305.529 347.065 305.3C347.092 305.071 347.062 304.839 346.979 304.624L318.72 233.129C318.65 232.954 318.548 232.794 318.417 232.659C318.286 232.524 318.13 232.416 317.957 232.341C317.784 232.266 317.598 232.226 317.41 232.223C317.222 232.219 317.035 232.253 316.86 232.323C316.685 232.392 316.525 232.495 316.39 232.626C316.254 232.756 316.146 232.913 316.071 233.085C315.996 233.258 315.956 233.444 315.953 233.632C315.95 233.82 315.984 234.007 316.053 234.182L344.322 305.677C344.431 305.94 344.616 306.165 344.854 306.321C345.091 306.478 345.371 306.56 345.655 306.556Z" fill="#455A64"/>
<path d="M233.555 295.754L229.816 305.619C229.806 305.702 229.806 305.786 229.816 305.87C229.806 305.927 229.806 305.986 229.816 306.044C229.915 306.318 230.115 306.542 230.376 306.672C230.729 306.848 231.117 306.94 231.511 306.94C231.905 306.94 232.294 306.848 232.646 306.672C232.843 306.572 233 306.409 233.091 306.208V306.073L236.559 296.827L233.555 295.754Z" fill="#69CC66"/>
<path d="M343.704 295.754L347.443 305.619C347.453 305.702 347.453 305.787 347.443 305.87C347.453 305.928 347.453 305.986 347.443 306.044C347.341 306.316 347.141 306.539 346.883 306.672C346.528 306.848 346.138 306.94 345.743 306.94C345.347 306.94 344.957 306.848 344.603 306.672C344.412 306.567 344.26 306.405 344.168 306.208V306.073L340.709 296.827L343.704 295.754Z" fill="#69CC66"/>
<path d="M286.972 331.531V339.694C286.987 339.839 287.04 339.978 287.124 340.096C287.209 340.215 287.323 340.31 287.455 340.371C287.819 340.552 288.219 340.646 288.625 340.646C289.03 340.646 289.431 340.552 289.794 340.371C289.927 340.311 290.042 340.217 290.127 340.098C290.212 339.979 290.264 339.84 290.277 339.694V331.531C289.768 331.259 289.201 331.117 288.625 331.117C288.048 331.117 287.481 331.259 286.972 331.531Z" fill="#69CC66"/>
<path d="M224.492 233.15C224.492 230.58 226.743 227.845 231.497 224.763C240.289 219.063 265.862 204.784 278.161 197.972C278.165 197.946 278.177 197.921 278.197 197.902C278.216 197.882 278.241 197.87 278.267 197.866C287.726 192.127 290.605 167.616 297.146 146.844C299.378 139.763 302.112 135.753 305.358 133.869C306.121 133.425 308.962 131.86 309.59 131.483C316.014 127.618 324.449 132.256 334.951 138.004C344.612 143.299 352.187 150.081 353.713 168.07C354.631 179.026 353.713 199.953 351.53 215.817C348.312 242.309 344.361 242.357 338.622 246.791C328.739 254.424 306.498 265.148 297.078 268.839C280.074 275.534 266.162 265.216 255.814 260.143C246.316 255.333 237.146 249.897 228.366 243.874C225.777 241.99 224.434 240.086 224.502 238.077C224.55 237.236 224.492 233.98 224.492 233.15Z" fill="#7CC190"/>
<path opacity="0.3" d="M224.492 233.15C224.492 230.58 226.743 227.845 231.497 224.763C240.289 219.063 265.862 204.784 278.161 197.972C278.165 197.946 278.177 197.921 278.197 197.902C278.216 197.882 278.241 197.87 278.267 197.866C287.726 192.127 290.605 167.616 297.146 146.844C299.378 139.763 302.112 135.753 305.358 133.869C306.121 133.425 308.962 131.86 309.59 131.483C316.014 127.618 324.449 132.256 334.951 138.004C344.612 143.299 352.187 150.081 353.713 168.07C354.631 179.026 353.713 199.953 351.53 215.817C348.312 242.309 344.361 242.357 338.622 246.791C328.739 254.424 306.498 265.148 297.078 268.839C280.074 275.534 266.162 265.216 255.814 260.143C246.316 255.333 237.146 249.897 228.366 243.874C225.777 241.99 224.434 240.086 224.502 238.077C224.55 237.236 224.492 233.98 224.492 233.15Z" fill="black"/>
<path d="M255.892 255.157C246.391 250.353 237.222 244.921 228.444 238.897C222.55 234.617 223.091 230.202 231.535 224.763C243.274 217.149 284.953 194.242 284.953 194.242C284.953 194.242 345.424 229.931 342.825 236.52C340.226 243.11 308.952 259.263 297.155 263.901C280.151 270.586 266.249 260.278 255.892 255.157Z" fill="#B4E6B2"/>
<path d="M255.892 255.157C246.391 250.353 237.222 244.921 228.444 238.897C222.55 234.617 223.091 230.202 231.535 224.763C243.274 217.149 284.953 194.242 284.953 194.242C284.953 194.242 345.424 229.931 342.825 236.52C340.226 243.11 308.952 259.263 297.155 263.901C280.151 270.586 266.249 260.278 255.892 255.157Z" fill="black" fill-opacity="0.1"/>
<path d="M305.773 133.656C312.131 130.313 320.41 134.854 330.642 140.419C337.192 144.013 342.777 148.273 346.178 156.244L350.496 153.742C347.105 145.81 341.53 141.549 334.99 137.965C324.488 132.168 316.053 127.598 309.628 131.443C309.068 131.81 306.836 133.057 305.773 133.656Z" fill="#B2EBC3"/>
<path opacity="0.5" d="M305.773 133.656C312.131 130.313 320.41 134.854 330.642 140.419C337.192 144.013 342.777 148.273 346.178 156.244L350.496 153.742C347.105 145.81 341.53 141.549 334.99 137.965C324.488 132.168 316.053 127.598 309.628 131.443C309.068 131.81 306.836 133.057 305.773 133.656Z" fill="white"/>
<path d="M330.642 140.467C314.923 131.859 303.832 125.743 297.185 146.843C290.644 167.615 287.765 192.126 278.306 197.865C278.306 197.865 284.47 199.894 306.469 210.696C315.503 215.13 321.435 219.603 329.898 224.927C342.342 232.753 341.395 238.569 341.395 238.569C347.578 233.448 350.921 188.513 349.404 170.524C347.888 152.534 340.323 145.742 330.642 140.467Z" fill="#B4E6B2"/>
<g opacity="0.1">
<path opacity="0.1" d="M330.642 140.467C314.923 131.859 303.832 125.743 297.185 146.843C290.644 167.615 287.765 192.126 278.306 197.865C278.306 197.865 284.47 199.894 306.469 210.696C315.503 215.13 321.435 219.603 329.898 224.927C342.342 232.753 341.395 238.569 341.395 238.569C347.578 233.448 350.921 188.513 349.404 170.524C347.888 152.534 340.323 145.742 330.642 140.467Z" fill="black"/>
</g>
<path d="M121.115 82.4889C129.724 82.8947 135.279 84.4212 139.781 89.7156C144.283 95.0101 166.949 127.241 166.949 127.241C166.949 127.241 162.968 138.409 154.254 137.453L137.172 116.758L121.115 82.4889Z" fill="#B16668"/>
<path d="M121.83 82.3054C121.83 82.3054 130.999 82.4503 135.173 85.3777C139.346 88.3051 140.071 88.9234 146.235 97.4351C152.399 105.947 157.925 113.637 157.925 113.637C154.521 119.114 149.222 123.147 143.037 124.97L124.912 103.126L121.83 82.3054Z" fill="#37474F"/>
<path d="M77.5906 339.231H91.8798L91.5899 317.348L77.5906 319.541V339.231Z" fill="#B16668"/>
<path d="M125.946 324.565L139.491 325.028L138.96 301.735L123.985 300.856L125.946 324.565Z" fill="#B16668"/>
<path d="M106.884 362.225C107.299 362.611 107.174 365.259 106.72 365.973C106.266 366.688 101.503 369.133 96.44 369.49C91.6093 369.838 87.2713 369.191 84.4309 367.384C81.5904 365.577 80.2185 363.587 79.948 360.834C79.6775 358.08 79.948 355.414 78.6727 353.288C77.4554 351.356 75.5231 349.124 75.1076 348.061C74.1898 345.752 75.1076 342.448 75.1076 342.448L106.884 362.225Z" fill="#263238"/>
<path d="M93.6382 338.149C93.6748 339.194 93.8636 340.229 94.1986 341.221C94.941 343.355 95.9368 345.392 97.1647 347.288C97.7714 348.284 98.4461 349.236 99.1839 350.138C100.643 351.877 102.469 353.307 104.015 354.969C105.665 356.546 106.72 358.645 107 360.911C107.212 364.708 101.203 365.993 97.9859 366.563C94.5537 367.159 91.0316 366.981 87.6772 366.041C85.9137 365.583 84.32 364.626 83.0877 363.284C81.8554 361.942 81.0369 360.272 80.7306 358.476C80.5567 357.423 80.6244 356.351 80.4988 355.288C80.0769 352.859 79.0613 350.573 77.5424 348.631C76.6591 347.513 75.9009 346.301 75.2816 345.018C74.3155 342.67 75.0884 340.023 75.7164 337.685C76.2671 335.666 76.8854 333.376 77.5907 333.569C77.5907 334.613 77.5907 334.719 78.3443 335.434C79.3104 336.332 79.3104 337.685 80.3345 338.477C80.016 337.602 79.7799 336.7 79.6292 335.782C79.5681 335.409 79.6473 335.027 79.8514 334.709C80.1809 334.408 80.5789 334.193 81.0108 334.081C82.5078 333.577 84.0517 333.224 85.6193 333.028C87.757 332.782 89.916 332.782 92.0538 333.028C92.4955 333.109 92.8951 333.341 93.1842 333.685C93.4488 334.065 93.5904 334.517 93.5899 334.98C93.6576 335.579 93.6093 337.144 93.6382 338.149Z" fill="#455A64"/>
<path d="M97.6767 348.081C96.2661 347.027 91.1649 347.008 89.4259 347.192C87.6673 347.345 85.9759 347.94 84.5082 348.921C84.2923 349.077 84.0279 349.151 83.7623 349.13C83.4967 349.109 83.2474 348.994 83.059 348.805C82.9474 348.699 82.8604 348.569 82.8044 348.425C82.7484 348.282 82.7246 348.127 82.7347 347.974C82.7448 347.82 82.7887 347.67 82.8631 347.535C82.9375 347.4 83.0406 347.283 83.1653 347.192C84.7825 346.004 86.7006 345.294 88.7013 345.144C91.1921 344.954 93.697 345.097 96.1502 345.569C96.1502 345.569 98.0921 346.825 97.6767 348.081Z" fill="#F5F5F5"/>
<path d="M100.923 351.974C99.1453 350.921 93.735 351.076 91.9959 351.259C90.2529 351.425 88.5855 352.052 87.1652 353.075C86.9497 353.231 86.6863 353.305 86.4213 353.286C86.1562 353.267 85.9065 353.154 85.716 352.969C85.6043 352.863 85.5174 352.733 85.4614 352.589C85.4053 352.446 85.3815 352.292 85.3917 352.138C85.4018 351.984 85.4456 351.834 85.52 351.699C85.5945 351.564 85.6976 351.447 85.8223 351.356C86.8754 350.573 90.8462 349.317 93.4161 349.134C97.6768 348.834 98.7879 349.704 98.7879 349.704C99.2947 349.892 99.7511 350.195 100.122 350.589C100.492 350.983 100.766 351.457 100.923 351.974Z" fill="#F5F5F5"/>
<path d="M87.0104 341.066C89.4457 340.78 91.9126 340.93 94.2951 341.511C95.0487 341.936 95.5414 343.124 95.0583 343.443C94.0922 342.912 90.4692 342.699 88.3726 342.786C86.777 342.95 85.2197 343.378 83.7641 344.052C83.4067 344.216 82.9719 344.448 82.5951 344.651C82.4771 344.725 82.3445 344.773 82.2064 344.791C82.0682 344.809 81.9278 344.797 81.7947 344.755C81.6616 344.714 81.5391 344.644 81.4354 344.551C81.3318 344.458 81.2495 344.344 81.1942 344.216C81.0978 344.003 81.0818 343.762 81.1493 343.538C81.2168 343.314 81.3632 343.123 81.5613 342.999C83.2172 341.969 85.076 341.31 87.0104 341.066Z" fill="#F5F5F5"/>
<path d="M166.08 340.322C166.448 341.433 166.379 342.642 165.886 343.704C165.423 344.67 160.254 347.569 153.326 347.134C148.162 346.77 143.189 345.032 138.921 342.1C136.264 340.342 133.501 340.013 130.052 339.81C126.603 339.607 122.072 337.878 121.357 336.284C120.642 334.69 121.473 331.898 121.473 331.898L166.08 340.322Z" fill="#263238"/>
<path d="M137.974 318.584L138.525 318.468C138.828 318.406 139.14 318.406 139.443 318.468C139.779 318.575 140.077 318.777 140.303 319.048C140.981 319.921 141.576 320.856 142.08 321.84C143.539 324.227 146.602 326.197 149.955 327.994C152.225 329.221 154.457 330.168 156.804 331.221C159.152 332.274 162.379 332.96 164.263 334.226C166.988 336.071 167.345 340.699 164.263 342.525C161.577 344.1 154.505 345.81 147.095 343.714C143.056 342.564 138.573 338.255 133.269 337.839C129.897 337.569 123.521 336.622 121.357 334.062C120.555 332.931 121.618 329.328 122.497 326.226C123.463 322.835 124.371 317.531 125.502 317.84C125.491 318.082 125.538 318.323 125.639 318.543C125.74 318.763 125.891 318.956 126.081 319.106C126.539 319.494 127.016 319.859 127.511 320.198C128.291 320.972 128.923 321.882 129.376 322.884C129.561 323.334 129.905 323.702 130.342 323.917C130.912 324.13 131.308 323.772 131.839 323.541C132.47 323.254 133.183 323.202 133.849 323.396C133.782 322.724 133.663 322.058 133.492 321.405C133.418 321.201 133.401 320.981 133.443 320.768C133.528 320.561 133.682 320.391 133.878 320.285C135.109 319.436 136.505 318.857 137.974 318.584Z" fill="#455A64"/>
<path d="M146.805 326.12C146.558 325.659 146.2 325.267 145.763 324.981C145.326 324.694 144.824 324.521 144.303 324.478C142.766 324.188 140.061 325.318 138.38 326.71C138.22 326.839 138.094 327.006 138.013 327.196C137.933 327.385 137.9 327.592 137.918 327.797C137.937 328.002 138.005 328.2 138.117 328.373C138.23 328.545 138.383 328.687 138.564 328.787C138.788 328.913 139.047 328.966 139.304 328.939C139.56 328.911 139.801 328.804 139.994 328.632C141.847 326.935 144.293 326.033 146.805 326.12Z" fill="#F5F5F5"/>
<path d="M151.558 328.777C151.228 328.314 150.794 327.935 150.291 327.672C149.787 327.408 149.228 327.267 148.66 327.26C148.66 327.26 144.65 327.376 142.167 329.685C142.015 329.812 141.895 329.973 141.819 330.156C141.742 330.339 141.711 330.538 141.728 330.736C141.745 330.933 141.81 331.124 141.917 331.291C142.024 331.458 142.169 331.596 142.341 331.695C142.56 331.815 142.811 331.863 143.058 331.834C143.306 331.804 143.538 331.698 143.723 331.531C144.742 330.518 145.974 329.745 147.33 329.269C148.685 328.793 150.13 328.625 151.558 328.777Z" fill="#F5F5F5"/>
<path d="M156.804 331.173C156.422 330.738 155.951 330.39 155.423 330.153C154.894 329.916 154.321 329.796 153.742 329.801C151.464 329.944 149.29 330.803 147.53 332.255C147.377 332.382 147.257 332.543 147.181 332.726C147.104 332.909 147.073 333.108 147.09 333.306C147.107 333.503 147.172 333.694 147.279 333.861C147.386 334.028 147.531 334.166 147.703 334.265C147.923 334.403 148.181 334.465 148.439 334.442C148.698 334.42 148.941 334.313 149.133 334.139C150.095 333.085 151.288 332.268 152.62 331.753C153.951 331.238 155.383 331.04 156.804 331.173Z" fill="#F5F5F5"/>
<path d="M79.7644 164.543C78.8852 191.131 78.7983 245.515 78.7983 245.515C78.5181 248.829 78.2379 254.713 77.9867 266.625C77.6389 283.9 77.6389 328.284 77.6389 328.284C82.6367 329.489 87.8838 329.132 92.672 327.26C92.672 327.26 103.213 267.302 105.367 250.191C107.251 235.274 110.449 194.725 110.449 194.725L116.97 243.448C116.298 251.071 116.15 258.731 116.526 266.374C117.086 274.287 125.134 314.961 125.134 314.961C125.134 314.961 131.124 317.744 139.365 314.961C139.365 314.961 139.481 250.703 139.626 243.467C139.781 235.187 138.873 150.312 138.873 150.312L79.7644 164.543Z" fill="#C7ECC6"/>
<path opacity="0.3" d="M79.7644 164.543C78.8852 191.131 78.7983 245.515 78.7983 245.515C78.5181 248.829 78.2379 254.713 77.9867 266.625C77.6389 283.9 77.6389 328.284 77.6389 328.284C82.6367 329.489 87.8838 329.132 92.672 327.26C92.672 327.26 103.213 267.302 105.367 250.191C107.251 235.274 110.449 194.725 110.449 194.725L116.97 243.448C116.298 251.071 116.15 258.731 116.526 266.374C117.086 274.287 125.134 314.961 125.134 314.961C125.134 314.961 131.124 317.744 139.365 314.961C139.365 314.961 139.481 250.703 139.626 243.467C139.781 235.187 138.873 150.312 138.873 150.312L79.7644 164.543Z" fill="black"/>
<path opacity="0.2" d="M110.401 194.725C110.401 194.725 120.062 192.01 127.163 185.112C127.163 185.112 123.927 191.17 114.304 196.802L116.362 239.313L110.401 194.725Z" fill="black"/>
<path d="M103.377 81.3586C97.9859 81.8803 90.45 81.9479 85.0976 82.489C81.3876 84.0155 74.2575 90.2181 74.7889 94.6623C76.7211 111.232 80.2282 138.593 80.2282 138.593L79.1751 167.161C86.5854 174.552 121.579 177.431 139.443 165.596C139.443 165.596 138.863 113.898 137.636 105.184C135.433 89.5128 133.501 83.6966 125.415 82.3054C117.328 80.9141 103.377 81.3586 103.377 81.3586Z" fill="#455A64"/>
<path d="M134.324 48.558C137.641 39.9553 133.357 30.2918 124.754 26.974C116.152 23.6563 106.488 27.9405 103.17 36.5433C99.8527 45.146 104.137 54.8094 112.74 58.1272C121.342 61.445 131.006 57.1607 134.324 48.558Z" fill="#263238"/>
<path d="M89.7642 54.1521C89.7642 54.1521 92.3631 66.8955 93.4258 68.992C94.1428 70.2813 95.3245 71.2488 96.73 71.6972L96.6237 62.7604L89.7642 54.1521Z" fill="#263238"/>
<path d="M93.3194 35.9694C92.3749 35.8517 91.416 35.9507 90.5154 36.2587C89.6148 36.5667 88.7962 37.0757 88.1215 37.747C85.8704 40.0078 87.0491 47.1476 89.764 54.1714L94.8556 54.7994L93.3194 35.9694Z" fill="#263238"/>
<path d="M96.3822 54.7994C95.3581 55.4081 93.9185 53.4275 92.6722 52.0942C91.4259 50.7609 87.3198 48.9253 85.2329 53.2343C83.1461 57.5432 86.9527 63.485 90.1796 64.5284C95.7542 66.3254 96.6237 62.7604 96.6237 62.7604L96.846 83.513C103.715 92.4692 122.98 91.8895 115.038 82.5469V76.4119C115.038 76.4119 120.091 77.2235 122.555 76.866C126.671 76.267 129.318 73.0015 130.564 68.6152C132.632 61.4947 133.463 55.7366 131.859 41.6889C130.178 26.2693 112.285 25.9408 102.566 31.9502C92.8461 37.9596 96.3822 54.7994 96.3822 54.7994Z" fill="#B16668"/>
<path d="M96.3723 56.5191C95.8603 56.5191 93.928 53.2632 92.672 52.0942C90.9233 50.4808 93.3193 35.9694 93.3193 35.9694C92.7216 34.687 92.5244 33.2542 92.7537 31.8581C92.9829 30.462 93.6279 29.1675 94.6043 28.1436C97.0389 25.5061 100.401 22.2888 111.386 23.6801C119.192 24.6462 127.666 27.1872 134.573 23.8733C135.191 26.1172 135.124 28.4946 134.38 30.6999C133.636 32.9053 132.25 34.8379 130.4 36.2495C130.4 36.2495 127.897 37.834 121.347 38.5683C114.797 39.3025 104.623 38.2688 103.232 38.0659C101.3 37.7954 100.923 39.631 99.8504 44.6356C98.8939 49.0412 98.1017 56.4998 96.3723 56.5191Z" fill="#263238"/>
<path d="M93.3194 37.0997L87.1748 33.7279C87.3752 33.3136 87.6575 32.9443 88.0048 32.6424C88.352 32.3404 88.7569 32.112 89.195 31.9711C89.6331 31.8302 90.0952 31.7797 90.5534 31.8226C91.0115 31.8655 91.4562 32.0009 91.8605 32.2207C92.6857 32.6892 93.298 33.4582 93.5698 34.3672C93.8416 35.2763 93.7519 36.2552 93.3194 37.0997Z" fill="#263238"/>
<path d="M115.077 76.3926C115.077 76.3926 105.927 74.4603 102.739 72.7406C100.864 71.7385 99.333 70.1971 98.3433 68.3157C98.816 70.1936 99.6603 71.9577 100.826 73.5038C103.145 76.5182 115.067 78.8369 115.067 78.8369L115.077 76.3926Z" fill="#9A4A4D"/>
<path d="M116.681 54.1714C116.662 54.5306 116.538 54.8762 116.324 55.1655C116.11 55.4548 115.816 55.6749 115.479 55.7985C115.141 55.9222 114.774 55.9438 114.424 55.8609C114.074 55.778 113.756 55.594 113.51 55.332C113.264 55.0699 113.1 54.7413 113.039 54.3869C112.978 54.0324 113.022 53.6679 113.166 53.3384C113.31 53.009 113.548 52.7291 113.85 52.5337C114.152 52.3383 114.505 52.2358 114.864 52.2391C115.111 52.2466 115.353 52.3026 115.577 52.4037C115.802 52.5049 116.004 52.6494 116.173 52.8288C116.342 53.0083 116.473 53.2192 116.56 53.4496C116.648 53.68 116.688 53.9252 116.681 54.1714Z" fill="#263238"/>
<path d="M115.57 45.6307L111.705 47.9591C111.407 47.4323 111.322 46.8113 111.467 46.2236C111.613 45.636 111.978 45.1265 112.488 44.7999C112.742 44.6432 113.026 44.5402 113.322 44.4973C113.618 44.4543 113.919 44.4723 114.208 44.5501C114.497 44.6279 114.766 44.7639 115 44.9498C115.234 45.1356 115.428 45.3673 115.57 45.6307Z" fill="#263238"/>
<path d="M131.347 50.0363L127.878 47.1379C128.057 46.9031 128.282 46.7071 128.539 46.5617C128.796 46.4164 129.08 46.3246 129.374 46.2921C129.667 46.2596 129.964 46.287 130.247 46.3726C130.53 46.4582 130.792 46.6002 131.018 46.7901C131.477 47.1871 131.766 47.7444 131.827 48.3479C131.888 48.9515 131.716 49.5555 131.347 50.0363Z" fill="#263238"/>
<path d="M129.859 54.1714C129.863 54.4069 129.82 54.6409 129.733 54.8599C129.646 55.0788 129.517 55.2784 129.352 55.4472C129.188 55.616 128.992 55.7507 128.776 55.8434C128.559 55.9362 128.326 55.9852 128.091 55.9878C127.613 55.9726 127.161 55.7689 126.833 55.4213C126.506 55.0736 126.329 54.6103 126.342 54.1328C126.342 53.9018 126.387 53.6732 126.476 53.4599C126.564 53.2465 126.694 53.0527 126.857 52.8894C127.02 52.7261 127.214 52.5966 127.427 52.5082C127.641 52.4199 127.869 52.3744 128.1 52.3744C128.331 52.3744 128.56 52.4199 128.773 52.5082C128.987 52.5966 129.18 52.7261 129.344 52.8894C129.507 53.0527 129.637 53.2465 129.725 53.4599C129.813 53.6732 129.859 53.9018 129.859 54.1328V54.1714Z" fill="#263238"/>
<path d="M121.444 51.7947L120.758 62.8377L126.719 61.5527L121.444 51.7947Z" fill="#9A4A4D"/>
<path d="M117.328 67.6877C117.328 68.0355 117.225 68.3754 117.032 68.6646C116.838 68.9538 116.564 69.1791 116.243 69.3122C115.921 69.4453 115.568 69.4801 115.227 69.4123C114.886 69.3444 114.572 69.177 114.326 68.9311C114.08 68.6851 113.913 68.3718 113.845 68.0307C113.777 67.6896 113.812 67.3361 113.945 67.0148C114.078 66.6935 114.304 66.4189 114.593 66.2257C114.882 66.0324 115.222 65.9293 115.57 65.9293C115.801 65.928 116.03 65.9726 116.244 66.0606C116.458 66.1485 116.652 66.2779 116.816 66.4415C116.979 66.605 117.109 66.7994 117.197 67.0133C117.285 67.2272 117.329 67.4564 117.328 67.6877Z" fill="#9A4A4D"/>
<path d="M63.5237 61.8715C67.6298 57.4563 70.4702 54.1424 74.1512 50.3358C76.267 48.2007 77.6293 46.6549 79.6775 44.4521C81.0881 42.9352 81.9576 41.6213 83.3778 41.2541C84.9602 40.7925 86.4259 39.9987 87.6771 38.9257C88.4387 38.2318 89.1582 37.493 89.8316 36.7133C92.2025 34.1584 94.9293 31.9588 97.9279 30.1822C101.058 28.3079 104.44 26.9939 107.589 25.2356C109.522 24.1825 111.608 22.3371 109.657 20.173C109.029 19.5294 108.248 19.0571 107.386 18.8011C102.227 17.12 97.4158 18.5016 92.0827 19.2552C89.8917 19.5622 87.7298 20.0502 85.6193 20.714C84.5394 21.0133 83.5103 21.4725 82.5663 22.0763C81.2064 23.1746 80.049 24.5021 79.1461 25.9988C76.4216 29.8054 71.8421 33.3608 68.1032 36.1529C63.7845 39.4378 59.5432 42.9642 55.1183 46.0655C50.5964 49.1782 46.2457 52.5323 42.085 56.1134C38.6649 59.1084 39.0127 61.089 39.3605 62.0261C41.2928 67.4268 43.9014 69.5717 46.9061 73.1077C53.1667 80.4794 80.3538 108.256 80.3538 108.256L84.5758 100.459C86.7232 96.5057 87.457 91.9379 86.6559 87.5108C85.8548 83.0837 83.5668 79.0626 80.1702 76.1124C74.4797 71.1658 68.3254 65.8037 63.5237 61.8715Z" fill="#B16668"/>
<path d="M88.2666 81.9769C80.5375 75.9482 66.8763 64.3159 66.8763 64.3159C66.8763 64.3159 66.3353 77.9867 56.4517 84.6724C56.4517 84.6724 74.5281 103.995 79.2719 108.642C83.6775 107.676 87.4551 104.121 88.7207 97.2998C90.8559 85.7255 88.2666 81.9769 88.2666 81.9769Z" fill="#37474F"/>
<path d="M63.5236 61.8715C60.8133 64.567 57.3863 66.4281 53.6497 67.2336C53.6497 67.2336 58.1229 68.5669 65.3303 63.369L63.5236 61.8715Z" fill="#9A4A4D"/>
<path d="M179.344 352.119C177.412 351.027 175.77 350.815 174.514 351.51C173.161 352.293 172.379 354.245 172.379 356.853V375.741C172.379 381.345 170.398 385.605 166.804 387.77L188.136 375.471V368.186C188.185 362.244 184.137 354.882 179.344 352.119Z" fill="#F0F0F0"/>
<path d="M212.696 389.499C211.324 388.706 210.106 388.533 209.266 389.016C208.425 389.499 207.749 391.006 207.749 392.957V405.353C207.749 408.725 206.493 411.382 204.3 412.647L219.584 403.836V402.02C219.584 397.392 216.435 391.653 212.696 389.499Z" fill="#F0F0F0"/>
<path opacity="0.15" d="M179.344 352.119C177.412 351.027 175.77 350.815 174.514 351.51C173.161 352.293 172.379 354.245 172.379 356.853V375.741C172.379 381.345 170.398 385.605 166.804 387.77L188.136 375.471V368.186C188.185 362.244 184.137 354.882 179.344 352.119Z" fill="black"/>
<path opacity="0.15" d="M212.696 389.499C211.324 388.706 210.106 388.533 209.266 389.016C208.425 389.499 207.749 391.006 207.749 392.957V405.353C207.749 408.725 206.493 411.382 204.3 412.647L219.584 403.836V402.02C219.584 397.392 216.435 391.653 212.696 389.499Z" fill="black"/>
<path d="M288.257 386.697L275.417 394.107L273.746 395.074L239.168 415.015V424.077C239.168 427.149 238.057 429.526 236.028 430.763L286.924 401.411C289.03 400.194 290.19 397.788 290.19 394.648V385.586L288.257 386.697Z" fill="#F0F0F0"/>
<path d="M288.238 385.586L274.905 393.277L273.234 394.243L237.216 415.015H239.148L273.727 395.074L275.398 394.107L288.238 386.697L290.17 385.586H288.238Z" fill="#FAFAFA"/>
<path d="M123.405 163.519V183.421C123.405 187.421 120.767 189.141 117.511 187.286C115.799 186.168 114.375 184.663 113.353 182.892C112.33 181.121 111.739 179.135 111.628 177.093V170.33L123.405 163.519Z" fill="#F0F0F0"/>
<path d="M128.323 145.926C128.03 145.698 127.685 145.545 127.32 145.481C126.954 145.417 126.579 145.444 126.226 145.558C125.889 145.883 125.633 146.282 125.479 146.723C125.325 147.164 125.276 147.636 125.337 148.099V183.421C125.337 186.049 124.371 188.156 122.642 189.218L133.269 183.103V154.901C133.24 151.539 130.989 147.462 128.323 145.926Z" fill="#E6E6E6"/>
<path d="M123.405 162.408V163.519L111.628 170.311H109.695L123.405 162.408Z" fill="#FAFAFA"/>
<path d="M272.538 384.987V372.591C272.538 367.258 269.021 360.901 264.683 358.399C262.664 357.23 260.819 357.104 259.428 357.858L259.128 358.032L241.226 368.36L239.419 369.394L208.502 387.228C209.884 386.543 211.681 386.687 213.652 387.827C217.99 390.33 221.507 396.687 221.507 402.02V414.416C221.507 419.758 225.023 426.106 229.352 428.618C233.68 431.13 237.206 429.091 237.206 424.077V415.015L273.224 394.243L274.896 393.276C273.432 390.753 272.622 387.903 272.538 384.987Z" fill="#FAFAFA"/>
<path d="M241.139 366.862V338.757C241.139 332.081 236.752 324.14 231.332 321.009C228.811 319.56 226.502 319.406 224.772 320.323L224.328 320.584L190.175 340.274L188.532 341.24L173.857 349.704C175.586 348.844 177.837 349.027 180.311 350.448C185.731 353.578 190.117 361.519 190.117 368.196V396.3C190.117 401.643 193.634 407.991 197.972 410.493C202.309 412.995 205.817 410.706 205.817 405.363V392.958C205.817 390.127 206.783 388.127 208.387 387.296L208.512 387.228L239.429 369.394L241.235 368.36C241.174 367.863 241.142 367.363 241.139 366.862Z" fill="#F5F5F5"/>
<path d="M186.194 325.444V125.453C186.194 121.453 183.557 116.681 180.311 114.826C179.745 114.423 179.084 114.174 178.393 114.103C177.702 114.032 177.005 114.141 176.369 114.42L176.137 114.555L125.415 143.81C126.045 143.555 126.728 143.462 127.403 143.54C128.078 143.618 128.723 143.863 129.279 144.254C132.525 146.129 135.163 150.901 135.163 154.882V354.873C135.163 365.548 142.66 378.524 151.896 383.857L153.751 384.929C162.997 390.262 170.485 386.127 170.485 375.702V356.853C170.485 353.452 171.625 351.056 173.47 349.907L173.847 349.694L188.523 341.231L190.165 340.264C187.701 335.703 186.341 330.627 186.194 325.444Z" fill="#FAFAFA"/>
<path d="M239.148 415.015V424.077C239.148 427.149 238.037 429.526 236.008 430.763L235.777 430.898C234.887 431.38 233.89 431.629 232.878 431.622C231.296 431.577 229.754 431.117 228.405 430.289C223.468 427.391 219.594 420.464 219.594 414.416V402.02C219.594 397.392 216.444 391.653 212.705 389.46C211.333 388.668 210.116 388.494 209.275 388.977C208.435 389.46 207.759 390.967 207.759 392.919V405.315C207.759 408.686 206.503 411.343 204.309 412.609C202.116 413.875 199.633 413.633 197.015 412.116C192.068 409.266 188.194 402.3 188.194 396.252V368.186C188.194 362.244 184.146 354.882 179.354 352.119C177.422 351.027 175.779 350.815 174.523 351.51C173.171 352.293 172.388 354.244 172.388 356.853V375.741C172.388 381.345 170.408 385.605 166.814 387.769L166.514 387.943C162.746 390.04 157.867 389.576 152.776 386.629L150.921 385.557C141.163 379.924 133.221 366.167 133.221 354.901V154.911C133.221 151.587 130.97 147.471 128.303 145.935C128.01 145.707 127.666 145.555 127.301 145.491C126.935 145.427 126.56 145.453 126.207 145.568C125.87 145.892 125.614 146.291 125.46 146.733C125.305 147.174 125.257 147.646 125.318 148.109V183.421C125.318 186.049 124.352 188.156 122.622 189.218L122.333 189.383C121.41 189.816 120.39 190.003 119.374 189.923C118.358 189.843 117.379 189.501 116.536 188.928C114.531 187.638 112.863 185.887 111.671 183.822C110.48 181.757 109.799 179.436 109.686 177.055V170.292H111.618V177.055C111.725 179.104 112.315 181.099 113.339 182.877C114.363 184.655 115.793 186.165 117.512 187.286C120.767 189.16 123.405 187.441 123.405 183.421V148.061C123.405 146.003 124.101 144.554 125.221 143.877L125.415 143.771C126.045 143.516 126.728 143.424 127.403 143.501C128.078 143.579 128.723 143.825 129.279 144.216C132.525 146.09 135.163 150.863 135.163 154.843V354.834C135.163 365.51 142.66 378.485 151.896 383.818L153.751 384.89C162.997 390.223 170.485 386.088 170.485 375.664V356.853C170.485 353.452 171.625 351.056 173.47 349.906L173.847 349.694C175.576 348.834 177.828 349.018 180.301 350.438C185.721 353.568 190.107 361.51 190.107 368.186V396.291C190.107 401.634 193.624 407.981 197.962 410.483C202.3 412.986 205.807 410.696 205.807 405.353V392.958C205.807 390.127 206.773 388.127 208.377 387.296L208.502 387.228C209.884 386.542 211.681 386.687 213.652 387.827C217.99 390.33 221.507 396.687 221.507 402.02V414.416C221.507 419.758 225.023 426.106 229.352 428.618C233.68 431.13 237.206 429.091 237.206 424.077V415.015H239.148Z" fill="#455A64"/>
<path opacity="0.07" d="M188.185 375.471V368.186C188.185 362.244 184.136 354.882 179.344 352.119C177.412 351.027 175.77 350.815 174.514 351.51C173.161 352.293 172.378 354.245 172.378 356.853V358.37C172.378 353.191 181.344 353.375 181.344 367.838V379.432L188.185 375.471Z" fill="black"/>
<path opacity="0.07" d="M219.584 403.836V402.02C219.584 397.392 216.435 391.653 212.696 389.46C211.324 388.668 210.106 388.494 209.266 388.977C208.425 389.46 207.749 390.967 207.749 392.919V399.122C207.749 392.919 214.512 396.3 214.512 400.919V406.715L219.584 403.836Z" fill="black"/>
<path opacity="0.08" d="M133.24 183.151V154.901C133.24 151.578 130.989 147.462 128.323 145.926C128.03 145.698 127.685 145.545 127.32 145.481C126.955 145.417 126.579 145.444 126.226 145.558C125.889 145.883 125.633 146.282 125.479 146.723C125.325 147.164 125.276 147.636 125.337 148.099V154.437C125.337 150.138 130.033 151.674 130.033 159.674V184.996L133.24 183.151Z" fill="black"/>
<path d="M267.901 373.104C267.512 373.361 267.188 373.706 266.955 374.11C266.722 374.514 266.586 374.966 266.558 375.432C266.558 376.292 267.166 376.64 267.901 376.214C268.292 375.959 268.618 375.615 268.853 375.211C269.088 374.807 269.225 374.353 269.253 373.886C269.253 373.026 268.645 372.678 267.901 373.104Z" fill="#C7ECC6"/>
<path d="M267.901 388.542C267.51 388.798 267.185 389.142 266.952 389.547C266.719 389.951 266.584 390.405 266.558 390.871C266.558 391.731 267.166 392.078 267.901 391.644C268.294 391.39 268.621 391.046 268.856 390.642C269.091 390.237 269.227 389.783 269.253 389.315C269.253 388.465 268.645 388.117 267.901 388.542Z" fill="#C7ECC6"/>
<path d="M259.273 361.732C259.647 362.011 260.082 362.198 260.542 362.279C261.001 362.359 261.474 362.331 261.92 362.196C262.088 362.168 262.244 362.09 262.365 361.97C262.486 361.85 262.567 361.696 262.597 361.529C262.627 361.361 262.604 361.188 262.531 361.034C262.458 360.88 262.339 360.753 262.191 360.669C261.817 360.389 261.383 360.2 260.924 360.118C260.464 360.035 259.991 360.062 259.544 360.196C259.373 360.221 259.214 360.299 259.09 360.419C258.966 360.54 258.883 360.696 258.853 360.866C258.823 361.036 258.847 361.212 258.923 361.367C258.998 361.523 259.121 361.65 259.273 361.732Z" fill="#C7ECC6"/>
<g opacity="0.3">
<path opacity="0.3" d="M217.594 386.05C217.508 386.049 217.424 386.027 217.35 385.984C217.276 385.942 217.213 385.881 217.169 385.808C217.108 385.695 217.093 385.562 217.128 385.438C217.162 385.314 217.242 385.208 217.352 385.142L255.215 363.287C255.27 363.248 255.332 363.22 255.398 363.206C255.464 363.192 255.533 363.192 255.599 363.205C255.665 363.219 255.728 363.247 255.782 363.287C255.837 363.326 255.883 363.377 255.917 363.435C255.951 363.494 255.972 363.559 255.98 363.626C255.987 363.693 255.98 363.761 255.959 363.825C255.939 363.89 255.905 363.949 255.86 364C255.815 364.05 255.76 364.091 255.698 364.118L217.835 385.982C217.761 386.022 217.678 386.046 217.594 386.05Z" fill="#455A64"/>
<path opacity="0.3" d="M222.753 391.412C222.648 391.411 222.545 391.375 222.462 391.311C222.379 391.246 222.319 391.156 222.291 391.054C222.264 390.952 222.271 390.844 222.311 390.747C222.35 390.649 222.421 390.567 222.512 390.513L260.384 368.65C260.495 368.586 260.625 368.569 260.748 368.601C260.871 368.634 260.977 368.714 261.041 368.823C261.105 368.934 261.122 369.065 261.089 369.188C261.057 369.311 260.977 369.416 260.867 369.48L222.995 391.344C222.922 391.39 222.838 391.414 222.753 391.412Z" fill="#455A64"/>
<path opacity="0.3" d="M225.361 398.803C225.256 398.802 225.154 398.766 225.071 398.702C224.987 398.637 224.927 398.547 224.9 398.445C224.872 398.343 224.879 398.235 224.919 398.138C224.959 398.04 225.029 397.958 225.12 397.904L262.993 376.041C263.104 375.976 263.236 375.959 263.361 375.993C263.485 376.026 263.59 376.108 263.654 376.219C263.718 376.331 263.736 376.463 263.702 376.587C263.669 376.711 263.587 376.817 263.476 376.881L225.603 398.745C225.529 398.784 225.446 398.804 225.361 398.803Z" fill="#455A64"/>
<path opacity="0.3" d="M225.458 406.435C225.353 406.434 225.251 406.399 225.167 406.334C225.084 406.27 225.024 406.179 224.997 406.078C224.969 405.976 224.976 405.868 225.016 405.77C225.055 405.673 225.126 405.591 225.217 405.537L263.08 383.673C263.135 383.641 263.196 383.621 263.259 383.613C263.322 383.604 263.386 383.609 263.447 383.625C263.509 383.642 263.566 383.671 263.617 383.709C263.667 383.748 263.71 383.797 263.741 383.852C263.773 383.907 263.794 383.968 263.802 384.031C263.81 384.094 263.806 384.158 263.789 384.22C263.772 384.281 263.744 384.339 263.705 384.389C263.666 384.44 263.618 384.482 263.563 384.514L225.7 406.377C225.625 406.416 225.542 406.436 225.458 406.435Z" fill="#455A64"/>
<path opacity="0.3" d="M225.526 414.068C225.42 414.067 225.318 414.031 225.235 413.967C225.151 413.902 225.092 413.812 225.064 413.71C225.037 413.608 225.043 413.5 225.083 413.403C225.123 413.305 225.194 413.223 225.284 413.169L263.138 391.306C263.249 391.242 263.381 391.224 263.505 391.258C263.63 391.291 263.735 391.373 263.799 391.484C263.863 391.596 263.881 391.728 263.847 391.852C263.814 391.976 263.732 392.082 263.621 392.146L225.758 414.01C225.686 414.047 225.606 414.067 225.526 414.068Z" fill="#455A64"/>
<path opacity="0.3" d="M237.216 415.189V416.261L228.357 421.401C228.284 421.446 228.2 421.469 228.115 421.468C228.01 421.467 227.907 421.432 227.824 421.367C227.741 421.303 227.681 421.213 227.654 421.111C227.626 421.009 227.633 420.901 227.673 420.803C227.712 420.706 227.783 420.624 227.874 420.57L237.216 415.189Z" fill="#455A64"/>
<path opacity="0.3" d="M237.216 423.526V424.077C237.216 424.27 237.216 424.463 237.216 424.647L233.545 426.763C233.473 426.809 233.389 426.832 233.303 426.83C233.198 426.829 233.096 426.794 233.012 426.729C232.929 426.665 232.869 426.575 232.842 426.473C232.814 426.371 232.821 426.263 232.861 426.165C232.901 426.068 232.971 425.986 233.062 425.932L237.216 423.526Z" fill="#455A64"/>
</g>
<path d="M236.472 335.443C236.08 335.698 235.754 336.041 235.521 336.446C235.287 336.851 235.153 337.305 235.129 337.772C235.129 338.622 235.728 338.97 236.472 338.545C236.864 338.29 237.19 337.947 237.423 337.542C237.657 337.137 237.791 336.683 237.815 336.216C237.815 335.356 237.216 335.009 236.472 335.443Z" fill="#C7ECC6"/>
<path d="M236.472 352.293C236.078 352.546 235.751 352.889 235.515 353.294C235.28 353.699 235.145 354.154 235.12 354.621C235.12 355.471 235.719 355.819 236.463 355.394C236.854 355.14 237.18 354.796 237.414 354.391C237.647 353.987 237.781 353.532 237.805 353.066C237.815 352.206 237.216 351.858 236.472 352.293Z" fill="#C7ECC6"/>
<path d="M237.815 369.886C237.815 370.033 237.795 370.179 237.757 370.321L235.177 371.818C235.145 371.699 235.129 371.575 235.129 371.451C235.153 370.985 235.287 370.53 235.521 370.126C235.754 369.721 236.08 369.377 236.472 369.123C237.216 368.708 237.815 369.055 237.815 369.886Z" fill="#C7ECC6"/>
<path d="M226.057 323.734C226.431 324.014 226.865 324.203 227.325 324.286C227.784 324.368 228.257 324.341 228.705 324.207C228.873 324.18 229.028 324.101 229.149 323.981C229.271 323.862 229.352 323.708 229.381 323.54C229.411 323.372 229.388 323.2 229.315 323.046C229.242 322.892 229.124 322.764 228.975 322.681C228.602 322.4 228.168 322.211 227.708 322.129C227.248 322.047 226.775 322.074 226.328 322.207C226.16 322.235 226.004 322.314 225.883 322.433C225.762 322.553 225.681 322.707 225.651 322.875C225.621 323.042 225.644 323.215 225.717 323.369C225.79 323.523 225.909 323.65 226.057 323.734Z" fill="#C7ECC6"/>
<g opacity="0.4">
<path opacity="0.4" d="M184.233 348.544C184.128 348.543 184.025 348.508 183.942 348.443C183.859 348.378 183.799 348.288 183.771 348.187C183.744 348.085 183.751 347.977 183.79 347.879C183.83 347.782 183.901 347.7 183.991 347.646L222.395 325.502C222.45 325.469 222.51 325.448 222.573 325.439C222.636 325.43 222.699 325.434 222.761 325.45C222.822 325.466 222.879 325.494 222.929 325.533C222.98 325.572 223.021 325.62 223.052 325.676C223.116 325.787 223.134 325.92 223.101 326.044C223.069 326.169 222.989 326.276 222.878 326.342L184.475 348.486C184.4 348.525 184.317 348.545 184.233 348.544Z" fill="#455A64"/>
<path opacity="0.4" d="M189.923 354.071C189.818 354.07 189.716 354.034 189.633 353.969C189.549 353.905 189.489 353.815 189.462 353.713C189.435 353.611 189.441 353.503 189.481 353.406C189.521 353.308 189.591 353.226 189.682 353.172L228.086 331.028C228.197 330.964 228.33 330.947 228.454 330.98C228.578 331.014 228.684 331.095 228.748 331.207C228.812 331.318 228.829 331.451 228.796 331.575C228.762 331.699 228.681 331.805 228.569 331.869L190.165 354.013C190.09 354.051 190.007 354.071 189.923 354.071Z" fill="#455A64"/>
<path opacity="0.4" d="M193.459 361.838C193.374 361.839 193.289 361.816 193.215 361.774C193.14 361.732 193.078 361.671 193.034 361.597C192.974 361.485 192.96 361.354 192.994 361.231C193.028 361.109 193.108 361.004 193.218 360.94L231.622 338.796C231.676 338.763 231.736 338.742 231.799 338.733C231.862 338.724 231.926 338.728 231.987 338.744C232.048 338.76 232.106 338.788 232.156 338.827C232.206 338.866 232.248 338.915 232.279 338.97C232.343 339.082 232.36 339.214 232.328 339.339C232.295 339.463 232.215 339.57 232.105 339.636L193.701 361.78C193.626 361.818 193.543 361.838 193.459 361.838Z" fill="#455A64"/>
<path opacity="0.4" d="M194.039 369.983C193.934 369.982 193.832 369.946 193.748 369.882C193.665 369.817 193.605 369.727 193.578 369.625C193.55 369.523 193.557 369.415 193.597 369.318C193.636 369.22 193.707 369.138 193.798 369.084L232.221 346.94C232.276 346.901 232.338 346.873 232.404 346.859C232.47 346.845 232.539 346.845 232.605 346.858C232.671 346.872 232.733 346.9 232.788 346.94C232.843 346.979 232.889 347.03 232.923 347.088C232.957 347.147 232.978 347.212 232.985 347.279C232.993 347.346 232.986 347.414 232.965 347.478C232.945 347.543 232.911 347.602 232.866 347.653C232.821 347.703 232.766 347.743 232.704 347.771L194.281 369.886C194.212 369.942 194.128 369.976 194.039 369.983Z" fill="#455A64"/>
<path opacity="0.4" d="M194.039 378.243C193.955 378.243 193.872 378.22 193.799 378.178C193.726 378.135 193.666 378.075 193.624 378.002C193.56 377.89 193.542 377.757 193.575 377.633C193.607 377.508 193.687 377.401 193.798 377.335L232.221 355.191C232.332 355.127 232.465 355.11 232.589 355.144C232.713 355.177 232.819 355.259 232.883 355.37C232.947 355.481 232.964 355.614 232.931 355.738C232.897 355.862 232.816 355.968 232.704 356.032L194.3 378.176C194.22 378.22 194.13 378.243 194.039 378.243Z" fill="#455A64"/>
<path opacity="0.4" d="M194.039 386.494C193.934 386.493 193.832 386.458 193.748 386.393C193.665 386.328 193.605 386.238 193.578 386.137C193.55 386.035 193.557 385.927 193.597 385.829C193.636 385.732 193.707 385.65 193.798 385.596L232.221 363.452C232.276 363.412 232.338 363.384 232.404 363.37C232.47 363.356 232.539 363.356 232.605 363.37C232.671 363.384 232.733 363.411 232.788 363.451C232.843 363.491 232.889 363.541 232.923 363.6C232.957 363.658 232.978 363.723 232.985 363.79C232.993 363.857 232.986 363.925 232.965 363.99C232.945 364.054 232.911 364.114 232.866 364.164C232.821 364.214 232.766 364.255 232.704 364.283L194.3 386.427C194.222 386.476 194.131 386.5 194.039 386.494Z" fill="#455A64"/>
<path opacity="0.4" d="M194.049 394.735C193.963 394.737 193.878 394.715 193.804 394.672C193.729 394.63 193.667 394.568 193.624 394.494C193.591 394.439 193.571 394.378 193.562 394.315C193.554 394.252 193.559 394.188 193.576 394.126C193.593 394.065 193.622 394.008 193.662 393.958C193.702 393.908 193.751 393.867 193.807 393.837L232.221 371.693C232.333 371.629 232.465 371.612 232.59 371.644C232.714 371.677 232.821 371.757 232.888 371.867C232.95 371.978 232.966 372.11 232.932 372.233C232.897 372.356 232.815 372.461 232.704 372.524L194.31 394.668C194.232 394.716 194.141 394.74 194.049 394.735Z" fill="#455A64"/>
<path opacity="0.4" d="M205.816 396.262V397.383L196.667 402.658C196.593 402.699 196.51 402.722 196.426 402.725C196.341 402.725 196.259 402.702 196.186 402.66C196.113 402.618 196.052 402.557 196.01 402.484C195.946 402.372 195.929 402.24 195.961 402.115C195.994 401.99 196.074 401.884 196.184 401.817L205.816 396.262Z" fill="#455A64"/>
<path opacity="0.4" d="M205.817 405.286V405.353C205.817 405.715 205.798 406.076 205.759 406.435L202.136 408.532C202.063 408.577 201.979 408.6 201.894 408.599C201.789 408.598 201.687 408.563 201.603 408.498C201.52 408.434 201.46 408.344 201.433 408.242C201.405 408.14 201.412 408.032 201.452 407.934C201.491 407.837 201.562 407.755 201.653 407.701L205.817 405.286Z" fill="#455A64"/>
</g>
<path d="M182.736 132.487C182.345 132.743 182.02 133.087 181.787 133.491C181.554 133.896 181.419 134.349 181.393 134.815C181.393 135.675 181.992 136.023 182.736 135.598C183.126 135.341 183.451 134.997 183.684 134.593C183.917 134.189 184.052 133.735 184.078 133.269C184.078 132.409 183.479 132.062 182.736 132.487Z" fill="#27DEBF"/>
<path d="M176.89 118.69C177.263 118.972 177.698 119.161 178.158 119.241C178.618 119.322 179.091 119.292 179.538 119.154C179.706 119.127 179.861 119.048 179.982 118.928C180.104 118.809 180.185 118.654 180.214 118.487C180.244 118.319 180.221 118.146 180.148 117.992C180.075 117.838 179.956 117.711 179.808 117.627C179.435 117.346 179 117.158 178.54 117.077C178.08 116.997 177.607 117.026 177.161 117.164C176.993 117.191 176.837 117.27 176.716 117.389C176.595 117.509 176.514 117.663 176.484 117.831C176.454 117.999 176.477 118.171 176.55 118.325C176.623 118.479 176.742 118.607 176.89 118.69Z" fill="#27DEBF"/>
<path d="M182.736 156.466C182.344 156.721 182.018 157.064 181.784 157.469C181.551 157.874 181.417 158.328 181.393 158.795C181.393 159.654 181.992 159.993 182.736 159.568C183.127 159.313 183.453 158.969 183.687 158.565C183.92 158.16 184.055 157.706 184.078 157.239C184.078 156.37 183.479 156.041 182.736 156.466Z" fill="#C7ECC6"/>
<path d="M182.736 172.446C182.345 172.702 182.019 173.046 181.786 173.45C181.553 173.855 181.418 174.308 181.393 174.774C181.393 175.634 181.992 175.982 182.736 175.547C183.127 175.293 183.453 174.949 183.687 174.545C183.92 174.14 184.055 173.686 184.078 173.219C184.078 172.369 183.479 172.021 182.736 172.446Z" fill="#C7ECC6"/>
<path d="M182.736 188.426C182.345 188.682 182.02 189.026 181.787 189.431C181.554 189.835 181.419 190.288 181.393 190.754C181.393 191.614 181.992 191.962 182.736 191.537C183.126 191.281 183.451 190.937 183.684 190.533C183.917 190.128 184.052 189.675 184.078 189.209C184.078 188.349 183.479 188.001 182.736 188.426Z" fill="#C7ECC6"/>
<path d="M182.736 204.416C182.344 204.67 182.018 205.014 181.784 205.418C181.551 205.823 181.417 206.277 181.393 206.744C181.393 207.594 181.992 207.942 182.736 207.517C183.127 207.263 183.453 206.919 183.687 206.514C183.92 206.109 184.055 205.655 184.078 205.189C184.078 204.329 183.479 203.981 182.736 204.416Z" fill="#C7ECC6"/>
<path d="M182.736 220.396C182.344 220.65 182.018 220.994 181.784 221.398C181.551 221.803 181.417 222.257 181.393 222.724C181.393 223.584 181.992 223.932 182.736 223.497C183.127 223.243 183.453 222.899 183.687 222.494C183.92 222.089 184.055 221.635 184.078 221.169C184.078 220.318 183.479 219.97 182.736 220.396Z" fill="#C7ECC6"/>
<path d="M182.736 236.376C182.345 236.631 182.019 236.975 181.786 237.379C181.553 237.784 181.418 238.238 181.393 238.704C181.393 239.564 181.992 239.912 182.736 239.477C183.126 239.223 183.451 238.881 183.685 238.478C183.918 238.075 184.053 237.623 184.078 237.158C184.078 236.298 183.479 235.95 182.736 236.376Z" fill="#C7ECC6"/>
<path d="M182.736 252.365C182.345 252.619 182.02 252.961 181.786 253.364C181.553 253.767 181.418 254.219 181.393 254.684C181.393 255.544 181.992 255.892 182.736 255.466C183.126 255.211 183.452 254.867 183.685 254.462C183.918 254.058 184.053 253.604 184.078 253.138C184.078 252.278 183.479 251.93 182.736 252.365Z" fill="#C7ECC6"/>
<path d="M182.736 268.345C182.344 268.599 182.018 268.943 181.784 269.348C181.551 269.753 181.417 270.207 181.393 270.673C181.393 271.524 181.992 271.871 182.736 271.446C183.127 271.192 183.453 270.848 183.687 270.444C183.92 270.039 184.055 269.585 184.078 269.118C184.078 268.258 183.479 267.91 182.736 268.345Z" fill="#C7ECC6"/>
<path d="M182.736 284.325C182.344 284.579 182.018 284.923 181.784 285.328C181.551 285.733 181.417 286.187 181.393 286.653C181.393 287.513 181.992 287.861 182.736 287.426C183.127 287.172 183.453 286.828 183.687 286.424C183.92 286.019 184.055 285.565 184.078 285.098C184.078 284.248 183.479 283.9 182.736 284.325Z" fill="#C7ECC6"/>
<path d="M182.736 300.324C182.345 300.58 182.02 300.924 181.787 301.329C181.554 301.733 181.419 302.187 181.393 302.653C181.393 303.513 181.992 303.86 182.736 303.435C183.126 303.179 183.451 302.835 183.684 302.431C183.917 302.026 184.052 301.573 184.078 301.107C184.078 300.228 183.479 299.88 182.736 300.324Z" fill="#C7ECC6"/>
<path d="M182.736 316.295C182.344 316.549 182.018 316.893 181.784 317.297C181.551 317.702 181.417 318.156 181.393 318.623C181.393 319.473 181.992 319.821 182.736 319.396C183.127 319.141 183.453 318.798 183.687 318.393C183.92 317.988 184.055 317.534 184.078 317.067C184.078 316.208 183.479 315.86 182.736 316.295Z" fill="#C7ECC6"/>
<path d="M182.736 332.274C182.344 332.529 182.018 332.873 181.784 333.277C181.551 333.682 181.417 334.136 181.393 334.603C181.393 335.463 181.992 335.801 182.736 335.376C183.127 335.121 183.453 334.778 183.687 334.373C183.92 333.968 184.055 333.514 184.078 333.047C184.078 332.207 183.479 331.849 182.736 332.274Z" fill="#C7ECC6"/>
<g opacity="0.5">
<path opacity="0.5" d="M135.25 143.559C135.144 143.557 135.042 143.522 134.959 143.457C134.875 143.393 134.815 143.303 134.788 143.201C134.761 143.099 134.767 142.991 134.807 142.893C134.847 142.796 134.917 142.714 135.008 142.66L174.175 120.043C174.231 120.011 174.291 119.99 174.355 119.982C174.418 119.974 174.482 119.978 174.543 119.995C174.605 120.012 174.662 120.04 174.713 120.079C174.763 120.118 174.805 120.166 174.837 120.221C174.869 120.277 174.889 120.338 174.898 120.401C174.906 120.464 174.902 120.528 174.885 120.589C174.868 120.651 174.84 120.708 174.801 120.759C174.762 120.809 174.714 120.852 174.658 120.883L135.491 143.491C135.419 143.537 135.335 143.56 135.25 143.559Z" fill="#455A64"/>
<path opacity="0.5" d="M138.834 150.457C138.729 150.456 138.627 150.42 138.543 150.356C138.46 150.291 138.4 150.201 138.373 150.099C138.345 149.997 138.352 149.889 138.392 149.792C138.431 149.694 138.502 149.612 138.593 149.558L177.76 126.941C177.873 126.88 178.006 126.866 178.13 126.9C178.254 126.934 178.36 127.014 178.426 127.125C178.487 127.237 178.501 127.368 178.467 127.49C178.433 127.612 178.352 127.717 178.243 127.782L139.076 150.399C139.001 150.437 138.918 150.457 138.834 150.457Z" fill="#455A64"/>
<path opacity="0.5" d="M139.8 158.369C139.695 158.368 139.593 158.333 139.509 158.268C139.426 158.204 139.366 158.114 139.339 158.012C139.311 157.91 139.318 157.802 139.358 157.704C139.397 157.607 139.468 157.525 139.559 157.471L178.726 134.854C178.837 134.79 178.97 134.772 179.094 134.806C179.218 134.839 179.324 134.921 179.388 135.032C179.452 135.144 179.469 135.276 179.435 135.4C179.402 135.524 179.32 135.63 179.209 135.694L140.042 158.302C139.967 158.343 139.885 158.366 139.8 158.369Z" fill="#455A64"/>
<path opacity="0.5" d="M139.8 166.388C139.695 166.387 139.593 166.352 139.509 166.287C139.426 166.223 139.366 166.133 139.339 166.031C139.311 165.929 139.318 165.821 139.358 165.723C139.397 165.626 139.468 165.544 139.559 165.49L178.726 142.844C178.838 142.784 178.969 142.769 179.091 142.803C179.214 142.838 179.318 142.918 179.383 143.027C179.416 143.081 179.437 143.142 179.446 143.205C179.455 143.267 179.451 143.331 179.435 143.392C179.419 143.454 179.39 143.511 179.351 143.561C179.313 143.611 179.264 143.653 179.209 143.684L140.042 166.292C139.972 166.347 139.888 166.38 139.8 166.388Z" fill="#455A64"/>
<path opacity="0.5" d="M139.8 174.407C139.695 174.406 139.593 174.371 139.509 174.306C139.426 174.242 139.366 174.152 139.339 174.05C139.311 173.948 139.318 173.84 139.358 173.742C139.397 173.645 139.468 173.563 139.559 173.509L178.726 150.892C178.781 150.86 178.842 150.839 178.905 150.831C178.968 150.823 179.032 150.827 179.094 150.844C179.155 150.86 179.213 150.889 179.263 150.928C179.314 150.967 179.356 151.015 179.388 151.07C179.419 151.126 179.44 151.186 179.448 151.25C179.456 151.313 179.452 151.377 179.435 151.438C179.419 151.5 179.39 151.557 179.351 151.608C179.313 151.658 179.264 151.7 179.209 151.732L140.042 174.34C139.969 174.385 139.885 174.408 139.8 174.407Z" fill="#455A64"/>
<path opacity="0.5" d="M139.8 182.455C139.695 182.454 139.593 182.419 139.509 182.354C139.426 182.29 139.366 182.199 139.339 182.098C139.311 181.996 139.318 181.888 139.358 181.79C139.397 181.693 139.468 181.611 139.559 181.557L178.726 158.94C178.781 158.908 178.842 158.887 178.905 158.879C178.968 158.871 179.032 158.875 179.094 158.892C179.155 158.908 179.213 158.937 179.263 158.976C179.314 159.015 179.356 159.063 179.388 159.118C179.419 159.173 179.44 159.234 179.448 159.297C179.456 159.361 179.452 159.425 179.435 159.486C179.419 159.548 179.39 159.605 179.351 159.656C179.313 159.706 179.264 159.748 179.209 159.78L140.042 182.388C139.969 182.432 139.885 182.456 139.8 182.455Z" fill="#455A64"/>
<path opacity="0.5" d="M139.8 190.445C139.714 190.446 139.629 190.425 139.555 190.382C139.48 190.34 139.418 190.278 139.375 190.204C139.343 190.149 139.322 190.088 139.314 190.025C139.305 189.962 139.31 189.898 139.327 189.836C139.344 189.775 139.374 189.718 139.413 189.668C139.453 189.618 139.502 189.577 139.559 189.547L178.726 166.929C178.78 166.897 178.84 166.875 178.903 166.866C178.966 166.857 179.03 166.861 179.091 166.877C179.152 166.894 179.21 166.922 179.26 166.961C179.31 167 179.352 167.048 179.383 167.103C179.447 167.215 179.464 167.348 179.432 167.472C179.399 167.597 179.319 167.704 179.209 167.77L140.042 190.378C139.969 190.422 139.885 190.446 139.8 190.445Z" fill="#455A64"/>
<path opacity="0.5" d="M139.8 198.464C139.714 198.465 139.629 198.444 139.555 198.401C139.48 198.359 139.418 198.297 139.375 198.223C139.343 198.168 139.322 198.107 139.314 198.044C139.305 197.981 139.31 197.917 139.327 197.855C139.344 197.794 139.374 197.737 139.413 197.687C139.453 197.637 139.502 197.596 139.559 197.566L178.726 174.948C178.78 174.916 178.84 174.894 178.903 174.885C178.966 174.876 179.03 174.88 179.091 174.896C179.152 174.913 179.21 174.941 179.26 174.98C179.31 175.019 179.352 175.067 179.383 175.122C179.447 175.234 179.464 175.367 179.432 175.491C179.399 175.616 179.319 175.723 179.209 175.789L140.042 198.397C139.969 198.441 139.885 198.465 139.8 198.464Z" fill="#455A64"/>
<path opacity="0.5" d="M139.8 206.483C139.714 206.484 139.629 206.463 139.555 206.42C139.48 206.378 139.418 206.316 139.375 206.242C139.343 206.187 139.322 206.126 139.314 206.063C139.305 206 139.31 205.935 139.327 205.874C139.344 205.813 139.374 205.756 139.413 205.706C139.453 205.656 139.502 205.615 139.559 205.585L178.726 182.967C178.781 182.928 178.843 182.9 178.909 182.886C178.975 182.872 179.043 182.871 179.11 182.885C179.176 182.899 179.238 182.927 179.293 182.967C179.348 183.006 179.394 183.057 179.428 183.115C179.462 183.174 179.483 183.239 179.49 183.306C179.498 183.373 179.491 183.441 179.47 183.505C179.449 183.57 179.416 183.629 179.371 183.68C179.326 183.73 179.271 183.77 179.209 183.798L140.042 206.416C139.969 206.46 139.885 206.484 139.8 206.483Z" fill="#455A64"/>
<path opacity="0.5" d="M139.8 214.502C139.714 214.503 139.629 214.482 139.555 214.439C139.48 214.397 139.418 214.335 139.375 214.261C139.312 214.148 139.296 214.014 139.33 213.89C139.365 213.765 139.447 213.659 139.559 213.594L178.726 190.986C178.835 190.937 178.958 190.93 179.072 190.966C179.186 191.003 179.282 191.08 179.342 191.184C179.403 191.287 179.422 191.409 179.397 191.526C179.373 191.643 179.306 191.747 179.209 191.817L140.042 214.435C139.969 214.479 139.885 214.503 139.8 214.502Z" fill="#455A64"/>
<path opacity="0.5" d="M139.8 222.521C139.714 222.522 139.629 222.501 139.555 222.458C139.48 222.416 139.418 222.354 139.375 222.28C139.312 222.167 139.296 222.033 139.33 221.909C139.365 221.784 139.447 221.678 139.559 221.613L178.726 199.005C178.78 198.966 178.843 198.938 178.909 198.924C178.975 198.909 179.043 198.909 179.11 198.923C179.176 198.937 179.238 198.965 179.293 199.004C179.348 199.044 179.394 199.095 179.428 199.153C179.462 199.212 179.483 199.276 179.49 199.344C179.497 199.411 179.491 199.479 179.47 199.543C179.449 199.608 179.415 199.667 179.37 199.717C179.326 199.768 179.27 199.808 179.209 199.836L140.042 222.454C139.967 222.494 139.885 222.517 139.8 222.521Z" fill="#455A64"/>
<path opacity="0.5" d="M139.8 230.54C139.714 230.541 139.629 230.519 139.555 230.477C139.48 230.435 139.418 230.373 139.375 230.298C139.312 230.186 139.296 230.052 139.33 229.928C139.365 229.803 139.447 229.697 139.559 229.632L178.726 207.024C178.78 206.984 178.843 206.957 178.909 206.943C178.975 206.928 179.043 206.928 179.11 206.942C179.176 206.956 179.238 206.984 179.293 207.023C179.348 207.063 179.394 207.114 179.428 207.172C179.462 207.231 179.483 207.295 179.49 207.363C179.497 207.43 179.491 207.498 179.47 207.562C179.449 207.627 179.415 207.686 179.37 207.736C179.326 207.787 179.27 207.827 179.209 207.855L140.042 230.472C139.967 230.513 139.885 230.536 139.8 230.54Z" fill="#455A64"/>
<path opacity="0.5" d="M139.8 238.549C139.695 238.548 139.593 238.513 139.509 238.448C139.426 238.384 139.366 238.294 139.339 238.192C139.311 238.09 139.318 237.982 139.358 237.884C139.397 237.787 139.468 237.705 139.559 237.651L178.726 215.043C178.781 215.003 178.843 214.976 178.909 214.962C178.975 214.947 179.043 214.947 179.11 214.961C179.176 214.975 179.238 215.003 179.293 215.042C179.348 215.082 179.394 215.133 179.428 215.191C179.462 215.25 179.483 215.314 179.49 215.382C179.498 215.449 179.491 215.517 179.47 215.581C179.449 215.646 179.416 215.705 179.371 215.755C179.326 215.806 179.271 215.846 179.209 215.874L140.042 238.491C139.967 238.529 139.884 238.549 139.8 238.549Z" fill="#455A64"/>
<path opacity="0.5" d="M139.8 246.568C139.695 246.567 139.593 246.532 139.509 246.467C139.426 246.403 139.366 246.313 139.339 246.211C139.311 246.109 139.318 246.001 139.358 245.903C139.397 245.806 139.468 245.724 139.559 245.67L178.726 223.033C178.781 222.993 178.843 222.966 178.909 222.952C178.975 222.937 179.043 222.937 179.11 222.951C179.176 222.965 179.238 222.993 179.293 223.032C179.348 223.072 179.394 223.123 179.428 223.181C179.462 223.24 179.483 223.304 179.49 223.372C179.498 223.439 179.491 223.507 179.47 223.571C179.449 223.636 179.416 223.695 179.371 223.745C179.326 223.796 179.271 223.836 179.209 223.864L140.042 246.51C139.967 246.548 139.884 246.568 139.8 246.568Z" fill="#455A64"/>
<path opacity="0.5" d="M139.8 254.587C139.695 254.586 139.593 254.551 139.509 254.486C139.426 254.422 139.366 254.331 139.339 254.23C139.311 254.128 139.318 254.02 139.358 253.922C139.397 253.825 139.468 253.743 139.559 253.689L178.726 231.071C178.837 231.007 178.97 230.99 179.094 231.024C179.218 231.057 179.324 231.139 179.388 231.25C179.452 231.362 179.469 231.494 179.435 231.618C179.402 231.742 179.32 231.848 179.209 231.912L140.042 254.52C139.969 254.564 139.885 254.588 139.8 254.587Z" fill="#455A64"/>
<path opacity="0.5" d="M139.8 262.645C139.695 262.644 139.593 262.608 139.509 262.544C139.426 262.479 139.366 262.389 139.339 262.287C139.311 262.185 139.318 262.077 139.358 261.98C139.397 261.882 139.468 261.8 139.559 261.746L178.726 239.129C178.837 239.065 178.97 239.048 179.094 239.081C179.218 239.115 179.324 239.196 179.388 239.308C179.452 239.419 179.469 239.552 179.435 239.676C179.402 239.8 179.32 239.905 179.209 239.97L140.042 262.577C139.969 262.622 139.885 262.645 139.8 262.645Z" fill="#455A64"/>
<path opacity="0.5" d="M139.8 270.625C139.695 270.624 139.593 270.589 139.509 270.524C139.426 270.459 139.366 270.369 139.339 270.267C139.311 270.166 139.318 270.058 139.358 269.96C139.397 269.862 139.468 269.78 139.559 269.727L178.726 247.109C178.781 247.077 178.842 247.056 178.905 247.048C178.968 247.04 179.032 247.044 179.093 247.061C179.155 247.079 179.212 247.108 179.262 247.148C179.311 247.187 179.353 247.237 179.383 247.293C179.446 247.403 179.464 247.534 179.431 247.657C179.398 247.78 179.319 247.885 179.209 247.95L140.042 270.558C139.969 270.602 139.885 270.626 139.8 270.625Z" fill="#455A64"/>
<path opacity="0.5" d="M139.8 278.644C139.714 278.645 139.629 278.624 139.555 278.581C139.48 278.539 139.418 278.477 139.375 278.403C139.343 278.348 139.322 278.287 139.314 278.224C139.305 278.16 139.31 278.096 139.327 278.035C139.344 277.974 139.374 277.916 139.413 277.867C139.453 277.817 139.502 277.776 139.559 277.746L178.726 255.128C178.78 255.096 178.84 255.074 178.903 255.065C178.966 255.056 179.03 255.06 179.091 255.076C179.152 255.092 179.21 255.121 179.26 255.16C179.31 255.198 179.352 255.247 179.383 255.302C179.447 255.414 179.464 255.546 179.432 255.671C179.399 255.796 179.319 255.902 179.209 255.969L140.042 278.576C139.969 278.621 139.885 278.645 139.8 278.644Z" fill="#455A64"/>
<path opacity="0.5" d="M139.8 286.663C139.714 286.664 139.629 286.642 139.555 286.6C139.48 286.558 139.418 286.496 139.375 286.421C139.343 286.367 139.322 286.306 139.314 286.243C139.305 286.179 139.31 286.115 139.327 286.054C139.344 285.993 139.374 285.935 139.413 285.886C139.453 285.836 139.502 285.795 139.559 285.765L178.726 263.147C178.78 263.114 178.84 263.093 178.903 263.084C178.966 263.075 179.03 263.079 179.091 263.095C179.152 263.111 179.21 263.14 179.26 263.179C179.31 263.217 179.352 263.266 179.383 263.321C179.447 263.433 179.464 263.565 179.432 263.69C179.399 263.814 179.319 263.921 179.209 263.988L140.042 286.595C139.969 286.64 139.885 286.664 139.8 286.663Z" fill="#455A64"/>
<path opacity="0.5" d="M139.8 294.682C139.714 294.683 139.629 294.662 139.555 294.619C139.48 294.577 139.418 294.515 139.375 294.441C139.343 294.386 139.322 294.325 139.314 294.262C139.305 294.199 139.31 294.134 139.327 294.073C139.344 294.012 139.374 293.954 139.413 293.905C139.453 293.855 139.502 293.814 139.559 293.784L178.726 271.166C178.78 271.134 178.84 271.112 178.903 271.103C178.966 271.094 179.03 271.098 179.091 271.114C179.152 271.13 179.21 271.159 179.26 271.198C179.31 271.236 179.352 271.285 179.383 271.34C179.447 271.452 179.464 271.584 179.432 271.709C179.399 271.834 179.319 271.94 179.209 272.007L140.042 294.614C139.969 294.659 139.885 294.683 139.8 294.682Z" fill="#455A64"/>
<path opacity="0.5" d="M139.8 302.701C139.714 302.702 139.629 302.68 139.555 302.638C139.48 302.595 139.418 302.534 139.375 302.459C139.312 302.346 139.296 302.213 139.33 302.088C139.365 301.964 139.447 301.858 139.559 301.793L178.726 279.185C178.78 279.145 178.843 279.117 178.909 279.103C178.975 279.089 179.043 279.089 179.11 279.103C179.176 279.117 179.238 279.145 179.293 279.184C179.348 279.224 179.394 279.275 179.428 279.333C179.462 279.391 179.483 279.456 179.49 279.524C179.497 279.591 179.491 279.659 179.47 279.723C179.449 279.787 179.415 279.847 179.37 279.897C179.326 279.948 179.27 279.988 179.209 280.016L140.042 302.633C139.969 302.678 139.885 302.702 139.8 302.701Z" fill="#455A64"/>
<path opacity="0.5" d="M139.8 310.72C139.714 310.721 139.629 310.699 139.555 310.657C139.48 310.614 139.418 310.553 139.375 310.478C139.312 310.365 139.296 310.232 139.33 310.107C139.365 309.983 139.447 309.877 139.559 309.812L178.726 287.204C178.78 287.164 178.843 287.137 178.909 287.122C178.975 287.108 179.043 287.108 179.11 287.122C179.176 287.136 179.238 287.164 179.293 287.203C179.348 287.243 179.394 287.294 179.428 287.352C179.462 287.41 179.483 287.475 179.49 287.543C179.497 287.61 179.491 287.678 179.47 287.742C179.449 287.806 179.415 287.866 179.37 287.916C179.326 287.967 179.27 288.007 179.209 288.035L140.042 310.652C139.967 310.693 139.885 310.716 139.8 310.72Z" fill="#455A64"/>
<path opacity="0.5" d="M139.8 318.739C139.714 318.74 139.629 318.718 139.555 318.676C139.48 318.633 139.418 318.572 139.375 318.497C139.312 318.384 139.296 318.251 139.33 318.126C139.365 318.002 139.447 317.895 139.559 317.831L178.726 295.223C178.835 295.174 178.958 295.167 179.072 295.203C179.186 295.24 179.282 295.317 179.342 295.42C179.403 295.524 179.422 295.646 179.397 295.763C179.373 295.88 179.306 295.984 179.209 296.054L140.042 318.681C139.966 318.718 139.884 318.737 139.8 318.739Z" fill="#455A64"/>
<path opacity="0.5" d="M139.8 326.748C139.695 326.747 139.593 326.712 139.509 326.647C139.426 326.582 139.366 326.492 139.339 326.39C139.311 326.289 139.318 326.181 139.358 326.083C139.397 325.985 139.468 325.903 139.559 325.85L178.726 303.223C178.781 303.183 178.843 303.155 178.909 303.141C178.975 303.127 179.043 303.127 179.11 303.141C179.176 303.155 179.238 303.182 179.293 303.222C179.348 303.262 179.394 303.312 179.428 303.371C179.462 303.429 179.483 303.494 179.49 303.561C179.498 303.628 179.491 303.696 179.47 303.761C179.449 303.825 179.416 303.884 179.371 303.935C179.326 303.985 179.271 304.026 179.209 304.054L140.042 326.671C139.968 326.715 139.886 326.742 139.8 326.748Z" fill="#455A64"/>
<path opacity="0.5" d="M139.8 334.767C139.695 334.766 139.593 334.731 139.509 334.666C139.426 334.602 139.366 334.511 139.339 334.41C139.311 334.308 139.318 334.2 139.358 334.102C139.397 334.005 139.468 333.923 139.559 333.869L178.726 311.261C178.781 311.221 178.843 311.193 178.909 311.179C178.975 311.165 179.043 311.165 179.11 311.179C179.176 311.193 179.238 311.221 179.293 311.26C179.348 311.3 179.394 311.35 179.428 311.409C179.462 311.467 179.483 311.532 179.49 311.599C179.498 311.667 179.491 311.735 179.47 311.799C179.449 311.863 179.416 311.923 179.371 311.973C179.326 312.024 179.271 312.064 179.209 312.092L140.042 334.709C139.967 334.747 139.884 334.767 139.8 334.767Z" fill="#455A64"/>
<path opacity="0.5" d="M139.8 342.834C139.695 342.833 139.593 342.798 139.509 342.733C139.426 342.669 139.366 342.579 139.339 342.477C139.311 342.375 139.318 342.267 139.358 342.169C139.397 342.072 139.468 341.99 139.559 341.936L178.726 319.319C178.837 319.254 178.97 319.237 179.094 319.271C179.218 319.304 179.324 319.386 179.388 319.497C179.452 319.609 179.469 319.741 179.435 319.865C179.402 319.989 179.32 320.095 179.209 320.159L140.042 342.776C139.967 342.814 139.884 342.834 139.8 342.834Z" fill="#455A64"/>
<path opacity="0.5" d="M139.8 350.805C139.695 350.804 139.593 350.768 139.509 350.704C139.426 350.639 139.366 350.549 139.339 350.447C139.311 350.346 139.318 350.238 139.358 350.14C139.397 350.042 139.468 349.96 139.559 349.907L178.726 327.289C178.837 327.225 178.97 327.208 179.094 327.241C179.218 327.275 179.324 327.356 179.388 327.468C179.452 327.579 179.469 327.712 179.435 327.836C179.402 327.96 179.32 328.066 179.209 328.13L140.042 350.737C139.969 350.782 139.885 350.806 139.8 350.805Z" fill="#455A64"/>
<path opacity="0.5" d="M140.061 358.592C139.977 358.592 139.894 358.569 139.821 358.527C139.748 358.484 139.688 358.423 139.645 358.35C139.582 358.239 139.564 358.106 139.597 357.982C139.629 357.857 139.709 357.75 139.819 357.684L178.987 335.105C179.096 335.056 179.219 335.049 179.333 335.085C179.447 335.122 179.543 335.199 179.603 335.303C179.663 335.406 179.683 335.528 179.658 335.645C179.634 335.762 179.566 335.866 179.47 335.936L140.302 358.553C140.227 358.589 140.143 358.603 140.061 358.592Z" fill="#455A64"/>
<path opacity="0.5" d="M142.177 366.302C142.071 366.301 141.969 366.265 141.886 366.201C141.803 366.136 141.743 366.046 141.715 365.944C141.688 365.842 141.695 365.734 141.734 365.637C141.774 365.539 141.845 365.457 141.935 365.403L181.103 342.834C181.157 342.795 181.22 342.767 181.286 342.753C181.352 342.739 181.42 342.738 181.486 342.752C181.552 342.766 181.615 342.794 181.67 342.834C181.725 342.873 181.77 342.924 181.804 342.982C181.838 343.041 181.86 343.106 181.867 343.173C181.874 343.24 181.867 343.308 181.847 343.372C181.826 343.437 181.792 343.496 181.747 343.547C181.702 343.597 181.647 343.637 181.586 343.665L142.418 366.283C142.34 366.307 142.258 366.313 142.177 366.302Z" fill="#455A64"/>
<path opacity="0.5" d="M145.819 372.785L170.495 358.544V359.655L146.341 373.625C146.266 373.663 146.183 373.683 146.099 373.683C145.994 373.682 145.892 373.647 145.809 373.582C145.725 373.518 145.665 373.427 145.638 373.326C145.611 373.224 145.617 373.116 145.657 373.018C145.697 372.921 145.767 372.839 145.858 372.785H145.819Z" fill="#455A64"/>
<path opacity="0.5" d="M152.215 378.35L170.494 367.838V368.92L152.698 379.151C152.626 379.197 152.542 379.221 152.456 379.219C152.351 379.218 152.249 379.182 152.165 379.118C152.082 379.053 152.022 378.963 151.995 378.861C151.967 378.76 151.974 378.652 152.014 378.554C152.054 378.456 152.124 378.374 152.215 378.321V378.35Z" fill="#455A64"/>
<path opacity="0.5" d="M160.089 381.944L170.494 375.992C170.494 376.379 170.494 376.755 170.494 377.123L160.611 382.775C160.539 382.82 160.455 382.844 160.369 382.842C160.264 382.841 160.162 382.806 160.078 382.741C159.995 382.676 159.935 382.586 159.908 382.484C159.88 382.383 159.887 382.275 159.927 382.177C159.966 382.079 160.037 381.997 160.128 381.944H160.089Z" fill="#455A64"/>
</g>
<g opacity="0.5">
<path opacity="0.5" d="M123.405 169.383V170.495L115.241 175.209C115.169 175.255 115.085 175.279 114.999 175.277C114.894 175.276 114.792 175.24 114.708 175.176C114.625 175.111 114.565 175.021 114.538 174.919C114.51 174.817 114.517 174.709 114.557 174.612C114.597 174.514 114.667 174.432 114.758 174.378L123.405 169.383Z" fill="#455A64"/>
<path opacity="0.5" d="M123.405 178.33V179.441L117.357 182.929C117.285 182.975 117.201 182.998 117.115 182.996C117.01 182.995 116.908 182.96 116.824 182.895C116.741 182.831 116.681 182.741 116.654 182.639C116.626 182.537 116.633 182.429 116.673 182.331C116.713 182.234 116.783 182.152 116.874 182.098L123.405 178.33Z" fill="#455A64"/>
</g>
<path d="M186.194 128.989C186.194 128.989 185.528 135.057 185.383 136.496C185.238 137.936 180.629 141.327 177.48 142.795C174.33 144.264 170.891 146.013 173.277 150.37C175.48 154.389 181.103 154.399 183.856 153.79C186.61 153.181 189.943 149.848 190.687 145.307C191.653 139.51 189.566 133.868 189.769 130.545C189.972 127.221 187.518 126.796 186.194 128.989Z" fill="#B16668"/>
</g>
<defs>
<clipPath id="clip0_150:776">
<rect width="420" height="448.52" fill="white"/>
</clipPath>
</defs>
</svg>
